<svg width="15" height="16" viewBox="0 0 15 16" fill="none" xmlns="http://www.w3.org/2000/svg">
<path fill-rule="evenodd" clip-rule="evenodd" d="M14.658 2.62517C14.4456 2.40579 14.1524 2.28324 13.847 2.28617H12.693V1.42917C12.6981 1.04852 12.5445 0.682925 12.269 0.420174C12.0011 0.146736 11.6328 -0.00504198 11.25 0.000173597H10.673C10.2902 -0.00504198 9.92196 0.146736 9.65401 0.420174C9.37853 0.682925 9.22491 1.04852 9.23001 1.42917V2.28617H5.76901V1.42917C5.77438 1.04867 5.62112 0.683098 5.34601 0.420174C5.07734 0.145975 4.70785 -0.00586722 4.32401 0.000173597H3.74701C3.36421 -0.00504198 2.99596 0.146736 2.72801 0.420174C2.45253 0.682925 2.29891 1.04852 2.30401 1.42917V2.28617H1.15401C0.848639 2.28324 0.555451 2.40579 0.343011 2.62517C0.122847 2.83285 -0.001349 3.12252 1.1054e-05 3.42517V14.8572C-0.00122882 15.1598 0.122947 15.4494 0.343011 15.6572C0.554769 15.878 0.848045 16.0021 1.15401 16.0002H13.846C14.1514 16.0031 14.4446 15.8806 14.657 15.6612C14.8772 15.4535 15.0014 15.1638 15 14.8612V3.42917C15.0027 3.12528 14.8788 2.83397 14.658 2.62517ZM3.75001 14.8572H1.15001V12.2862H3.75001V14.8572ZM1.15001 11.7142H3.75001V8.85717H1.15001V11.7142ZM3.75001 8.28517H1.15001V5.71417H3.75001V8.28517ZM3.46401 4.00017C3.46371 4.07588 3.49485 4.14832 3.55001 4.20017H3.54701C3.59938 4.25447 3.67157 4.28515 3.74701 4.28517H4.32401C4.39945 4.28515 4.47164 4.25447 4.52401 4.20017C4.57917 4.14832 4.61032 4.07588 4.61001 4.00017V1.42917C4.61032 1.35347 4.57917 1.28103 4.52401 1.22917C4.47164 1.17488 4.39945 1.1442 4.32401 1.14417H3.75001C3.67457 1.1442 3.60238 1.17488 3.55001 1.22917C3.49485 1.28103 3.46371 1.35347 3.46401 1.42917V4.00017ZM4.32401 14.8562V12.2862H7.20901L7.21401 14.8562H4.32401ZM4.32401 8.85717V11.7132H7.21401L7.20901 8.85717H4.32401ZM4.32401 8.28417V5.71417H7.20901L7.21401 8.28417H4.32401ZM7.78901 14.8552H10.676L10.674 12.2862H7.78901V14.8552ZM10.676 11.7122H7.78901V8.85717H10.674L10.676 11.7122ZM7.78901 8.28317H10.676L10.674 5.71417H7.78901V8.28317ZM10.476 4.19817C10.4212 4.14614 10.3904 4.07373 10.391 3.99817V1.42917C10.3904 1.35362 10.4212 1.2812 10.476 1.22917C10.5284 1.17488 10.6006 1.1442 10.676 1.14417H11.253C11.3284 1.14431 11.4006 1.17497 11.453 1.22917C11.5078 1.2812 11.5386 1.35362 11.538 1.42917V4.00017C11.5386 4.07573 11.5078 4.14814 11.453 4.20017C11.4006 4.25447 11.3284 4.28515 11.253 4.28517H10.676C10.5985 4.28681 10.5238 4.25599 10.47 4.20017L10.476 4.19817ZM11.252 14.8542H13.852V12.2862H11.252V14.8542ZM13.852 11.7112H11.252V8.85717H13.852V11.7112ZM11.252 8.28217H13.852V5.71417H11.252V8.28217Z" fill="white"/>
</svg>
