<svg width="28" height="25" viewBox="0 0 28 25" fill="none" xmlns="http://www.w3.org/2000/svg">
<path fill-rule="evenodd" clip-rule="evenodd" d="M16.1948 11.3164H18.5278C18.7538 11.3164 18.9705 11.4061 19.1303 11.5659C19.2901 11.7257 19.3798 11.9424 19.3798 12.1684V15.5304C19.3783 15.7563 19.287 15.9724 19.1261 16.1311C18.9652 16.2897 18.7478 16.378 18.5218 16.3764H16.1888V18.7094C16.1888 19.1799 15.8074 19.5614 15.3368 19.5614H11.9748C11.7489 19.5598 11.5328 19.4685 11.3741 19.3076C11.2155 19.1467 11.1273 18.9293 11.1288 18.7034V16.3764H8.79585C8.3253 16.3764 7.94385 15.9949 7.94385 15.5244V12.1564C7.94543 11.9304 8.03672 11.7143 8.19763 11.5557C8.35854 11.397 8.57588 11.3088 8.80185 11.3104H11.1288V8.97737C11.1288 8.50682 11.5103 8.12537 11.9808 8.12537H15.3488C15.5748 8.12695 15.7909 8.21824 15.9496 8.37915C16.1082 8.54006 16.1964 8.7574 16.1948 8.98337V11.3164ZM15.6228 15.2334H18.2358L18.2348 12.4554H15.6158C15.4641 12.4554 15.3187 12.3951 15.2114 12.2878C15.1041 12.1806 15.0438 12.0351 15.0438 11.8834V9.27037H12.2718V11.8884C12.2718 12.2043 12.0158 12.4604 11.6998 12.4604H9.08685V15.2334H11.6998C12.0158 15.2334 12.2718 15.4895 12.2718 15.8054V18.4184H15.0508V15.8054C15.0508 15.4895 15.3069 15.2334 15.6228 15.2334Z" fill="#4C9E84"/>
<path d="M16.1948 11.3164H16.0448V11.4664H16.1948V11.3164ZM19.3798 15.5304L19.5298 15.5314V15.5304H19.3798ZM18.5218 16.3764L18.5229 16.2264H18.5218V16.3764ZM16.1888 16.3764V16.2264H16.0388V16.3764H16.1888ZM11.9748 19.5614L11.9738 19.7114H11.9748V19.5614ZM11.1288 18.7034L11.2788 18.7044V18.7034H11.1288ZM11.1288 16.3764H11.2788V16.2264H11.1288V16.3764ZM7.94385 12.1564L7.79385 12.1553V12.1564H7.94385ZM8.19763 11.5557L8.30295 11.6625V11.6625L8.19763 11.5557ZM8.80185 11.3104L8.80079 11.4604H8.80185V11.3104ZM11.1288 11.3104V11.4604H11.2788V11.3104H11.1288ZM15.3488 8.12537L15.3499 7.97537H15.3488V8.12537ZM15.9496 8.37915L15.8427 8.48446V8.48446L15.9496 8.37915ZM16.1948 8.98337L16.0448 8.98231V8.98337H16.1948ZM18.2358 15.2334V15.3834H18.3859L18.3858 15.2333L18.2358 15.2334ZM18.2348 12.4554L18.3848 12.4553L18.3848 12.3054H18.2348V12.4554ZM15.0438 9.27037H15.1938V9.12037H15.0438V9.27037ZM12.2718 9.27037V9.12037H12.1218V9.27037H12.2718ZM9.08685 12.4604V12.3104H8.93685V12.4604H9.08685ZM9.08685 15.2334H8.93685V15.3834H9.08685V15.2334ZM12.2718 18.4184H12.1218V18.5684H12.2718V18.4184ZM15.0508 18.4184V18.5684H15.2008V18.4184H15.0508ZM18.5278 11.3164V11.1664H16.1948V11.3164V11.4664H18.5278V11.3164ZM19.1303 11.5659L19.2364 11.4598C19.0485 11.2719 18.7936 11.1664 18.5278 11.1664V11.3164V11.4664C18.714 11.4664 18.8926 11.5403 19.0242 11.672L19.1303 11.5659ZM19.3798 12.1684H19.5298C19.5298 11.9026 19.4243 11.6478 19.2364 11.4598L19.1303 11.5659L19.0242 11.672C19.1559 11.8036 19.2298 11.9822 19.2298 12.1684H19.3798ZM19.3798 15.5304H19.5298V12.1684H19.3798H19.2298V15.5304H19.3798ZM19.1261 16.1311L19.2314 16.2379C19.4206 16.0513 19.528 15.7972 19.5298 15.5314L19.3798 15.5304L19.2299 15.5293C19.2285 15.7155 19.1533 15.8935 19.0208 16.0243L19.1261 16.1311ZM18.5218 16.3764L18.5208 16.5264C18.7865 16.5282 19.0421 16.4245 19.2314 16.2379L19.1261 16.1311L19.0208 16.0243C18.8882 16.155 18.7091 16.2277 18.5229 16.2264L18.5218 16.3764ZM16.1888 16.3764V16.5264H18.5218V16.3764V16.2264H16.1888V16.3764ZM16.1888 18.7094H16.3388V16.3764H16.1888H16.0388V18.7094H16.1888ZM15.3368 19.5614V19.7114C15.8902 19.7114 16.3388 19.2628 16.3388 18.7094H16.1888H16.0388C16.0388 19.0971 15.7246 19.4114 15.3368 19.4114V19.5614ZM11.9748 19.5614V19.7114H15.3368V19.5614V19.4114H11.9748V19.5614ZM11.3741 19.3076L11.2673 19.4129C11.4539 19.6021 11.708 19.7095 11.9738 19.7114L11.9748 19.5614L11.9759 19.4114C11.7897 19.4101 11.6117 19.3348 11.481 19.2023L11.3741 19.3076ZM11.1288 18.7034L10.9789 18.7023C10.977 18.9681 11.0807 19.2237 11.2673 19.4129L11.3741 19.3076L11.481 19.2023C11.3502 19.0697 11.2775 18.8906 11.2788 18.7044L11.1288 18.7034ZM11.1288 16.3764H10.9788V18.7034H11.1288H11.2788V16.3764H11.1288ZM8.79585 16.3764V16.5264H11.1288V16.3764V16.2264H8.79585V16.3764ZM7.94385 15.5244H7.79385C7.79385 16.0778 8.24246 16.5264 8.79585 16.5264V16.3764V16.2264C8.40814 16.2264 8.09385 15.9121 8.09385 15.5244H7.94385ZM7.94385 12.1564H7.79385V15.5244H7.94385H8.09385V12.1564H7.94385ZM8.19763 11.5557L8.09231 11.4489C7.90308 11.6354 7.79572 11.8896 7.79385 12.1553L7.94385 12.1564L8.09384 12.1574C8.09515 11.9712 8.17037 11.7932 8.30295 11.6625L8.19763 11.5557ZM8.80185 11.3104L8.80291 11.1604C8.53716 11.1585 8.28155 11.2623 8.09231 11.4489L8.19763 11.5557L8.30295 11.6625C8.43552 11.5317 8.6146 11.459 8.80079 11.4604L8.80185 11.3104ZM11.1288 11.3104V11.1604H8.80185V11.3104V11.4604H11.1288V11.3104ZM11.1288 8.97737H10.9788V11.3104H11.1288H11.2788V8.97737H11.1288ZM11.9808 8.12537V7.97537C11.4275 7.97537 10.9788 8.42398 10.9788 8.97737H11.1288H11.2788C11.2788 8.58966 11.5931 8.27537 11.9808 8.27537V8.12537ZM15.3488 8.12537V7.97537H11.9808V8.12537V8.27537H15.3488V8.12537ZM15.9496 8.37915L16.0564 8.27383C15.8698 8.0846 15.6156 7.97723 15.3499 7.97537L15.3488 8.12537L15.3478 8.27536C15.534 8.27667 15.712 8.35189 15.8427 8.48446L15.9496 8.37915ZM16.1948 8.98337L16.3448 8.98443C16.3467 8.71868 16.243 8.46307 16.0564 8.27383L15.9496 8.37915L15.8427 8.48446C15.9735 8.61704 16.0462 8.79612 16.0449 8.98231L16.1948 8.98337ZM16.1948 11.3164H16.3448V8.98337H16.1948H16.0448V11.3164H16.1948ZM18.2358 15.2334V15.0834H15.6228V15.2334V15.3834H18.2358V15.2334ZM18.2348 12.4554L18.0848 12.4554L18.0858 15.2334L18.2358 15.2334L18.3858 15.2333L18.3848 12.4553L18.2348 12.4554ZM15.6158 12.4554V12.6054H18.2348V12.4554V12.3054H15.6158V12.4554ZM15.2114 12.2878L15.1053 12.3939C15.2407 12.5293 15.4244 12.6054 15.6158 12.6054V12.4554V12.3054C15.5039 12.3054 15.3966 12.2609 15.3174 12.1818L15.2114 12.2878ZM15.0438 11.8834H14.8938C14.8938 12.0749 14.9699 12.2585 15.1053 12.3939L15.2114 12.2878L15.3174 12.1818C15.2383 12.1026 15.1938 11.9953 15.1938 11.8834H15.0438ZM15.0438 9.27037H14.8938V11.8834H15.0438H15.1938V9.27037H15.0438ZM12.2718 9.27037V9.42037H15.0438V9.27037V9.12037H12.2718V9.27037ZM12.2718 11.8884H12.4218V9.27037H12.2718H12.1218V11.8884H12.2718ZM11.6998 12.4604V12.6104C12.0986 12.6104 12.4218 12.2871 12.4218 11.8884H12.2718H12.1218C12.1218 12.1214 11.9329 12.3104 11.6998 12.3104V12.4604ZM9.08685 12.4604V12.6104H11.6998V12.4604V12.3104H9.08685V12.4604ZM9.08685 15.2334H9.23685V12.4604H9.08685H8.93685V15.2334H9.08685ZM11.6998 15.2334V15.0834H9.08685V15.2334V15.3834H11.6998V15.2334ZM12.2718 15.8054H12.4218C12.4218 15.4066 12.0986 15.0834 11.6998 15.0834V15.2334V15.3834C11.9329 15.3834 12.1218 15.5723 12.1218 15.8054H12.2718ZM12.2718 18.4184H12.4218V15.8054H12.2718H12.1218V18.4184H12.2718ZM15.0508 18.4184V18.2684H12.2718V18.4184V18.5684H15.0508V18.4184ZM15.0508 15.8054H14.9008V18.4184H15.0508H15.2008V15.8054H15.0508ZM15.6228 15.2334V15.0834C15.2241 15.0834 14.9008 15.4066 14.9008 15.8054H15.0508H15.2008C15.2008 15.5723 15.3898 15.3834 15.6228 15.3834V15.2334Z" fill="#4C9E84"/>
<path fill-rule="evenodd" clip-rule="evenodd" d="M23.3289 3.87141H18.7509V1.86441C18.7905 0.960057 18.0911 0.194065 17.1869 0.151405H17.0509H10.2729C9.83876 0.133556 9.41541 0.289344 9.0964 0.584332C8.77739 0.879319 8.58901 1.28921 8.57289 1.72341V1.86341V3.86341H3.99489C2.94401 3.80667 1.91982 4.20655 1.18539 4.96033C0.450961 5.71412 0.0778504 6.74835 0.161889 7.79741V20.2104C0.0766299 21.2601 0.449198 22.2955 1.18377 23.0502C1.91835 23.8049 2.94325 24.2053 3.99489 24.1484H23.3289C24.3805 24.2053 25.4054 23.8049 26.14 23.0502C26.8746 22.2955 27.2471 21.2601 27.1619 20.2104V7.81041C27.2485 6.76027 26.8764 5.72405 26.1415 4.96888C25.4067 4.21371 24.381 3.81349 23.3289 3.87141ZM9.68389 1.86441C9.65669 1.69858 9.70975 1.52968 9.82689 1.40919C9.94402 1.2887 10.1114 1.2309 10.2779 1.25341H17.0499C17.2166 1.23 17.3845 1.28751 17.5019 1.40823C17.6192 1.52895 17.672 1.6984 17.6439 1.86441V3.86441H9.68389V1.86441ZM25.3532 22.2553C25.8806 21.7127 26.1367 20.9622 26.0509 20.2104V7.8104C26.136 7.05883 25.8796 6.30869 25.3524 5.76635C24.8252 5.22401 24.0826 4.94659 23.3289 5.01041H3.99489C3.24102 4.94584 2.49796 5.22302 1.97055 5.76555C1.44314 6.30807 1.18706 7.05866 1.27289 7.8104V20.2104C1.18781 20.962 1.44415 21.7121 1.97138 22.2545C2.49861 22.7968 3.24121 23.0742 3.99489 23.0104H23.3289C24.0828 23.075 24.8258 22.7978 25.3532 22.2553Z" fill="#4C9E84"/>
<path d="M18.7509 3.87141H18.6009V4.02141H18.7509V3.87141ZM23.3289 3.87141V4.02163L23.3371 4.02118L23.3289 3.87141ZM18.7509 1.86441L18.6009 1.85784V1.86441H18.7509ZM17.1869 0.151405L17.194 0.00140521H17.1869V0.151405ZM10.2729 0.151405L10.2667 0.301405H10.2729V0.151405ZM8.57289 1.72341L8.42289 1.71784V1.72341H8.57289ZM8.57289 3.86341V4.01341H8.72289V3.86341H8.57289ZM3.99489 3.86341L3.98679 4.01341H3.99489V3.86341ZM0.161889 7.79741H0.312369L0.31141 7.78543L0.161889 7.79741ZM0.161889 20.2104L0.311889 20.2226V20.2104H0.161889ZM1.18377 23.0502L1.07629 23.1548V23.1548L1.18377 23.0502ZM3.99489 24.1484V23.9982L3.98679 23.9986L3.99489 24.1484ZM23.3289 24.1484L23.337 23.9984H23.3289V24.1484ZM27.1619 20.2104H27.0114L27.0124 20.2225L27.1619 20.2104ZM27.1619 7.81041L27.0119 7.79804V7.81041H27.1619ZM9.68389 1.86441H9.83389V1.85219L9.83191 1.84013L9.68389 1.86441ZM10.2779 1.25341L10.2578 1.40205L10.2678 1.40341H10.2779V1.25341ZM17.0499 1.25341V1.40341H17.0604L17.0707 1.40195L17.0499 1.25341ZM17.5019 1.40823L17.3943 1.51279L17.3943 1.51279L17.5019 1.40823ZM17.6439 1.86441L17.496 1.83937L17.4939 1.8518V1.86441H17.6439ZM17.6439 3.86441V4.01441H17.7939V3.86441H17.6439ZM9.68389 3.86441H9.53389V4.01441H9.68389V3.86441ZM26.0509 20.2104H25.9009V20.2189L25.9019 20.2274L26.0509 20.2104ZM25.3532 22.2553L25.4608 22.3598V22.3598L25.3532 22.2553ZM26.0509 7.8104L25.9018 7.79353L25.9009 7.80194V7.8104H26.0509ZM25.3524 5.76635L25.4599 5.6618V5.6618L25.3524 5.76635ZM23.3289 5.01041V5.16094L23.3415 5.15987L23.3289 5.01041ZM3.99489 5.01041L3.98204 5.16041H3.99489V5.01041ZM1.97055 5.76555L2.07811 5.87011V5.87011L1.97055 5.76555ZM1.27289 7.8104H1.42289V7.80187L1.42192 7.79339L1.27289 7.8104ZM1.27289 20.2104L1.42194 20.2273L1.42289 20.2189V20.2104H1.27289ZM1.97138 22.2545L1.86383 22.359H1.86383L1.97138 22.2545ZM3.99489 23.0104V22.8599L3.98223 22.8609L3.99489 23.0104ZM23.3289 23.0104L23.3417 22.8604H23.3289V23.0104ZM18.7509 3.87141V4.02141H23.3289V3.87141V3.72141H18.7509V3.87141ZM18.7509 1.86441H18.6009V3.87141H18.7509H18.9009V1.86441H18.7509ZM17.1869 0.151405L17.1798 0.301239C18.0015 0.340004 18.637 1.03606 18.601 1.85785L18.7509 1.86441L18.9007 1.87096C18.9439 0.88405 18.1807 0.0481264 17.194 0.00157186L17.1869 0.151405ZM17.0509 0.151405V0.301405H17.1869V0.151405V0.00140521H17.0509V0.151405ZM10.2729 0.151405V0.301405H17.0509V0.151405V0.00140521H10.2729V0.151405ZM9.0964 0.584332L9.19824 0.694463C9.48796 0.426555 9.87245 0.285068 10.2667 0.301279L10.2729 0.151405L10.2791 0.00153182C9.80507 -0.0179557 9.34285 0.152133 8.99456 0.4742L9.0964 0.584332ZM8.57289 1.72341L8.72279 1.72897C8.73743 1.33464 8.90852 0.96237 9.19824 0.694463L9.0964 0.584332L8.99456 0.4742C8.64627 0.796268 8.44059 1.24379 8.42299 1.71784L8.57289 1.72341ZM8.57289 1.86341H8.72289V1.72341H8.57289H8.42289V1.86341H8.57289ZM8.57289 3.86341H8.72289V1.86341H8.57289H8.42289V3.86341H8.57289ZM3.99489 3.86341V4.01341H8.57289V3.86341V3.71341H3.99489V3.86341ZM1.18539 4.96033L1.29283 5.06501C1.99706 4.34222 2.97913 3.95879 3.9868 4.01319L3.99489 3.86341L4.00297 3.71362C2.90888 3.65456 1.84258 4.07088 1.07796 4.85566L1.18539 4.96033ZM0.161889 7.79741L0.31141 7.78543C0.230827 6.77951 0.588596 5.7878 1.29283 5.06501L1.18539 4.96033L1.07796 4.85566C0.313327 5.64043 -0.0751261 6.71719 0.0123679 7.80938L0.161889 7.79741ZM0.161889 20.2104H0.311889V7.79741H0.161889H0.0118889V20.2104H0.161889ZM1.18377 23.0502L1.29126 22.9455C0.586892 22.2219 0.229643 21.2291 0.311397 20.2225L0.161889 20.2104L0.0123812 20.1983C-0.0763835 21.2911 0.311504 22.3691 1.07629 23.1548L1.18377 23.0502ZM3.99489 24.1484L3.98679 23.9986C2.97839 24.0532 1.99564 23.6692 1.29126 22.9455L1.18377 23.0502L1.07629 23.1548C1.84107 23.9405 2.90811 24.3574 4.00299 24.2982L3.99489 24.1484ZM23.3289 24.1484V23.9984H3.99489V24.1484V24.2984H23.3289V24.1484ZM26.14 23.0502L26.0325 22.9455C25.3281 23.6692 24.3454 24.0532 23.337 23.9986L23.3289 24.1484L23.3208 24.2982C24.4157 24.3574 25.4827 23.9405 26.2475 23.1548L26.14 23.0502ZM27.1619 20.2104L27.0124 20.2225C27.0941 21.2291 26.7369 22.2219 26.0325 22.9455L26.14 23.0502L26.2475 23.1548C27.0123 22.3691 27.4002 21.2911 27.3114 20.1983L27.1619 20.2104ZM27.1619 7.81041H27.0119V20.2104H27.1619H27.3119V7.81041H27.1619ZM26.1415 4.96888L26.034 5.07349C26.7386 5.79758 27.0954 6.79116 27.0124 7.79808L27.1619 7.81041L27.3114 7.82273C27.4015 6.72938 27.0141 5.65052 26.249 4.86427L26.1415 4.96888ZM23.3289 3.87141L23.3371 4.02118C24.3459 3.96565 25.3294 4.3494 26.034 5.07349L26.1415 4.96888L26.249 4.86427C25.4839 4.07803 24.416 3.66134 23.3206 3.72163L23.3289 3.87141ZM9.82689 1.40919L9.71933 1.30463C9.56905 1.45922 9.50097 1.67592 9.53587 1.88868L9.68389 1.86441L9.83191 1.84013C9.81241 1.72123 9.85045 1.60014 9.93444 1.51375L9.82689 1.40919ZM10.2779 1.25341L10.298 1.10476C10.0843 1.07588 9.86962 1.15004 9.71933 1.30463L9.82689 1.40919L9.93444 1.51375C10.0184 1.42736 10.1384 1.38592 10.2578 1.40205L10.2779 1.25341ZM17.0499 1.25341V1.10341H10.2779V1.25341V1.40341H17.0499V1.25341ZM17.5019 1.40823L17.6094 1.30367C17.4587 1.14865 17.2431 1.0748 17.029 1.10486L17.0499 1.25341L17.0707 1.40195C17.1901 1.38519 17.3103 1.42636 17.3943 1.51279L17.5019 1.40823ZM17.6439 1.86441L17.7918 1.88944C17.8279 1.67628 17.7601 1.45868 17.6094 1.30367L17.5019 1.40823L17.3943 1.51279C17.4783 1.59921 17.5161 1.72053 17.496 1.83937L17.6439 1.86441ZM17.6439 3.86441H17.7939V1.86441H17.6439H17.4939V3.86441H17.6439ZM9.68389 3.86441V4.01441H17.6439V3.86441V3.71441H9.68389V3.86441ZM9.68389 1.86441H9.53389V3.86441H9.68389H9.83389V1.86441H9.68389ZM26.0509 20.2104L25.9019 20.2274C25.9826 20.9345 25.7417 21.6404 25.2457 22.1507L25.3532 22.2553L25.4608 22.3598C26.0195 21.785 26.2909 20.9898 26.1999 20.1934L26.0509 20.2104ZM26.0509 7.8104H25.9009V20.2104H26.0509H26.2009V7.8104H26.0509ZM25.3524 5.76635L25.2448 5.87091C25.7408 6.38103 25.9819 7.0866 25.9018 7.79353L26.0509 7.8104L26.1999 7.82728C26.2901 7.03105 26.0185 6.23636 25.4599 5.6618L25.3524 5.76635ZM23.3289 5.01041L23.3415 5.15987C24.0505 5.09985 24.7489 5.36079 25.2448 5.87091L25.3524 5.76635L25.4599 5.6618C24.9014 5.08724 24.1147 4.79334 23.3162 4.86094L23.3289 5.01041ZM3.99489 5.01041V5.16041H23.3289V5.01041V4.8604H3.99489V5.01041ZM1.97055 5.76555L2.07811 5.87011C2.57416 5.35984 3.27304 5.09913 3.98209 5.15986L3.99489 5.01041L4.00769 4.86095C3.20899 4.79255 2.42177 5.08621 1.863 5.66099L1.97055 5.76555ZM1.27289 7.8104L1.42192 7.79339C1.34119 7.08633 1.58205 6.38037 2.07811 5.87011L1.97055 5.76555L1.863 5.66099C1.30423 6.23577 1.03292 7.03098 1.12386 7.82742L1.27289 7.8104ZM1.27289 20.2104H1.42289V7.8104H1.27289H1.12289V20.2104H1.27289ZM1.97138 22.2545L2.07894 22.1499C1.58302 21.6398 1.34192 20.9342 1.42194 20.2273L1.27289 20.2104L1.12384 20.1935C1.03371 20.9898 1.30528 21.7845 1.86383 22.359L1.97138 22.2545ZM3.99489 23.0104L3.98223 22.8609C3.27333 22.921 2.57485 22.66 2.07894 22.1499L1.97138 22.2545L1.86383 22.359C2.42238 22.9336 3.20909 23.2275 4.00754 23.1599L3.99489 23.0104ZM23.3289 23.0104V22.8604H3.99489V23.0104V23.1604H23.3289V23.0104ZM25.3532 22.2553L25.2457 22.1507C24.7496 22.661 24.0507 22.9217 23.3417 22.861L23.3289 23.0104L23.3161 23.1599C24.1148 23.2283 24.902 22.9346 25.4608 22.3598L25.3532 22.2553Z" fill="#4C9E84"/>
</svg>
