<svg width="25" height="25" viewBox="0 0 25 25" fill="none" xmlns="http://www.w3.org/2000/svg">
<path fill-rule="evenodd" clip-rule="evenodd" d="M5.14187 6.97803H7.39788C7.65628 6.97802 7.86623 7.18663 7.86788 7.44503V10.08C7.86788 10.3396 7.65745 10.55 7.39788 10.55H5.14187C4.8823 10.55 4.67188 10.3396 4.67188 10.08V7.44803C4.67188 7.18845 4.8823 6.97803 5.14187 6.97803ZM5.61187 9.61003H6.92788V7.91803H5.61187V9.61003Z" fill="#4C9E84"/>
<path d="M7.39788 6.97803V7.12803H7.39788L7.39788 6.97803ZM7.86788 7.44503H8.01788L8.01787 7.44407L7.86788 7.44503ZM6.92788 9.61003V9.76003H7.07788V9.61003H6.92788ZM5.61187 9.61003H5.46187V9.76003H5.61187V9.61003ZM6.92788 7.91803H7.07788V7.76803H6.92788V7.91803ZM5.61187 7.91803V7.76803H5.46187V7.91803H5.61187ZM7.39788 6.97803V6.82803H5.14187V6.97803V7.12803H7.39788V6.97803ZM7.86788 7.44503L8.01787 7.44407C8.0157 7.1032 7.73875 6.82802 7.39787 6.82803L7.39788 6.97803L7.39788 7.12803C7.57381 7.12802 7.71676 7.27005 7.71788 7.44598L7.86788 7.44503ZM7.86788 10.08H8.01788V7.44503H7.86788H7.71788V10.08H7.86788ZM7.39788 10.55V10.7C7.74029 10.7 8.01788 10.4224 8.01788 10.08H7.86788H7.71788C7.71788 10.2568 7.57461 10.4 7.39788 10.4V10.55ZM5.14187 10.55V10.7H7.39788V10.55V10.4H5.14187V10.55ZM4.67188 10.08H4.52187C4.52187 10.4224 4.79946 10.7 5.14187 10.7V10.55V10.4C4.96514 10.4 4.82188 10.2568 4.82188 10.08H4.67188ZM4.67188 7.44803H4.52187V10.08H4.67188H4.82188V7.44803H4.67188ZM5.14187 6.97803V6.82803C4.79946 6.82803 4.52187 7.10561 4.52187 7.44803H4.67188H4.82188C4.82188 7.2713 4.96514 7.12803 5.14187 7.12803V6.97803ZM6.92788 9.61003V9.46003H5.61187V9.61003V9.76003H6.92788V9.61003ZM6.92788 7.91803H6.77787V9.61003H6.92788H7.07788V7.91803H6.92788ZM5.61187 7.91803V8.06803H6.92788V7.91803V7.76803H5.61187V7.91803ZM5.61187 9.61003H5.76188V7.91803H5.61187H5.46187V9.61003H5.61187Z" fill="#4C9E84"/>
<path fill-rule="evenodd" clip-rule="evenodd" d="M5.14187 12.225H7.39788C7.65628 12.225 7.86623 12.4336 7.86788 12.692V15.327C7.86788 15.4516 7.81836 15.5712 7.73022 15.6593C7.64207 15.7475 7.52253 15.797 7.39788 15.797H5.14187C5.01722 15.797 4.89768 15.7475 4.80953 15.6593C4.72139 15.5712 4.67188 15.4516 4.67188 15.327V12.695C4.67188 12.5703 4.72139 12.4508 4.80953 12.3626C4.89768 12.2745 5.01722 12.225 5.14187 12.225ZM5.61187 14.857H6.92788V13.165H5.61187V14.857Z" fill="#4C9E84"/>
<path d="M7.39788 12.225V12.375H7.39788L7.39788 12.225ZM7.86788 12.692H8.01788L8.01787 12.691L7.86788 12.692ZM6.92788 14.857V15.007H7.07788V14.857H6.92788ZM5.61187 14.857H5.46187V15.007H5.61187V14.857ZM6.92788 13.165H7.07788V13.015H6.92788V13.165ZM5.61187 13.165V13.015H5.46187V13.165H5.61187ZM7.39788 12.225V12.075H5.14187V12.225V12.375H7.39788V12.225ZM7.86788 12.692L8.01787 12.691C8.0157 12.3501 7.73875 12.075 7.39787 12.075L7.39788 12.225L7.39788 12.375C7.57381 12.375 7.71676 12.517 7.71788 12.6929L7.86788 12.692ZM7.86788 15.327H8.01788V12.692H7.86788H7.71788V15.327H7.86788ZM7.73022 15.6593L7.83628 15.7654C7.95255 15.6491 8.01788 15.4914 8.01788 15.327H7.86788H7.71788C7.71788 15.4118 7.68416 15.4932 7.62415 15.5532L7.73022 15.6593ZM7.39788 15.797V15.947C7.56231 15.947 7.72001 15.8817 7.83628 15.7654L7.73022 15.6593L7.62415 15.5532C7.56414 15.6133 7.48274 15.647 7.39788 15.647V15.797ZM5.14187 15.797V15.947H7.39788V15.797V15.647H5.14187V15.797ZM4.80953 15.6593L4.70347 15.7654C4.81974 15.8817 4.97744 15.947 5.14187 15.947V15.797V15.647C5.05701 15.647 4.97561 15.6133 4.9156 15.5532L4.80953 15.6593ZM4.67188 15.327H4.52187C4.52187 15.4914 4.5872 15.6491 4.70347 15.7654L4.80953 15.6593L4.9156 15.5532C4.85559 15.4932 4.82188 15.4118 4.82188 15.327H4.67188ZM4.67188 12.695H4.52187V15.327H4.67188H4.82188V12.695H4.67188ZM4.80953 12.3626L4.70347 12.2566C4.5872 12.3728 4.52187 12.5305 4.52187 12.695H4.67188H4.82188C4.82188 12.6101 4.85559 12.5287 4.9156 12.4687L4.80953 12.3626ZM5.14187 12.225V12.075C4.97744 12.075 4.81974 12.1403 4.70347 12.2566L4.80953 12.3626L4.9156 12.4687C4.97561 12.4087 5.05701 12.375 5.14187 12.375V12.225ZM6.92788 14.857V14.707H5.61187V14.857V15.007H6.92788V14.857ZM6.92788 13.165H6.77787V14.857H6.92788H7.07788V13.165H6.92788ZM5.61187 13.165V13.315H6.92788V13.165V13.015H5.61187V13.165ZM5.61187 14.857H5.76188V13.165H5.61187H5.46187V14.857H5.61187Z" fill="#4C9E84"/>
<path fill-rule="evenodd" clip-rule="evenodd" d="M5.14187 17.462H7.39788C7.65628 17.462 7.86623 17.6706 7.86788 17.929V20.564C7.86788 20.6887 7.81836 20.8082 7.73022 20.8964C7.64207 20.9845 7.52253 21.034 7.39788 21.034H5.14187C4.8823 21.034 4.67188 20.8236 4.67188 20.564V17.932C4.67188 17.6725 4.8823 17.462 5.14187 17.462ZM5.61187 20.094H6.92788V18.402H5.61187V20.094Z" fill="#4C9E84"/>
<path d="M7.39788 17.462V17.612H7.39788L7.39788 17.462ZM7.86788 17.929H8.01788L8.01787 17.9281L7.86788 17.929ZM6.92788 20.094V20.244H7.07788V20.094H6.92788ZM5.61187 20.094H5.46187V20.244H5.61187V20.094ZM6.92788 18.402H7.07788V18.252H6.92788V18.402ZM5.61187 18.402V18.252H5.46187V18.402H5.61187ZM7.39788 17.462V17.312H5.14187V17.462V17.612H7.39788V17.462ZM7.86788 17.929L8.01787 17.9281C8.0157 17.5872 7.73875 17.312 7.39787 17.312L7.39788 17.462L7.39788 17.612C7.57381 17.612 7.71676 17.7541 7.71788 17.93L7.86788 17.929ZM7.86788 20.564H8.01788V17.929H7.86788H7.71788V20.564H7.86788ZM7.73022 20.8964L7.83628 21.0024C7.95255 20.8862 8.01788 20.7285 8.01788 20.564H7.86788H7.71788C7.71788 20.6489 7.68416 20.7303 7.62415 20.7903L7.73022 20.8964ZM7.39788 21.034V21.184C7.56231 21.184 7.72001 21.1187 7.83628 21.0024L7.73022 20.8964L7.62415 20.7903C7.56414 20.8503 7.48274 20.884 7.39788 20.884V21.034ZM5.14187 21.034V21.184H7.39788V21.034V20.884H5.14187V21.034ZM4.67188 20.564H4.52187C4.52187 20.9065 4.79946 21.184 5.14187 21.184V21.034V20.884C4.96514 20.884 4.82188 20.7408 4.82188 20.564H4.67188ZM4.67188 17.932H4.52187V20.564H4.67188H4.82188V17.932H4.67188ZM5.14187 17.462V17.312C4.79946 17.312 4.52187 17.5896 4.52187 17.932H4.67188H4.82188C4.82188 17.7553 4.96514 17.612 5.14187 17.612V17.462ZM6.92788 20.094V19.944H5.61187V20.094V20.244H6.92788V20.094ZM6.92788 18.402H6.77787V20.094H6.92788H7.07788V18.402H6.92788ZM5.61187 18.402V18.552H6.92788V18.402V18.252H5.61187V18.402ZM5.61187 20.094H5.76188V18.402H5.61187H5.46187V20.094H5.61187Z" fill="#4C9E84"/>
<path fill-rule="evenodd" clip-rule="evenodd" d="M17.3699 17.462H19.6259C19.8843 17.462 20.0943 17.6706 20.0959 17.929V20.564C20.0959 20.6887 20.0464 20.8082 19.9582 20.8964C19.8701 20.9845 19.7506 21.034 19.6259 21.034H17.3699C17.1103 21.034 16.8999 20.8236 16.8999 20.564V17.932C16.8999 17.8074 16.9494 17.6878 17.0376 17.5997C17.1257 17.5116 17.2453 17.462 17.3699 17.462ZM17.8399 20.094H19.1559V18.402H17.8399V20.094Z" fill="#4C9E84"/>
<path d="M19.6259 17.462V17.612H19.6259L19.6259 17.462ZM20.0959 17.929H20.2459L20.2459 17.9281L20.0959 17.929ZM19.1559 20.094V20.244H19.3059V20.094H19.1559ZM17.8399 20.094H17.6899V20.244H17.8399V20.094ZM19.1559 18.402H19.3059V18.252H19.1559V18.402ZM17.8399 18.402V18.252H17.6899V18.402H17.8399ZM19.6259 17.462V17.312H17.3699V17.462V17.612H19.6259V17.462ZM20.0959 17.929L20.2459 17.9281C20.2437 17.5872 19.9668 17.312 19.6259 17.312L19.6259 17.462L19.6259 17.612C19.8018 17.612 19.9448 17.7541 19.9459 17.93L20.0959 17.929ZM20.0959 20.564H20.2459V17.929H20.0959H19.9459V20.564H20.0959ZM19.9582 20.8964L20.0643 21.0024C20.1806 20.8862 20.2459 20.7285 20.2459 20.564H20.0959H19.9459C19.9459 20.6489 19.9122 20.7303 19.8522 20.7903L19.9582 20.8964ZM19.6259 21.034V21.184C19.7903 21.184 19.948 21.1187 20.0643 21.0024L19.9582 20.8964L19.8522 20.7903C19.7922 20.8503 19.7108 20.884 19.6259 20.884V21.034ZM17.3699 21.034V21.184H19.6259V21.034V20.884H17.3699V21.034ZM16.8999 20.564H16.7499C16.7499 20.9065 17.0275 21.184 17.3699 21.184V21.034V20.884C17.1932 20.884 17.0499 20.7408 17.0499 20.564H16.8999ZM16.8999 17.932H16.7499V20.564H16.8999H17.0499V17.932H16.8999ZM17.0376 17.5997L16.9315 17.4936C16.8152 17.6099 16.7499 17.7676 16.7499 17.932H16.8999H17.0499C17.0499 17.8472 17.0836 17.7658 17.1436 17.7058L17.0376 17.5997ZM17.3699 17.462V17.312C17.2055 17.312 17.0478 17.3774 16.9315 17.4936L17.0376 17.5997L17.1436 17.7058C17.2036 17.6458 17.285 17.612 17.3699 17.612V17.462ZM19.1559 20.094V19.944H17.8399V20.094V20.244H19.1559V20.094ZM19.1559 18.402H19.0059V20.094H19.1559H19.3059V18.402H19.1559ZM17.8399 18.402V18.552H19.1559V18.402V18.252H17.8399V18.402ZM17.8399 20.094H17.9899V18.402H17.8399H17.6899V20.094H17.8399Z" fill="#4C9E84"/>
<path fill-rule="evenodd" clip-rule="evenodd" d="M9.2178 6.97803H11.4738C11.7322 6.97802 11.9422 7.18663 11.9438 7.44503V10.08C11.9438 10.3396 11.7334 10.55 11.4738 10.55H9.2178C8.95823 10.55 8.7478 10.3396 8.7478 10.08V7.44803C8.7478 7.18845 8.95823 6.97803 9.2178 6.97803ZM9.6878 9.61003H11.0038V7.91803H9.6878V9.61003Z" fill="#4C9E84"/>
<path d="M11.4738 6.97803V7.12803H11.4738L11.4738 6.97803ZM11.9438 7.44503H12.0938L12.0938 7.44407L11.9438 7.44503ZM11.0038 9.61003V9.76003H11.1538V9.61003H11.0038ZM9.6878 9.61003H9.5378V9.76003H9.6878V9.61003ZM11.0038 7.91803H11.1538V7.76803H11.0038V7.91803ZM9.6878 7.91803V7.76803H9.5378V7.91803H9.6878ZM11.4738 6.97803V6.82803H9.2178V6.97803V7.12803H11.4738V6.97803ZM11.9438 7.44503L12.0938 7.44407C12.0916 7.1032 11.8147 6.82802 11.4738 6.82803L11.4738 6.97803L11.4738 7.12803C11.6497 7.12802 11.7927 7.27005 11.7938 7.44598L11.9438 7.44503ZM11.9438 10.08H12.0938V7.44503H11.9438H11.7938V10.08H11.9438ZM11.4738 10.55V10.7C11.8162 10.7 12.0938 10.4224 12.0938 10.08H11.9438H11.7938C11.7938 10.2568 11.6505 10.4 11.4738 10.4V10.55ZM9.2178 10.55V10.7H11.4738V10.55V10.4H9.2178V10.55ZM8.7478 10.08H8.5978C8.5978 10.4224 8.87539 10.7 9.2178 10.7V10.55V10.4C9.04107 10.4 8.8978 10.2568 8.8978 10.08H8.7478ZM8.7478 7.44803H8.5978V10.08H8.7478H8.8978V7.44803H8.7478ZM9.2178 6.97803V6.82803C8.87539 6.82803 8.5978 7.10561 8.5978 7.44803H8.7478H8.8978C8.8978 7.2713 9.04107 7.12803 9.2178 7.12803V6.97803ZM11.0038 9.61003V9.46003H9.6878V9.61003V9.76003H11.0038V9.61003ZM11.0038 7.91803H10.8538V9.61003H11.0038H11.1538V7.91803H11.0038ZM9.6878 7.91803V8.06803H11.0038V7.91803V7.76803H9.6878V7.91803ZM9.6878 9.61003H9.8378V7.91803H9.6878H9.5378V9.61003H9.6878Z" fill="#4C9E84"/>
<path fill-rule="evenodd" clip-rule="evenodd" d="M13.294 6.97803H15.55C15.8084 6.97802 16.0183 7.18663 16.02 7.44503V10.08C16.02 10.3396 15.8095 10.55 15.55 10.55H13.294C13.0344 10.55 12.824 10.3396 12.824 10.08V7.44803C12.824 7.18845 13.0344 6.97803 13.294 6.97803ZM13.764 9.61003H15.08V7.91803H13.764V9.61003Z" fill="#4C9E84"/>
<path d="M15.55 6.97803V7.12803H15.55L15.55 6.97803ZM16.02 7.44503H16.17L16.17 7.44407L16.02 7.44503ZM15.08 9.61003V9.76003H15.23V9.61003H15.08ZM13.764 9.61003H13.614V9.76003H13.764V9.61003ZM15.08 7.91803H15.23V7.76803H15.08V7.91803ZM13.764 7.91803V7.76803H13.614V7.91803H13.764ZM15.55 6.97803V6.82803H13.294V6.97803V7.12803H15.55V6.97803ZM16.02 7.44503L16.17 7.44407C16.1678 7.1032 15.8908 6.82802 15.55 6.82803L15.55 6.97803L15.55 7.12803C15.7259 7.12802 15.8689 7.27005 15.87 7.44598L16.02 7.44503ZM16.02 10.08H16.17V7.44503H16.02H15.87V10.08H16.02ZM15.55 10.55V10.7C15.8924 10.7 16.17 10.4224 16.17 10.08H16.02H15.87C15.87 10.2568 15.7267 10.4 15.55 10.4V10.55ZM13.294 10.55V10.7H15.55V10.55V10.4H13.294V10.55ZM12.824 10.08H12.674C12.674 10.4224 12.9516 10.7 13.294 10.7V10.55V10.4C13.1172 10.4 12.974 10.2568 12.974 10.08H12.824ZM12.824 7.44803H12.674V10.08H12.824H12.974V7.44803H12.824ZM13.294 6.97803V6.82803C12.9516 6.82803 12.674 7.10561 12.674 7.44803H12.824H12.974C12.974 7.2713 13.1172 7.12803 13.294 7.12803V6.97803ZM15.08 9.61003V9.46003H13.764V9.61003V9.76003H15.08V9.61003ZM15.08 7.91803H14.93V9.61003H15.08H15.23V7.91803H15.08ZM13.764 7.91803V8.06803H15.08V7.91803V7.76803H13.764V7.91803ZM13.764 9.61003H13.914V7.91803H13.764H13.614V9.61003H13.764Z" fill="#4C9E84"/>
<path fill-rule="evenodd" clip-rule="evenodd" d="M9.2178 12.225H11.4738C11.7322 12.225 11.9422 12.4336 11.9438 12.692V15.327C11.9438 15.4516 11.8943 15.5712 11.8061 15.6593C11.718 15.7475 11.5985 15.797 11.4738 15.797H9.2178C9.09315 15.797 8.9736 15.7475 8.88546 15.6593C8.79732 15.5712 8.7478 15.4516 8.7478 15.327V12.695C8.7478 12.5703 8.79732 12.4508 8.88546 12.3626C8.9736 12.2745 9.09315 12.225 9.2178 12.225ZM9.6878 14.857H11.0038V13.165H9.6878V14.857Z" fill="#4C9E84"/>
<path d="M11.4738 12.225V12.375H11.4738L11.4738 12.225ZM11.9438 12.692H12.0938L12.0938 12.691L11.9438 12.692ZM11.0038 14.857V15.007H11.1538V14.857H11.0038ZM9.6878 14.857H9.5378V15.007H9.6878V14.857ZM11.0038 13.165H11.1538V13.015H11.0038V13.165ZM9.6878 13.165V13.015H9.5378V13.165H9.6878ZM11.4738 12.225V12.075H9.2178V12.225V12.375H11.4738V12.225ZM11.9438 12.692L12.0938 12.691C12.0916 12.3501 11.8147 12.075 11.4738 12.075L11.4738 12.225L11.4738 12.375C11.6497 12.375 11.7927 12.517 11.7938 12.6929L11.9438 12.692ZM11.9438 15.327H12.0938V12.692H11.9438H11.7938V15.327H11.9438ZM11.8061 15.6593L11.9122 15.7654C12.0285 15.6491 12.0938 15.4914 12.0938 15.327H11.9438H11.7938C11.7938 15.4118 11.7601 15.4932 11.7001 15.5532L11.8061 15.6593ZM11.4738 15.797V15.947C11.6382 15.947 11.7959 15.8817 11.9122 15.7654L11.8061 15.6593L11.7001 15.5532C11.6401 15.6133 11.5587 15.647 11.4738 15.647V15.797ZM9.2178 15.797V15.947H11.4738V15.797V15.647H9.2178V15.797ZM8.88546 15.6593L8.7794 15.7654C8.89567 15.8817 9.05337 15.947 9.2178 15.947V15.797V15.647C9.13293 15.647 9.05154 15.6133 8.99153 15.5532L8.88546 15.6593ZM8.7478 15.327H8.5978C8.5978 15.4914 8.66312 15.6491 8.7794 15.7654L8.88546 15.6593L8.99153 15.5532C8.93152 15.4932 8.8978 15.4118 8.8978 15.327H8.7478ZM8.7478 12.695H8.5978V15.327H8.7478H8.8978V12.695H8.7478ZM8.88546 12.3626L8.7794 12.2566C8.66312 12.3728 8.5978 12.5305 8.5978 12.695H8.7478H8.8978C8.8978 12.6101 8.93152 12.5287 8.99153 12.4687L8.88546 12.3626ZM9.2178 12.225V12.075C9.05337 12.075 8.89567 12.1403 8.7794 12.2566L8.88546 12.3626L8.99153 12.4687C9.05154 12.4087 9.13293 12.375 9.2178 12.375V12.225ZM11.0038 14.857V14.707H9.6878V14.857V15.007H11.0038V14.857ZM11.0038 13.165H10.8538V14.857H11.0038H11.1538V13.165H11.0038ZM9.6878 13.165V13.315H11.0038V13.165V13.015H9.6878V13.165ZM9.6878 14.857H9.8378V13.165H9.6878H9.5378V14.857H9.6878Z" fill="#4C9E84"/>
<path fill-rule="evenodd" clip-rule="evenodd" d="M13.294 12.225H15.55C15.8084 12.225 16.0183 12.4336 16.02 12.692V15.327C16.02 15.4516 15.9705 15.5712 15.8823 15.6593C15.7942 15.7475 15.6746 15.797 15.55 15.797H13.294C13.1693 15.797 13.0498 15.7475 12.9616 15.6593C12.8735 15.5712 12.824 15.4516 12.824 15.327V12.695C12.824 12.5703 12.8735 12.4508 12.9616 12.3626C13.0498 12.2745 13.1693 12.225 13.294 12.225ZM13.764 14.857H15.08V13.165H13.764V14.857Z" fill="#4C9E84"/>
<path d="M15.55 12.225V12.375H15.55L15.55 12.225ZM16.02 12.692H16.17L16.17 12.691L16.02 12.692ZM15.08 14.857V15.007H15.23V14.857H15.08ZM13.764 14.857H13.614V15.007H13.764V14.857ZM15.08 13.165H15.23V13.015H15.08V13.165ZM13.764 13.165V13.015H13.614V13.165H13.764ZM15.55 12.225V12.075H13.294V12.225V12.375H15.55V12.225ZM16.02 12.692L16.17 12.691C16.1678 12.3501 15.8908 12.075 15.55 12.075L15.55 12.225L15.55 12.375C15.7259 12.375 15.8689 12.517 15.87 12.6929L16.02 12.692ZM16.02 15.327H16.17V12.692H16.02H15.87V15.327H16.02ZM15.8823 15.6593L15.9884 15.7654C16.1047 15.6491 16.17 15.4914 16.17 15.327H16.02H15.87C15.87 15.4118 15.8363 15.4932 15.7762 15.5532L15.8823 15.6593ZM15.55 15.797V15.947C15.7144 15.947 15.8721 15.8817 15.9884 15.7654L15.8823 15.6593L15.7762 15.5532C15.7162 15.6133 15.6348 15.647 15.55 15.647V15.797ZM13.294 15.797V15.947H15.55V15.797V15.647H13.294V15.797ZM12.9616 15.6593L12.8556 15.7654C12.9718 15.8817 13.1295 15.947 13.294 15.947V15.797V15.647C13.2091 15.647 13.1277 15.6133 13.0677 15.5532L12.9616 15.6593ZM12.824 15.327H12.674C12.674 15.4914 12.7393 15.6491 12.8556 15.7654L12.9616 15.6593L13.0677 15.5532C13.0077 15.4932 12.974 15.4118 12.974 15.327H12.824ZM12.824 12.695H12.674V15.327H12.824H12.974V12.695H12.824ZM12.9616 12.3626L12.8556 12.2566C12.7393 12.3728 12.674 12.5305 12.674 12.695H12.824H12.974C12.974 12.6101 13.0077 12.5287 13.0677 12.4687L12.9616 12.3626ZM13.294 12.225V12.075C13.1295 12.075 12.9718 12.1403 12.8556 12.2566L12.9616 12.3626L13.0677 12.4687C13.1277 12.4087 13.2091 12.375 13.294 12.375V12.225ZM15.08 14.857V14.707H13.764V14.857V15.007H15.08V14.857ZM15.08 13.165H14.93V14.857H15.08H15.23V13.165H15.08ZM13.764 13.165V13.315H15.08V13.165V13.015H13.764V13.165ZM13.764 14.857H13.914V13.165H13.764H13.614V14.857H13.764Z" fill="#4C9E84"/>
<path fill-rule="evenodd" clip-rule="evenodd" d="M17.3699 6.97803H19.6259C19.8843 6.97802 20.0943 7.18663 20.0959 7.44503V10.08C20.0959 10.2047 20.0464 10.3242 19.9582 10.4124C19.8701 10.5005 19.7506 10.55 19.6259 10.55H17.3699C17.1103 10.55 16.8999 10.3396 16.8999 10.08V7.44803C16.8999 7.32338 16.9494 7.20383 17.0376 7.11569C17.1257 7.02755 17.2453 6.97803 17.3699 6.97803ZM17.8399 9.61003H19.1559V7.91803H17.8399V9.61003Z" fill="#4C9E84"/>
<path d="M19.6259 6.97803V7.12803H19.6259L19.6259 6.97803ZM20.0959 7.44503H20.2459L20.2459 7.44407L20.0959 7.44503ZM19.1559 9.61003V9.76003H19.3059V9.61003H19.1559ZM17.8399 9.61003H17.6899V9.76003H17.8399V9.61003ZM19.1559 7.91803H19.3059V7.76803H19.1559V7.91803ZM17.8399 7.91803V7.76803H17.6899V7.91803H17.8399ZM19.6259 6.97803V6.82803H17.3699V6.97803V7.12803H19.6259V6.97803ZM20.0959 7.44503L20.2459 7.44407C20.2437 7.1032 19.9668 6.82802 19.6259 6.82803L19.6259 6.97803L19.6259 7.12803C19.8018 7.12802 19.9448 7.27005 19.9459 7.44598L20.0959 7.44503ZM20.0959 10.08H20.2459V7.44503H20.0959H19.9459V10.08H20.0959ZM19.9582 10.4124L20.0643 10.5184C20.1806 10.4022 20.2459 10.2445 20.2459 10.08H20.0959H19.9459C19.9459 10.1649 19.9122 10.2463 19.8522 10.3063L19.9582 10.4124ZM19.6259 10.55V10.7C19.7903 10.7 19.948 10.6347 20.0643 10.5184L19.9582 10.4124L19.8522 10.3063C19.7922 10.3663 19.7108 10.4 19.6259 10.4V10.55ZM17.3699 10.55V10.7H19.6259V10.55V10.4H17.3699V10.55ZM16.8999 10.08H16.7499C16.7499 10.4224 17.0275 10.7 17.3699 10.7V10.55V10.4C17.1932 10.4 17.0499 10.2568 17.0499 10.08H16.8999ZM16.8999 7.44803H16.7499V10.08H16.8999H17.0499V7.44803H16.8999ZM17.0376 7.11569L16.9315 7.00962C16.8152 7.12589 16.7499 7.28359 16.7499 7.44803H16.8999H17.0499C17.0499 7.36316 17.0836 7.28176 17.1436 7.22175L17.0376 7.11569ZM17.3699 6.97803V6.82803C17.2055 6.82803 17.0478 6.89335 16.9315 7.00962L17.0376 7.11569L17.1436 7.22175C17.2036 7.16174 17.285 7.12803 17.3699 7.12803V6.97803ZM19.1559 9.61003V9.46003H17.8399V9.61003V9.76003H19.1559V9.61003ZM19.1559 7.91803H19.0059V9.61003H19.1559H19.3059V7.91803H19.1559ZM17.8399 7.91803V8.06803H19.1559V7.91803V7.76803H17.8399V7.91803ZM17.8399 9.61003H17.9899V7.91803H17.8399H17.6899V9.61003H17.8399Z" fill="#4C9E84"/>
<path fill-rule="evenodd" clip-rule="evenodd" d="M17.3699 12.225H19.6259C19.8843 12.225 20.0943 12.4336 20.0959 12.692V15.327C20.0959 15.4516 20.0464 15.5712 19.9582 15.6593C19.8701 15.7475 19.7506 15.797 19.6259 15.797H17.3699C17.2453 15.797 17.1257 15.7475 17.0376 15.6593C16.9494 15.5712 16.8999 15.4516 16.8999 15.327V12.695C16.8999 12.5703 16.9494 12.4508 17.0376 12.3626C17.1257 12.2745 17.2453 12.225 17.3699 12.225ZM17.8399 14.857H19.1559V13.165H17.8399V14.857Z" fill="#4C9E84"/>
<path d="M19.6259 12.225V12.375H19.6259L19.6259 12.225ZM20.0959 12.692H20.2459L20.2459 12.691L20.0959 12.692ZM19.1559 14.857V15.007H19.3059V14.857H19.1559ZM17.8399 14.857H17.6899V15.007H17.8399V14.857ZM19.1559 13.165H19.3059V13.015H19.1559V13.165ZM17.8399 13.165V13.015H17.6899V13.165H17.8399ZM19.6259 12.225V12.075H17.3699V12.225V12.375H19.6259V12.225ZM20.0959 12.692L20.2459 12.691C20.2437 12.3501 19.9668 12.075 19.6259 12.075L19.6259 12.225L19.6259 12.375C19.8018 12.375 19.9448 12.517 19.9459 12.6929L20.0959 12.692ZM20.0959 15.327H20.2459V12.692H20.0959H19.9459V15.327H20.0959ZM19.9582 15.6593L20.0643 15.7654C20.1806 15.6491 20.2459 15.4914 20.2459 15.327H20.0959H19.9459C19.9459 15.4118 19.9122 15.4932 19.8522 15.5532L19.9582 15.6593ZM19.6259 15.797V15.947C19.7903 15.947 19.948 15.8817 20.0643 15.7654L19.9582 15.6593L19.8522 15.5532C19.7922 15.6133 19.7108 15.647 19.6259 15.647V15.797ZM17.3699 15.797V15.947H19.6259V15.797V15.647H17.3699V15.797ZM17.0376 15.6593L16.9315 15.7654C17.0478 15.8817 17.2055 15.947 17.3699 15.947V15.797V15.647C17.285 15.647 17.2036 15.6133 17.1436 15.5532L17.0376 15.6593ZM16.8999 15.327H16.7499C16.7499 15.4914 16.8152 15.6491 16.9315 15.7654L17.0376 15.6593L17.1436 15.5532C17.0836 15.4932 17.0499 15.4118 17.0499 15.327H16.8999ZM16.8999 12.695H16.7499V15.327H16.8999H17.0499V12.695H16.8999ZM17.0376 12.3626L16.9315 12.2566C16.8152 12.3728 16.7499 12.5305 16.7499 12.695H16.8999H17.0499C17.0499 12.6101 17.0836 12.5287 17.1436 12.4687L17.0376 12.3626ZM17.3699 12.225V12.075C17.2055 12.075 17.0478 12.1403 16.9315 12.2566L17.0376 12.3626L17.1436 12.4687C17.2036 12.4087 17.285 12.375 17.3699 12.375V12.225ZM19.1559 14.857V14.707H17.8399V14.857V15.007H19.1559V14.857ZM19.1559 13.165H19.0059V14.857H19.1559H19.3059V13.165H19.1559ZM17.8399 13.165V13.315H19.1559V13.165V13.015H17.8399V13.165ZM17.8399 14.857H17.9899V13.165H17.8399H17.6899V14.857H17.8399Z" fill="#4C9E84"/>
<path fill-rule="evenodd" clip-rule="evenodd" d="M21.9229 23.213H23.6809V23.214C23.9312 23.2256 24.1283 23.4319 24.1283 23.6825C24.1283 23.9331 23.9312 24.1395 23.6809 24.151H0.618902C0.359881 24.151 0.149902 23.941 0.149902 23.682C0.149902 23.423 0.359881 23.213 0.618902 23.213H2.3809V5.02802C2.3809 4.769 2.59088 4.55902 2.8499 4.55902H5.4469V2.86902C5.4469 2.61 5.65688 2.40002 5.9159 2.40002H8.4939V0.619024C8.4939 0.360003 8.70388 0.150024 8.9629 0.150024H15.3369C15.5959 0.150024 15.8059 0.360003 15.8059 0.619024V2.40002H18.3809C18.6399 2.40002 18.8499 2.61 18.8499 2.86902V4.55902H21.4539C21.5783 4.55902 21.6976 4.60844 21.7855 4.69639C21.8735 4.78435 21.9229 4.90364 21.9229 5.02802V23.213ZM14.8689 1.08802H9.4309V2.40002H14.8689V1.08802ZM14.1189 23.213H10.8749L14.1179 19.97L14.1189 23.213ZM14.0879 18.675L14.1189 18.647V17.587H13.1879L10.1809 20.594V22.582L14.0879 18.675ZM10.1819 19.269V17.588H11.8629L10.1819 19.269ZM15.0559 23.213H20.9819L20.9849 5.49702H12.2209C11.9619 5.49702 11.7519 5.28705 11.7519 5.02802C11.7519 4.769 11.9619 4.55902 12.2209 4.55902H17.9149V3.33702H6.3849V4.56002H8.5149C8.76524 4.57159 8.96225 4.77792 8.96225 5.02852C8.96225 5.27913 8.76524 5.48546 8.5149 5.49702H3.3149V23.214H9.2439V17.589H9.0799C8.82088 17.589 8.6109 17.379 8.6109 17.12C8.6109 16.861 8.82088 16.651 9.0799 16.651H15.2199C15.4702 16.6626 15.6673 16.8689 15.6673 17.1195C15.6673 17.3701 15.4702 17.5765 15.2199 17.588H15.0559V23.213Z" fill="#4C9E84"/>
<path d="M23.6809 23.213H23.8309V23.063H23.6809V23.213ZM21.9229 23.213H21.7729V23.363H21.9229V23.213ZM23.6809 23.214H23.5309V23.3573L23.674 23.3639L23.6809 23.214ZM23.6809 24.151V24.3012L23.6878 24.3009L23.6809 24.151ZM2.3809 23.213V23.363H2.5309V23.213H2.3809ZM5.4469 4.55902V4.70902H5.5969V4.55902H5.4469ZM8.4939 2.40002V2.55002H8.6439V2.40002H8.4939ZM15.8059 2.40002H15.6559V2.55002H15.8059V2.40002ZM18.8499 4.55902H18.6999V4.70902H18.8499V4.55902ZM9.4309 1.08802V0.938024H9.2809V1.08802H9.4309ZM14.8689 1.08802H15.0189V0.938024H14.8689V1.08802ZM9.4309 2.40002H9.2809V2.55002H9.4309V2.40002ZM14.8689 2.40002V2.55002H15.0189V2.40002H14.8689ZM10.8749 23.213L10.7688 23.107L10.5128 23.363H10.8749V23.213ZM14.1189 23.213V23.363H14.2689L14.2689 23.213L14.1189 23.213ZM14.1179 19.97L14.2679 19.97L14.2678 19.608L14.0118 19.864L14.1179 19.97ZM14.1189 18.647L14.2194 18.7583L14.2689 18.7137V18.647H14.1189ZM14.0879 18.675L13.9872 18.5636L13.9818 18.569L14.0879 18.675ZM14.1189 17.587H14.2689V17.437H14.1189V17.587ZM13.1879 17.587V17.437H13.1258L13.0818 17.481L13.1879 17.587ZM10.1809 20.594L10.0748 20.488L10.0309 20.5319V20.594H10.1809ZM10.1809 22.582H10.0309V22.9442L10.287 22.6881L10.1809 22.582ZM10.1819 17.588V17.438H10.0319V17.588H10.1819ZM10.1819 19.269H10.0319V19.6312L10.288 19.3751L10.1819 19.269ZM11.8629 17.588L11.969 17.6941L12.225 17.438H11.8629V17.588ZM20.9819 23.213V23.363H21.1319L21.1319 23.213L20.9819 23.213ZM15.0559 23.213H14.9059V23.363H15.0559V23.213ZM20.9849 5.49702L21.1349 5.49705L21.1349 5.34702H20.9849V5.49702ZM17.9149 4.55902V4.70902H18.0649V4.55902H17.9149ZM17.9149 3.33702H18.0649V3.18702H17.9149V3.33702ZM6.3849 3.33702V3.18702H6.2349V3.33702H6.3849ZM6.3849 4.56002H6.2349V4.71002H6.3849V4.56002ZM8.5149 4.56002L8.52183 4.41002H8.5149V4.56002ZM8.5149 5.49702V5.64718L8.52183 5.64686L8.5149 5.49702ZM3.3149 5.49702V5.34702H3.1649V5.49702H3.3149ZM3.3149 23.214H3.1649V23.364H3.3149V23.214ZM9.2439 23.214V23.364H9.3939V23.214H9.2439ZM9.2439 17.589H9.3939V17.439H9.2439V17.589ZM15.2199 16.651L15.2268 16.501H15.2199V16.651ZM15.2199 17.588V17.7382L15.2268 17.7379L15.2199 17.588ZM15.0559 17.588V17.438H14.9059V17.588H15.0559ZM23.6809 23.213V23.063H21.9229V23.213V23.363H23.6809V23.213ZM23.6809 23.214H23.8309V23.213H23.6809H23.5309V23.214H23.6809ZM24.1283 23.6825H24.2783C24.2783 23.3518 24.0182 23.0795 23.6878 23.0642L23.6809 23.214L23.674 23.3639C23.8442 23.3717 23.9783 23.5121 23.9783 23.6825H24.1283ZM23.6809 24.151L23.6878 24.3009C24.0182 24.2856 24.2783 24.0133 24.2783 23.6825H24.1283H23.9783C23.9783 23.853 23.8442 23.9933 23.674 24.0012L23.6809 24.151ZM0.618902 24.151V24.301H23.6809V24.151V24.001H0.618902V24.151ZM0.149902 23.682H-9.76622e-05C-9.76622e-05 24.0239 0.277038 24.301 0.618902 24.301V24.151V24.001C0.442723 24.001 0.299902 23.8582 0.299902 23.682H0.149902ZM0.618902 23.213V23.063C0.277038 23.063 -9.76622e-05 23.3402 -9.76622e-05 23.682H0.149902H0.299902C0.299902 23.5058 0.442723 23.363 0.618902 23.363V23.213ZM2.3809 23.213V23.063H0.618902V23.213V23.363H2.3809V23.213ZM2.3809 5.02802H2.2309V23.213H2.3809H2.5309V5.02802H2.3809ZM2.8499 4.55902V4.40902C2.50804 4.40902 2.2309 4.68616 2.2309 5.02802H2.3809H2.5309C2.5309 4.85185 2.67372 4.70902 2.8499 4.70902V4.55902ZM5.4469 4.55902V4.40902H2.8499V4.55902V4.70902H5.4469V4.55902ZM5.4469 2.86902H5.2969V4.55902H5.4469H5.5969V2.86902H5.4469ZM5.9159 2.40002V2.25002C5.57404 2.25002 5.2969 2.52716 5.2969 2.86902H5.4469H5.5969C5.5969 2.69285 5.73972 2.55002 5.9159 2.55002V2.40002ZM8.4939 2.40002V2.25002H5.9159V2.40002V2.55002H8.4939V2.40002ZM8.4939 0.619024H8.3439V2.40002H8.4939H8.6439V0.619024H8.4939ZM8.9629 0.150024V2.44081e-05C8.62104 2.44081e-05 8.3439 0.27716 8.3439 0.619024H8.4939H8.6439C8.6439 0.442845 8.78672 0.300024 8.9629 0.300024V0.150024ZM15.3369 0.150024V2.44081e-05H8.9629V0.150024V0.300024H15.3369V0.150024ZM15.8059 0.619024H15.9559C15.9559 0.27716 15.6788 2.44081e-05 15.3369 2.44081e-05V0.150024V0.300024C15.5131 0.300024 15.6559 0.442845 15.6559 0.619024H15.8059ZM15.8059 2.40002H15.9559V0.619024H15.8059H15.6559V2.40002H15.8059ZM18.3809 2.40002V2.25002H15.8059V2.40002V2.55002H18.3809V2.40002ZM18.8499 2.86902H18.9999C18.9999 2.52716 18.7228 2.25002 18.3809 2.25002V2.40002V2.55002C18.5571 2.55002 18.6999 2.69285 18.6999 2.86902H18.8499ZM18.8499 4.55902H18.9999V2.86902H18.8499H18.6999V4.55902H18.8499ZM21.4539 4.55902V4.40902H18.8499V4.55902V4.70902H21.4539V4.55902ZM21.7855 4.69639L21.8916 4.59032C21.7755 4.47424 21.6181 4.40902 21.4539 4.40902V4.55902V4.70902C21.5385 4.70902 21.6196 4.74263 21.6795 4.80246L21.7855 4.69639ZM21.9229 5.02802H22.0729C22.0729 4.86386 22.0077 4.70641 21.8916 4.59032L21.7855 4.69639L21.6795 4.80246C21.7393 4.86228 21.7729 4.94342 21.7729 5.02802H21.9229ZM21.9229 23.213H22.0729V5.02802H21.9229H21.7729V23.213H21.9229ZM9.4309 1.08802V1.23802H14.8689V1.08802V0.938024H9.4309V1.08802ZM9.4309 2.40002H9.5809V1.08802H9.4309H9.2809V2.40002H9.4309ZM14.8689 2.40002V2.25002H9.4309V2.40002V2.55002H14.8689V2.40002ZM14.8689 1.08802H14.7189V2.40002H14.8689H15.0189V1.08802H14.8689ZM10.8749 23.213V23.363H14.1189V23.213V23.063H10.8749V23.213ZM14.1179 19.97L14.0118 19.864L10.7688 23.107L10.8749 23.213L10.981 23.3191L14.224 20.0761L14.1179 19.97ZM14.1189 23.213L14.2689 23.213L14.2679 19.97L14.1179 19.97L13.9679 19.9701L13.9689 23.2131L14.1189 23.213ZM14.1189 18.647L14.0184 18.5357L13.9874 18.5637L14.0879 18.675L14.1884 18.7863L14.2194 18.7583L14.1189 18.647ZM14.1189 17.587H13.9689V18.647H14.1189H14.2689V17.587H14.1189ZM13.1879 17.587V17.737H14.1189V17.587V17.437H13.1879V17.587ZM10.1809 20.594L10.287 20.7001L13.294 17.6931L13.1879 17.587L13.0818 17.481L10.0748 20.488L10.1809 20.594ZM10.1809 22.582H10.3309V20.594H10.1809H10.0309V22.582H10.1809ZM14.0879 18.675L13.9818 18.569L10.0748 22.476L10.1809 22.582L10.287 22.6881L14.194 18.7811L14.0879 18.675ZM10.1819 17.588H10.0319V19.269H10.1819H10.3319V17.588H10.1819ZM11.8629 17.588V17.438H10.1819V17.588V17.738H11.8629V17.588ZM10.1819 19.269L10.288 19.3751L11.969 17.6941L11.8629 17.588L11.7568 17.482L10.0758 19.163L10.1819 19.269ZM20.9819 23.213V23.063H15.0559V23.213V23.363H20.9819V23.213ZM20.9849 5.49702L20.8349 5.497L20.8319 23.213L20.9819 23.213L21.1319 23.213L21.1349 5.49705L20.9849 5.49702ZM12.2209 5.49702V5.64702H20.9849V5.49702V5.34702H12.2209V5.49702ZM11.7519 5.02802H11.6019C11.6019 5.36989 11.879 5.64702 12.2209 5.64702V5.49702V5.34702C12.0447 5.34702 11.9019 5.2042 11.9019 5.02802H11.7519ZM12.2209 4.55902V4.40902C11.879 4.40902 11.6019 4.68616 11.6019 5.02802H11.7519H11.9019C11.9019 4.85185 12.0447 4.70902 12.2209 4.70902V4.55902ZM17.9149 4.55902V4.40902H12.2209V4.55902V4.70902H17.9149V4.55902ZM17.9149 3.33702H17.7649V4.55902H17.9149H18.0649V3.33702H17.9149ZM6.3849 3.33702V3.48702H17.9149V3.33702V3.18702H6.3849V3.33702ZM6.3849 4.56002H6.5349V3.33702H6.3849H6.2349V4.56002H6.3849ZM8.5149 4.56002V4.41002H6.3849V4.56002V4.71002H8.5149V4.56002ZM8.96225 5.02852H9.11225C9.11225 4.69777 8.85223 4.42545 8.52183 4.41018L8.5149 4.56002L8.50798 4.70986C8.67825 4.71773 8.81225 4.85807 8.81225 5.02852H8.96225ZM8.5149 5.49702L8.52183 5.64686C8.85223 5.6316 9.11225 5.35928 9.11225 5.02852H8.96225H8.81225C8.81225 5.19898 8.67825 5.33932 8.50798 5.34718L8.5149 5.49702ZM3.3149 5.49702V5.64702H8.5149V5.49702V5.34702H3.3149V5.49702ZM3.3149 23.214H3.4649V5.49702H3.3149H3.1649V23.214H3.3149ZM9.2439 23.214V23.064H3.3149V23.214V23.364H9.2439V23.214ZM9.2439 17.589H9.0939V23.214H9.2439H9.3939V17.589H9.2439ZM9.0799 17.589V17.739H9.2439V17.589V17.439H9.0799V17.589ZM8.6109 17.12H8.4609C8.4609 17.4619 8.73804 17.739 9.0799 17.739V17.589V17.439C8.90372 17.439 8.7609 17.2962 8.7609 17.12H8.6109ZM9.0799 16.651V16.501C8.73804 16.501 8.4609 16.7782 8.4609 17.12H8.6109H8.7609C8.7609 16.9438 8.90372 16.801 9.0799 16.801V16.651ZM15.2199 16.651V16.501H9.0799V16.651V16.801H15.2199V16.651ZM15.6673 17.1195H15.8173C15.8173 16.7888 15.5572 16.5165 15.2268 16.5012L15.2199 16.651L15.213 16.8009C15.3832 16.8087 15.5173 16.9491 15.5173 17.1195H15.6673ZM15.2199 17.588L15.2268 17.7379C15.5572 17.7226 15.8173 17.4503 15.8173 17.1195H15.6673H15.5173C15.5173 17.29 15.3832 17.4303 15.213 17.4382L15.2199 17.588ZM15.0559 17.588V17.738H15.2199V17.588V17.438H15.0559V17.588ZM15.0559 23.213H15.2059V17.588H15.0559H14.9059V23.213H15.0559Z" fill="#4C9E84"/>
<path d="M10.678 4.69904C10.5192 4.54064 10.2707 4.51643 10.0844 4.64122C9.8981 4.76602 9.8259 5.00505 9.91197 5.21212C9.99804 5.41918 10.2184 5.53661 10.4383 5.49256C10.6582 5.44852 10.8163 5.25528 10.816 5.03104C10.8154 4.90654 10.7658 4.78729 10.678 4.69904Z" fill="#4C9E84" stroke="#4C9E84" stroke-width="0.3"/>
</svg>
