<svg width="19" height="16" viewBox="0 0 19 16" fill="none" xmlns="http://www.w3.org/2000/svg">
<path d="M9.60502 2.907C12.805 2.939 14.812 2.736 15.083 6.347H18.983C18.983 0.754 14.189 0 9.50002 0C4.81102 0 0.0200195 0.758 0.0200195 6.347H3.89402C4.19302 2.668 6.43002 2.876 9.60502 2.907Z" fill="white"/>
<path d="M1.989 8.18399C2.956 8.18399 3.762 8.24199 3.941 7.28999C3.96737 7.14281 3.98009 6.99351 3.979 6.84399H0C0 8.26099 0.891 8.18399 1.989 8.18399Z" fill="white"/>
<path d="M15.0391 6.84497H15.0021C15.0003 6.9947 15.0144 7.1442 15.0441 7.29097C15.2331 8.16897 16.0371 8.11397 17.0011 8.11397C18.1011 8.11397 19.0011 8.18697 19.0011 6.84497L15.0391 6.84497Z" fill="white"/>
<path fill-rule="evenodd" clip-rule="evenodd" d="M13.182 5.36197V5.92497V6.41697C14.6844 8.18141 16.0396 10.0661 17.234 12.052V15.437C17.2368 15.7449 16.99 15.9971 16.682 16.001H1.94704C1.63909 15.9971 1.39226 15.7449 1.39504 15.437V12.07C2.58615 10.0763 3.94188 8.18572 5.44804 6.41797V5.36397C5.44804 5.11297 5.73204 5.09697 6.08204 5.09697H6.65704C7.00704 5.09697 7.29104 5.11197 7.29104 5.36397V6.22497H11.34V5.36197C11.34 5.11097 11.624 5.09497 11.974 5.09497H12.547C12.898 5.09497 13.182 5.10997 13.182 5.36197ZM6.57798 12.1944C6.66628 12.3988 6.86945 12.5294 7.09204 12.525C7.39155 12.5217 7.63182 12.2765 7.62904 11.977C7.629 11.7543 7.49426 11.5539 7.28813 11.4697C7.08201 11.3856 6.84546 11.4345 6.68964 11.5935C6.53382 11.7526 6.48969 11.99 6.57798 12.1944ZM7.09204 10.645C6.86945 10.6494 6.66628 10.5188 6.57798 10.3144C6.48969 10.11 6.53382 9.87255 6.68964 9.71353C6.84546 9.55452 7.08201 9.50558 7.28813 9.58972C7.49426 9.67385 7.629 9.87433 7.62904 10.097C7.63016 10.3953 7.39037 10.6387 7.09204 10.642V10.645ZM6.57798 8.43442C6.66628 8.63879 6.86945 8.76944 7.09204 8.76497V8.76197C7.39037 8.75868 7.63016 8.51531 7.62904 8.21697C7.629 7.99433 7.49426 7.79385 7.28813 7.70972C7.08201 7.62558 6.84546 7.67452 6.68964 7.83353C6.53382 7.99255 6.48969 8.23004 6.57798 8.43442ZM9.30204 12.525C9.07945 12.5294 8.87628 12.3988 8.78798 12.1944C8.69969 11.99 8.74382 11.7526 8.89964 11.5935C9.05546 11.4345 9.29201 11.3856 9.49813 11.4697C9.70426 11.5539 9.839 11.7543 9.83904 11.977C9.84037 12.121 9.78444 12.2596 9.68354 12.3624C9.58265 12.4652 9.44506 12.5237 9.30104 12.525H9.30204ZM8.78798 10.3144C8.87628 10.5188 9.07945 10.6494 9.30204 10.645L9.30104 10.642C9.59976 10.6392 9.84016 10.3957 9.83904 10.097C9.839 9.87433 9.70426 9.67385 9.49813 9.58972C9.29201 9.50558 9.05546 9.55452 8.89964 9.71353C8.74382 9.87255 8.69969 10.11 8.78798 10.3144ZM9.30204 8.76497C9.07945 8.76944 8.87628 8.63879 8.78798 8.43442C8.69969 8.23004 8.74382 7.99255 8.89964 7.83353C9.05546 7.67452 9.29201 7.62558 9.49813 7.70972C9.70426 7.79385 9.839 7.99433 9.83904 8.21697C9.84016 8.5157 9.59976 8.75922 9.30104 8.76197L9.30204 8.76497ZM10.998 12.1944C11.0863 12.3988 11.2895 12.5294 11.512 12.525H11.511C11.6551 12.5239 11.7929 12.4655 11.8938 12.3627C11.9948 12.2599 12.0506 12.1211 12.049 11.977C12.049 11.7543 11.9143 11.5539 11.7081 11.4697C11.502 11.3856 11.2655 11.4345 11.1096 11.5935C10.9538 11.7526 10.9097 11.99 10.998 12.1944ZM11.512 10.645C11.2895 10.6494 11.0863 10.5188 10.998 10.3144C10.9097 10.11 10.9538 9.87255 11.1096 9.71353C11.2655 9.55452 11.502 9.50558 11.7081 9.58972C11.9143 9.67385 12.049 9.87433 12.049 10.097C12.0507 10.3959 11.81 10.6398 11.511 10.642L11.512 10.645ZM10.998 8.43442C11.0863 8.63879 11.2895 8.76944 11.512 8.76497L11.511 8.76197C11.81 8.75977 12.0507 8.51592 12.049 8.21697C12.049 7.99433 11.9143 7.79385 11.7081 7.70972C11.502 7.62558 11.2655 7.67452 11.1096 7.83353C10.9538 7.99255 10.9097 8.23004 10.998 8.43442Z" fill="white"/>
</svg>
