<svg width="24" height="25" viewBox="0 0 24 25" fill="none" xmlns="http://www.w3.org/2000/svg">
<path fill-rule="evenodd" clip-rule="evenodd" d="M15.5825 15.4296C15.6281 14.1962 16.662 13.2317 17.8955 13.2716C19.1306 13.2323 20.1646 14.1996 20.2075 15.4346C20.2307 15.6905 20.1387 15.9434 19.9567 16.1247C19.7746 16.306 19.5213 16.3968 19.2655 16.3726C18.9862 16.3597 18.7091 16.3157 18.4395 16.2416C18.2617 16.1915 18.0795 16.158 17.8955 16.1416C17.6971 16.156 17.5005 16.1895 17.3085 16.2416C17.0473 16.3128 16.779 16.3551 16.5085 16.3676C16.2547 16.3893 16.0044 16.297 15.8255 16.1158C15.6466 15.9345 15.5575 15.6831 15.5825 15.4296ZM19.2655 15.5246C19.2967 15.5255 19.3279 15.5228 19.3585 15.5166C19.3649 15.4847 19.3673 15.4521 19.3655 15.4196C19.2825 14.6699 18.6488 14.1026 17.8945 14.1026C17.1402 14.1026 16.5066 14.6699 16.4235 15.4196C16.3959 15.4428 16.3923 15.484 16.4155 15.5116C16.4387 15.5392 16.4799 15.5428 16.5075 15.5196C16.7136 15.5063 16.9179 15.4728 17.1175 15.4196C17.3713 15.3504 17.6318 15.3092 17.8945 15.2966C18.1435 15.3091 18.3903 15.3491 18.6305 15.4156C18.838 15.473 19.0507 15.5095 19.2655 15.5246Z" fill="#4C9E84"/>
<path d="M17.8955 13.2716L17.8907 13.4218L17.9003 13.4215L17.8955 13.2716ZM15.5825 15.4296L15.7321 15.4443L15.7324 15.4351L15.5825 15.4296ZM20.2075 15.4346L20.0574 15.4398L20.0581 15.4481L20.2075 15.4346ZM19.2655 16.3726L19.2797 16.2231L19.2724 16.2227L19.2655 16.3726ZM18.4395 16.2416L18.3989 16.386L18.3997 16.3862L18.4395 16.2416ZM17.8955 16.1416L17.9089 15.9922L17.8968 15.9911L17.8846 15.992L17.8955 16.1416ZM17.3085 16.2416L17.2692 16.0968L17.269 16.0969L17.3085 16.2416ZM16.5085 16.3676L16.5016 16.2176L16.4957 16.2181L16.5085 16.3676ZM19.3585 15.5166L19.3883 15.6636L19.4859 15.6438L19.5056 15.5462L19.3585 15.5166ZM19.2655 15.5246L19.255 15.6743L19.2613 15.6745L19.2655 15.5246ZM19.3655 15.4196L19.5155 15.4114L19.5146 15.4031L19.3655 15.4196ZM16.4235 15.4196L16.52 15.5344L16.566 15.4958L16.5726 15.4361L16.4235 15.4196ZM16.5075 15.5196L16.4978 15.3699L16.4487 15.3731L16.411 15.4047L16.5075 15.5196ZM17.1175 15.4196L17.1561 15.5645L17.157 15.5643L17.1175 15.4196ZM17.8945 15.2966L17.9021 15.1468L17.8947 15.1464L17.8873 15.1468L17.8945 15.2966ZM18.6305 15.4156L18.5905 15.5601L18.5905 15.5601L18.6305 15.4156ZM17.8955 13.2716L17.9004 13.1217C16.5843 13.0791 15.4813 14.1082 15.4326 15.424L15.5825 15.4296L15.7324 15.4351C15.775 14.2843 16.7396 13.3842 17.8907 13.4215L17.8955 13.2716ZM20.2075 15.4346L20.3574 15.4294C20.3116 14.1118 19.2084 13.0797 17.8907 13.1217L17.8955 13.2716L17.9003 13.4215C19.0527 13.3848 20.0176 14.2875 20.0576 15.4398L20.2075 15.4346ZM19.9567 16.1247L20.0625 16.231C20.2762 16.0182 20.3841 15.7214 20.3569 15.4211L20.2075 15.4346L20.0581 15.4481C20.0773 15.6596 20.0013 15.8686 19.8508 16.0184L19.9567 16.1247ZM19.2655 16.3726L19.2514 16.5219C19.5516 16.5504 19.8488 16.4437 20.0625 16.231L19.9567 16.1247L19.8508 16.0184C19.7004 16.1682 19.491 16.2433 19.2797 16.2233L19.2655 16.3726ZM18.4395 16.2416L18.3997 16.3862C18.6801 16.4633 18.9681 16.509 19.2586 16.5224L19.2655 16.3726L19.2724 16.2227C19.0042 16.2103 18.7382 16.1682 18.4793 16.097L18.4395 16.2416ZM17.8955 16.1416L17.8822 16.291C18.057 16.3066 18.2299 16.3384 18.3989 16.386L18.4395 16.2416L18.4802 16.0972C18.2934 16.0446 18.1021 16.0095 17.9089 15.9922L17.8955 16.1416ZM17.3085 16.2416L17.3478 16.3863C17.5305 16.3368 17.7176 16.3049 17.9064 16.2912L17.8955 16.1416L17.8846 15.992C17.6766 16.0071 17.4705 16.0422 17.2692 16.0968L17.3085 16.2416ZM16.5085 16.3676L16.5154 16.5174C16.7969 16.5044 17.0761 16.4604 17.348 16.3863L17.3085 16.2416L17.269 16.0969C17.0184 16.1652 16.7611 16.2058 16.5016 16.2177L16.5085 16.3676ZM15.8255 16.1158L15.7187 16.2212C15.929 16.4342 16.2231 16.5426 16.5213 16.517L16.5085 16.3676L16.4957 16.2181C16.2864 16.2361 16.0799 16.1599 15.9322 16.0104L15.8255 16.1158ZM15.5825 15.4296L15.4332 15.4149C15.4039 15.7127 15.5085 16.0082 15.7187 16.2212L15.8255 16.1158L15.9322 16.0104C15.7846 15.8609 15.7112 15.6534 15.7318 15.4443L15.5825 15.4296ZM19.3585 15.5166L19.3287 15.3696C19.3093 15.3735 19.2895 15.3752 19.2698 15.3746L19.2655 15.5246L19.2613 15.6745C19.3039 15.6757 19.3465 15.6721 19.3883 15.6636L19.3585 15.5166ZM19.3655 15.4196L19.2157 15.4278C19.2168 15.4476 19.2154 15.4675 19.2115 15.487L19.3585 15.5166L19.5056 15.5462C19.5145 15.5018 19.5178 15.4566 19.5153 15.4114L19.3655 15.4196ZM17.8945 14.1026V14.2526C18.5724 14.2526 19.1418 14.7624 19.2164 15.4361L19.3655 15.4196L19.5146 15.4031C19.4231 14.5774 18.7253 13.9526 17.8945 13.9526V14.1026ZM16.4235 15.4196L16.5726 15.4361C16.6472 14.7624 17.2167 14.2526 17.8945 14.2526V14.1026V13.9526C17.0637 13.9526 16.3659 14.5774 16.2744 15.4031L16.4235 15.4196ZM16.4155 15.5116L16.5304 15.4151C16.5605 15.4509 16.5558 15.5043 16.52 15.5344L16.4235 15.4196L16.327 15.3047C16.236 15.3812 16.2242 15.517 16.3007 15.6081L16.4155 15.5116ZM16.5075 15.5196L16.411 15.4047C16.4469 15.3746 16.5003 15.3793 16.5304 15.4151L16.4155 15.5116L16.3007 15.6081C16.3771 15.6991 16.5129 15.7109 16.604 15.6344L16.5075 15.5196ZM17.1175 15.4196L17.0789 15.2746C16.8888 15.3253 16.6942 15.3572 16.4978 15.3699L16.5075 15.5196L16.5172 15.6693C16.7331 15.6553 16.9471 15.6202 17.1561 15.5645L17.1175 15.4196ZM17.8945 15.2966L17.8873 15.1468C17.6137 15.1598 17.3423 15.2028 17.0781 15.2749L17.1175 15.4196L17.157 15.5643C17.4002 15.498 17.6499 15.4585 17.9017 15.4464L17.8945 15.2966ZM18.6305 15.4156L18.6705 15.271C18.4197 15.2016 18.162 15.1599 17.9021 15.1468L17.8945 15.2966L17.887 15.4464C18.1249 15.4584 18.3608 15.4965 18.5905 15.5601L18.6305 15.4156ZM19.2655 15.5246L19.276 15.3749C19.0712 15.3606 18.8684 15.3258 18.6705 15.271L18.6305 15.4156L18.5905 15.5601C18.8077 15.6202 19.0303 15.6585 19.255 15.6742L19.2655 15.5246Z" fill="#4C9E84"/>
<path fill-rule="evenodd" clip-rule="evenodd" d="M15.6163 11.8228C16.1747 11.7669 16.6788 12.1587 16.7625 12.7136C16.805 13.3338 16.3411 13.873 15.7215 13.9236C15.1603 13.9237 14.6976 13.4837 14.6696 12.9232C14.6415 12.3628 15.0579 11.8788 15.6163 11.8228ZM15.5215 12.7136C15.5215 12.9346 15.6425 13.0816 15.7215 13.0816C15.8005 13.0816 15.9215 12.9346 15.9215 12.7136C15.9215 12.4926 15.8015 12.3456 15.7215 12.3456C15.6415 12.3456 15.5215 12.4926 15.5215 12.7136Z" fill="#4C9E84"/>
<path d="M16.7625 12.7136L16.9126 12.7033L16.9108 12.6912L16.7625 12.7136ZM15.6163 11.8228L15.6312 11.9721L15.6163 11.8228ZM15.7215 13.9236L15.7215 14.0741L15.7337 14.0731L15.7215 13.9236ZM14.6696 12.9232L14.5197 12.9307L14.6696 12.9232ZM16.7625 12.7136L16.9108 12.6912C16.8152 12.0573 16.2392 11.6097 15.6013 11.6736L15.6163 11.8228L15.6312 11.9721C16.1101 11.9241 16.5424 12.2601 16.6141 12.7359L16.7625 12.7136ZM15.7215 13.9236L15.7337 14.0731C16.4351 14.0159 16.9603 13.4054 16.9121 12.7033L16.7625 12.7136L16.6128 12.7238C16.6498 13.2622 16.2471 13.7302 15.7093 13.7741L15.7215 13.9236ZM14.6696 12.9232L14.5197 12.9307C14.5518 13.571 15.0804 14.0737 15.7215 14.0736L15.7215 13.9236L15.7214 13.7736C15.2402 13.7737 14.8434 13.3964 14.8194 12.9157L14.6696 12.9232ZM15.6163 11.8228L15.6013 11.6736C14.9634 11.7375 14.4877 12.2904 14.5197 12.9307L14.6696 12.9232L14.8194 12.9157C14.7953 12.4351 15.1524 12.02 15.6312 11.9721L15.6163 11.8228ZM15.7215 13.0816V12.9316C15.7465 12.9316 15.7557 12.9419 15.7482 12.9362C15.7427 12.9319 15.7316 12.9212 15.7191 12.9011C15.6944 12.8615 15.6715 12.7971 15.6715 12.7136H15.5215H15.3715C15.3715 12.851 15.409 12.9707 15.4645 13.0598C15.4922 13.1041 15.5262 13.1439 15.5656 13.1741C15.603 13.2029 15.6569 13.2316 15.7215 13.2316V13.0816ZM15.9215 12.7136H15.7715C15.7715 12.7971 15.7485 12.8615 15.7238 12.9011C15.7113 12.9212 15.7002 12.9319 15.6947 12.9362C15.6873 12.9419 15.6964 12.9316 15.7215 12.9316V13.0816V13.2316C15.786 13.2316 15.8399 13.2029 15.8774 13.1741C15.9168 13.1439 15.9508 13.1041 15.9784 13.0598C16.0339 12.9707 16.0715 12.851 16.0715 12.7136H15.9215ZM15.7215 12.3456V12.4956C15.697 12.4956 15.6881 12.4856 15.6953 12.4911C15.7007 12.4952 15.7116 12.5059 15.7241 12.5259C15.7486 12.5654 15.7715 12.6297 15.7715 12.7136H15.9215H16.0715C16.0715 12.5764 16.0343 12.4568 15.9789 12.3675C15.9513 12.3232 15.9173 12.2832 15.8777 12.2529C15.8399 12.224 15.7859 12.1956 15.7215 12.1956V12.3456ZM15.5215 12.7136H15.6715C15.6715 12.6297 15.6943 12.5654 15.7189 12.5259C15.7313 12.5059 15.7423 12.4952 15.7477 12.4911C15.7549 12.4856 15.7459 12.4956 15.7215 12.4956V12.3456V12.1956C15.657 12.1956 15.6031 12.224 15.5653 12.2529C15.5257 12.2832 15.4916 12.3232 15.4641 12.3675C15.4086 12.4568 15.3715 12.5764 15.3715 12.7136H15.5215Z" fill="#4C9E84"/>
<path fill-rule="evenodd" clip-rule="evenodd" d="M19.3434 12.0488C19.0957 12.4967 18.5954 12.7431 18.0893 12.6666C17.4699 12.6155 17.0063 12.0767 17.0483 11.4566C17.0482 10.9448 17.3666 10.4869 17.8465 10.3088C18.3263 10.1307 18.8663 10.2701 19.2002 10.6581C19.534 11.0461 19.5911 11.6009 19.3434 12.0488ZM18.2893 11.4566C18.2893 11.2356 18.1683 11.0886 18.0893 11.0886C18.0103 11.0886 17.8893 11.2356 17.8893 11.4566C17.8893 11.6776 18.0093 11.8246 18.0893 11.8246C18.1693 11.8246 18.2893 11.6776 18.2893 11.4566Z" fill="#4C9E84"/>
<path d="M18.0893 12.6666L18.1118 12.5179L18.1016 12.5171L18.0893 12.6666ZM19.3434 12.0488L19.2121 11.9762V11.9762L19.3434 12.0488ZM17.0483 11.4566L17.1983 11.4668L17.1983 11.4566L17.0483 11.4566ZM17.8465 10.3088L17.7943 10.1682V10.1682L17.8465 10.3088ZM19.2002 10.6581L19.0865 10.7559V10.7559L19.2002 10.6581ZM18.0893 12.6666L18.0669 12.8149C18.635 12.9008 19.1966 12.6242 19.4747 12.1214L19.3434 12.0488L19.2121 11.9762C18.9948 12.3692 18.5558 12.5854 18.1117 12.5183L18.0893 12.6666ZM17.0483 11.4566L16.8986 11.4465C16.8511 12.1483 17.3759 12.7583 18.077 12.8161L18.0893 12.6666L18.1016 12.5171C17.564 12.4728 17.1615 12.005 17.198 11.4667L17.0483 11.4566ZM17.8465 10.3088L17.7943 10.1682C17.2556 10.3681 16.8982 10.8821 16.8983 11.4566L17.0483 11.4566L17.1983 11.4566C17.1982 11.0074 17.4776 10.6057 17.8987 10.4494L17.8465 10.3088ZM19.2002 10.6581L19.3139 10.5603C18.9391 10.1247 18.333 9.96829 17.7943 10.1682L17.8465 10.3088L17.8987 10.4494C18.3197 10.2932 18.7935 10.4155 19.0865 10.7559L19.2002 10.6581ZM19.3434 12.0488L19.4747 12.1214C19.7527 11.6186 19.6886 10.9958 19.3139 10.5603L19.2002 10.6581L19.0865 10.7559C19.3794 11.0964 19.4295 11.5831 19.2121 11.9762L19.3434 12.0488ZM18.0893 11.0886V11.2386C18.0642 11.2386 18.0551 11.2283 18.0625 11.234C18.0681 11.2382 18.0791 11.249 18.0916 11.2691C18.1163 11.3087 18.1393 11.373 18.1393 11.4566H18.2893H18.4393C18.4393 11.3192 18.4018 11.1995 18.3462 11.1104C18.3186 11.0661 18.2846 11.0263 18.2452 10.996C18.2078 10.9673 18.1539 10.9386 18.0893 10.9386V11.0886ZM17.8893 11.4566H18.0393C18.0393 11.373 18.0623 11.3087 18.087 11.2691C18.0995 11.249 18.1105 11.2382 18.1161 11.234C18.1235 11.2283 18.1144 11.2386 18.0893 11.2386V11.0886V10.9386C18.0247 10.9386 17.9708 10.9673 17.9334 10.996C17.894 11.0263 17.86 11.0661 17.8324 11.1104C17.7768 11.1995 17.7393 11.3192 17.7393 11.4566H17.8893ZM18.0893 11.8246V11.6746C18.1138 11.6746 18.1227 11.6846 18.1155 11.6791C18.1101 11.675 18.0991 11.6643 18.0867 11.6443C18.0621 11.6048 18.0393 11.5404 18.0393 11.4566H17.8893H17.7393C17.7393 11.5938 17.7764 11.7134 17.8319 11.8026C17.8595 11.847 17.8935 11.8869 17.9331 11.9173C17.9709 11.9462 18.0248 11.9746 18.0893 11.9746V11.8246ZM18.2893 11.4566H18.1393C18.1393 11.5404 18.1164 11.6048 18.0919 11.6443C18.0795 11.6643 18.0685 11.675 18.0631 11.6791C18.0559 11.6846 18.0648 11.6746 18.0893 11.6746V11.8246V11.9746C18.1538 11.9746 18.2077 11.9462 18.2455 11.9173C18.2851 11.8869 18.3191 11.847 18.3467 11.8026C18.4021 11.7134 18.4393 11.5938 18.4393 11.4566H18.2893Z" fill="#4C9E84"/>
<path fill-rule="evenodd" clip-rule="evenodd" d="M19.1502 12.1214C19.398 11.6735 19.8982 11.427 20.4043 11.5036C21.0237 11.5546 21.4873 12.0935 21.4453 12.7136C21.4454 13.2254 21.127 13.6833 20.6472 13.8613C20.1673 14.0394 19.6273 13.9001 19.2935 13.5121C18.9596 13.1241 18.9025 12.5693 19.1502 12.1214ZM20.2043 12.7136C20.2043 12.9346 20.3253 13.0816 20.4043 13.0816C20.4793 13.0816 20.6043 12.9346 20.6043 12.7136C20.6043 12.4926 20.4843 12.3456 20.4043 12.3456C20.3243 12.3456 20.2043 12.4926 20.2043 12.7136Z" fill="#4C9E84"/>
<path d="M20.4043 11.5036L20.3818 11.6522L20.392 11.653L20.4043 11.5036ZM19.1502 12.1214L19.019 12.0488V12.0488L19.1502 12.1214ZM21.4453 12.7136L21.2953 12.7034L21.2953 12.7136L21.4453 12.7136ZM20.6472 13.8613L20.595 13.7207L20.6472 13.8613ZM19.2935 13.5121L19.1798 13.6099V13.6099L19.2935 13.5121ZM20.4043 11.5036L20.4268 11.3552C19.8586 11.2693 19.2971 11.546 19.019 12.0488L19.1502 12.1214L19.2815 12.194C19.4989 11.801 19.9378 11.5847 20.3819 11.6519L20.4043 11.5036ZM21.4453 12.7136L21.595 12.7237C21.6425 12.0218 21.1177 11.4118 20.4166 11.3541L20.4043 11.5036L20.392 11.653C20.9297 11.6974 21.3321 12.1652 21.2957 12.7034L21.4453 12.7136ZM20.6472 13.8613L20.6993 14.002C21.238 13.8021 21.5954 13.2881 21.5953 12.7135L21.4453 12.7136L21.2953 12.7136C21.2954 13.1627 21.016 13.5645 20.595 13.7207L20.6472 13.8613ZM19.2935 13.5121L19.1798 13.6099C19.5545 14.0455 20.1607 14.2019 20.6993 14.002L20.6472 13.8613L20.595 13.7207C20.1739 13.877 19.7001 13.7547 19.4072 13.4142L19.2935 13.5121ZM19.1502 12.1214L19.019 12.0488C18.7409 12.5516 18.805 13.1743 19.1798 13.6099L19.2935 13.5121L19.4072 13.4142C19.1143 13.0738 19.0641 12.587 19.2815 12.194L19.1502 12.1214ZM20.4043 13.0816V12.9316C20.4294 12.9316 20.4385 12.9419 20.4311 12.9361C20.4256 12.9319 20.4145 12.9212 20.402 12.9011C20.3773 12.8614 20.3543 12.7971 20.3543 12.7136H20.2043H20.0543C20.0543 12.851 20.0919 12.9707 20.1474 13.0598C20.175 13.1041 20.209 13.1439 20.2484 13.1741C20.2859 13.2029 20.3398 13.2316 20.4043 13.2316V13.0816ZM20.6043 12.7136H20.4543C20.4543 12.7961 20.4309 12.8603 20.4056 12.9004C20.3928 12.9207 20.3813 12.9319 20.3754 12.9365C20.3669 12.9431 20.3768 12.9316 20.4043 12.9316V13.0816V13.2316C20.4693 13.2316 20.523 13.2016 20.559 13.1737C20.5977 13.1439 20.6315 13.1045 20.6593 13.0605C20.7152 12.9719 20.7543 12.852 20.7543 12.7136H20.6043ZM20.4043 12.3456V12.4956C20.3799 12.4956 20.3709 12.4855 20.3781 12.4911C20.3835 12.4952 20.3945 12.5058 20.4069 12.5258C20.4315 12.5654 20.4543 12.6297 20.4543 12.7136H20.6043H20.7543C20.7543 12.5764 20.7172 12.4567 20.6617 12.3675C20.6342 12.3231 20.6001 12.2832 20.5605 12.2529C20.5227 12.2239 20.4688 12.1956 20.4043 12.1956V12.3456ZM20.2043 12.7136H20.3543C20.3543 12.6297 20.3772 12.5654 20.4017 12.5258C20.4142 12.5058 20.4251 12.4952 20.4305 12.4911C20.4377 12.4855 20.4288 12.4956 20.4043 12.4956V12.3456V12.1956C20.3399 12.1956 20.2859 12.2239 20.2481 12.2529C20.2085 12.2832 20.1745 12.3231 20.1469 12.3675C20.0915 12.4567 20.0543 12.5764 20.0543 12.7136H20.2043Z" fill="#4C9E84"/>
<path fill-rule="evenodd" clip-rule="evenodd" d="M11.1554 5.23056C11.1153 4.98774 11.1042 4.741 11.1224 4.49556C11.1697 4.07509 11.1109 3.64945 10.9514 3.25756C10.7122 2.85484 10.3738 2.52018 9.96839 2.28556C9.7841 2.16977 9.6119 2.03577 9.45439 1.88556C9.30688 1.71389 9.17533 1.52912 9.06139 1.33356C8.85004 0.910259 8.52082 0.557083 8.11339 0.316558C7.86297 0.200635 7.58926 0.143838 7.31339 0.150558C7.07186 0.155894 6.83098 0.17761 6.59239 0.215558C6.39384 0.247575 6.19342 0.266615 5.99239 0.272558C5.79136 0.266612 5.59094 0.247572 5.39239 0.215558C5.15083 0.177196 4.90693 0.155478 4.66239 0.150558C4.38653 0.143838 4.11281 0.200635 3.86239 0.316558C3.45567 0.55574 3.12653 0.907103 2.91439 1.32856C2.80042 1.52411 2.66888 1.70887 2.52139 1.88056C2.36388 2.03077 2.19169 2.16477 2.00739 2.28056C1.60203 2.51522 1.26359 2.84987 1.02439 3.25256C0.864843 3.64445 0.806053 4.07009 0.853391 4.49056C0.871606 4.736 0.860528 4.98274 0.820391 5.22556C0.756158 5.44633 0.665502 5.65853 0.550391 5.85756C0.319285 6.22979 0.182019 6.65256 0.150391 7.08956C0.182059 7.52654 0.319322 7.94931 0.550391 8.32156C0.665502 8.52059 0.756158 8.73279 0.820391 8.95356C0.860528 9.19638 0.871606 9.44312 0.853391 9.68856C0.80474 10.1102 0.862854 10.5373 1.02239 10.9306C1.26159 11.3333 1.60003 11.6679 2.00539 11.9026C2.18966 12.0184 2.36185 12.1524 2.51939 12.3026C2.66688 12.4742 2.79842 12.659 2.91239 12.8546C3.12453 13.276 3.45367 13.6274 3.86039 13.8666C3.96082 13.9146 4.06608 13.9518 4.17439 13.9776C4.22694 14.9365 4.22694 15.8976 4.17439 16.8566C4.10463 17.3693 4.00368 17.9043 3.90501 18.4272L3.905 18.4272L3.87439 18.5896C3.71215 19.2894 3.60878 20.0015 3.56539 20.7186C3.56239 22.6456 4.62239 24.1506 5.98639 24.1506C7.35039 24.1506 8.41139 22.6456 8.41139 20.7236C8.368 20.0065 8.26464 19.2944 8.10239 18.5946L8.10123 18.5886C7.99059 18.0174 7.87613 17.4266 7.80239 16.8616C7.75114 15.9026 7.75114 14.9415 7.80239 13.9826C7.91071 13.9568 8.01598 13.9196 8.11639 13.8716C8.52311 13.6324 8.85225 13.281 9.06439 12.8596C9.17834 12.664 9.30989 12.4792 9.45739 12.3076C9.61491 12.1574 9.7871 12.0234 9.97139 11.9076C10.3767 11.6729 10.7152 11.3383 10.9544 10.9356C11.1138 10.5419 11.1715 10.1144 11.1224 9.69256C11.1042 9.44712 11.1153 9.20038 11.1554 8.95756C11.2187 8.73727 11.3084 8.52541 11.4224 8.32656C11.6535 7.95433 11.7908 7.53155 11.8224 7.09456C11.7907 6.65757 11.6535 6.2348 11.4224 5.86256C11.3083 5.66339 11.2187 5.4512 11.1554 5.23056ZM5.98639 23.3366C5.12839 23.3366 4.40339 22.1366 4.40339 20.7236C4.44961 20.0572 4.54791 19.3955 4.69739 18.7446L4.70768 18.6914C4.81751 18.1239 4.93079 17.5387 5.00739 16.9676C5.06655 15.9852 5.06989 15.0003 5.01739 14.0176C5.12504 14.0071 5.23192 13.9927 5.33737 13.9786L5.38239 13.9726C5.58094 13.9405 5.78136 13.9215 5.98239 13.9156C6.18342 13.9215 6.38384 13.9405 6.58239 13.9726L6.62741 13.9786C6.73286 13.9927 6.83974 14.0071 6.94739 14.0176C6.89494 15.0003 6.89828 15.9852 6.95739 16.9676C7.02594 17.4723 7.12386 17.988 7.2197 18.4927L7.21971 18.4928L7.26739 18.7446C7.41687 19.3955 7.51517 20.0572 7.56139 20.7236C7.56939 22.1406 6.84439 23.3366 5.98639 23.3366ZM10.3314 8.78756C10.409 8.49899 10.5236 8.22168 10.6724 7.96256C10.8371 7.69927 10.9403 7.40224 10.9744 7.09356C10.938 6.78467 10.8324 6.48797 10.6654 6.22556C10.5166 5.96643 10.402 5.68913 10.3244 5.40056C10.2682 5.09429 10.2508 4.78218 10.2724 4.47156C10.3075 4.18085 10.2771 3.88598 10.1834 3.60856C10.0012 3.33443 9.75648 3.10753 9.46939 2.94656C9.23465 2.79634 9.01673 2.62134 8.81939 2.42456C8.63604 2.21585 8.47297 1.99017 8.33239 1.75056C8.1937 1.46756 7.98555 1.22432 7.72739 1.04356C7.59371 0.984744 7.44831 0.957376 7.30239 0.963558C7.10136 0.969504 6.90094 0.988544 6.70239 1.02056C6.46414 1.05849 6.22358 1.0802 5.98239 1.08556C5.7412 1.08021 5.50064 1.05849 5.26239 1.02056C5.06384 0.988539 4.86342 0.969498 4.66239 0.963558C4.51647 0.957411 4.37109 0.984778 4.23739 1.04356C3.97923 1.22432 3.77108 1.46756 3.63239 1.75056C3.494 1.98986 3.33329 2.21553 3.15239 2.42456C2.95505 2.62135 2.73713 2.79635 2.50239 2.94656C2.2153 3.10753 1.97058 3.33443 1.78839 3.60856C1.6947 3.88598 1.66429 4.18085 1.69939 4.47156C1.72105 4.78218 1.70358 5.09429 1.64739 5.40056C1.56985 5.68914 1.45523 5.96645 1.30639 6.22556C1.13943 6.48797 1.03381 6.78467 0.997391 7.09356C1.03381 7.40245 1.13943 7.69914 1.30639 7.96156C1.45519 8.22069 1.56981 8.49799 1.64739 8.78656C1.70355 9.09283 1.72102 9.40494 1.69939 9.71556C1.66397 10.0062 1.69403 10.3011 1.78739 10.5786C1.96958 10.8527 2.2143 11.0796 2.50139 11.2406C2.73613 11.3908 2.95405 11.5658 3.15139 11.7626C3.33478 11.9716 3.49785 12.1976 3.63839 12.4376C3.77705 12.7206 3.9852 12.9638 4.24339 13.1446C4.37708 13.2034 4.52247 13.2307 4.66839 13.2246C4.86942 13.2186 5.06984 13.1996 5.26839 13.1676C5.50698 13.1296 5.74786 13.1079 5.98939 13.1026C6.23058 13.1079 6.47114 13.1296 6.70939 13.1676C6.90794 13.1996 7.10836 13.2186 7.30939 13.2246C7.45531 13.2307 7.60069 13.2033 7.73439 13.1446C7.99255 12.9638 8.2007 12.7206 8.33939 12.4376C8.47998 12.198 8.64305 11.9723 8.82639 11.7636C9.02374 11.5668 9.24166 11.3918 9.47639 11.2416C9.76348 11.0806 10.0082 10.8537 10.1904 10.5796C10.2841 10.3021 10.3145 10.0073 10.2794 9.71656C10.2578 9.40594 10.2752 9.09383 10.3314 8.78756Z" fill="#4C9E84"/>
<path d="M11.1224 4.49556L10.9732 4.47877L10.9728 4.48446L11.1224 4.49556ZM11.1554 5.23056L11.0074 5.25502L11.0088 5.26357L11.0112 5.2719L11.1554 5.23056ZM10.9514 3.25756L11.0903 3.201L11.0861 3.19061L11.0804 3.18096L10.9514 3.25756ZM9.96839 2.28556L9.88854 2.41265L9.89325 2.41538L9.96839 2.28556ZM9.45439 1.88556L9.34062 1.98332L9.34548 1.98897L9.35087 1.99411L9.45439 1.88556ZM9.06139 1.33356L8.92691 1.4007L8.93178 1.40907L9.06139 1.33356ZM8.11339 0.316558L8.18965 0.187387L8.1832 0.183581L8.1764 0.180436L8.11339 0.316558ZM7.31339 0.150558L7.3167 0.300522L7.31704 0.300514L7.31339 0.150558ZM6.59239 0.215558L6.56883 0.06742L6.56851 0.0674712L6.59239 0.215558ZM5.99239 0.272558L5.98795 0.422755L5.99682 0.422493L5.99239 0.272558ZM5.39239 0.215558L5.41627 0.0674705L5.41592 0.0674148L5.39239 0.215558ZM4.66239 0.150558L4.65874 0.300515L4.65937 0.300528L4.66239 0.150558ZM3.86239 0.316558L3.79938 0.180436L3.7927 0.183528L3.78635 0.187259L3.86239 0.316558ZM2.91439 1.32856L3.04423 1.40423L3.04837 1.396L2.91439 1.32856ZM2.52139 1.88056L2.62491 1.98911L2.63031 1.98396L2.63517 1.9783L2.52139 1.88056ZM2.00739 2.28056L2.08259 2.41046L2.08719 2.40757L2.00739 2.28056ZM1.02439 3.25256L0.895427 3.17595L0.889695 3.1856L0.885463 3.196L1.02439 3.25256ZM0.853391 4.49056L1.00309 4.47945L1.00245 4.47378L0.853391 4.49056ZM0.820391 5.22556L0.964418 5.26746L0.966921 5.25886L0.968382 5.25002L0.820391 5.22556ZM0.550391 5.85756L0.677889 5.93672L0.680238 5.93266L0.550391 5.85756ZM0.150391 7.08956L0.000781983 7.07873L-2.26498e-06 7.08956L0.000782967 7.1004L0.150391 7.08956ZM0.550391 8.32156L0.680301 8.24642L0.677834 8.24245L0.550391 8.32156ZM0.820391 8.95356L0.968382 8.9291L0.966921 8.92026L0.964418 8.91165L0.820391 8.95356ZM0.853391 9.68856L1.00253 9.70577L1.00298 9.69966L0.853391 9.68856ZM1.02239 10.9306L0.883391 10.9869L0.887646 10.9974L0.893427 11.0072L1.02239 10.9306ZM2.00539 11.9026L2.08527 11.7755L2.08054 11.7727L2.00539 11.9026ZM2.51939 12.3026L2.63317 12.2048L2.6283 12.1991L2.62289 12.194L2.51939 12.3026ZM2.91239 12.8546L3.04663 12.787L3.04199 12.779L2.91239 12.8546ZM3.86039 13.8666L3.78408 13.9963L3.79565 14.0019L3.86039 13.8666ZM4.17439 13.9776L4.32417 13.9694L4.31804 13.8575L4.20907 13.8316L4.17439 13.9776ZM4.17439 16.8566L4.3235 16.8768L4.32417 16.8648L4.17439 16.8566ZM3.90501 18.4272L3.7576 18.3993L3.75734 18.4008L3.90501 18.4272ZM3.905 18.4272L4.05241 18.455L4.05266 18.4536L3.905 18.4272ZM3.87439 18.5896L4.02064 18.6235L4.02179 18.6173L3.87439 18.5896ZM3.56539 20.7186L3.4154 20.7095L3.41539 20.7183L3.56539 20.7186ZM8.41139 20.7236H8.56166L8.56112 20.7145L8.41139 20.7236ZM8.10239 18.5946L7.95503 18.6231L7.95627 18.6284L8.10239 18.5946ZM8.10123 18.5886L8.2485 18.5601L8.24849 18.56L8.10123 18.5886ZM7.80239 16.8616L7.65217 16.8696L7.65365 16.881L7.80239 16.8616ZM7.80239 13.9826L7.76775 13.8366L7.65859 13.8625L7.6526 13.9746L7.80239 13.9826ZM8.11639 13.8716L8.1814 14.0073L8.19243 14.0009L8.11639 13.8716ZM9.06439 12.8596L8.93454 12.7839L8.93041 12.7921L9.06439 12.8596ZM9.45739 12.3076L9.35388 12.199L9.34848 12.2041L9.34362 12.2098L9.45739 12.3076ZM9.97139 11.9076L9.89619 11.7777L9.89159 11.7806L9.97139 11.9076ZM10.9544 10.9356L11.0834 11.0122L11.0892 11.0024L11.0934 10.9918L10.9544 10.9356ZM11.1224 9.69256L10.9727 9.70367L10.9734 9.70991L11.1224 9.69256ZM11.1554 8.95756L11.0112 8.91611L11.0088 8.92449L11.0074 8.9331L11.1554 8.95756ZM11.4224 8.32656L11.2949 8.24739L11.2923 8.25195L11.4224 8.32656ZM11.8224 7.09456L11.972 7.10539L11.9728 7.09455L11.972 7.08372L11.8224 7.09456ZM11.4224 5.86256L11.2922 5.93716L11.2949 5.94167L11.4224 5.86256ZM4.40339 20.7236L4.25339 20.7132V20.7236H4.40339ZM4.69739 18.7446L4.84367 18.7781L4.84466 18.7731L4.69739 18.7446ZM4.70768 18.6914L4.56042 18.6629L4.56042 18.6629L4.70768 18.6914ZM5.00739 16.9676L5.15646 16.9876L5.15712 16.9766L5.00739 16.9676ZM5.01739 14.0176L5.00282 13.8683L4.85995 13.8822L4.8676 14.0256L5.01739 14.0176ZM5.33737 13.9786L5.31747 13.8299L5.31743 13.8299L5.33737 13.9786ZM5.38239 13.9726L5.40229 14.1213L5.40627 14.1206L5.38239 13.9726ZM5.98239 13.9156L5.98683 13.7654L5.97796 13.7656L5.98239 13.9156ZM6.58239 13.9726L6.5585 14.1207L6.56249 14.1212L6.58239 13.9726ZM6.62741 13.9786L6.64735 13.8299L6.64731 13.8299L6.62741 13.9786ZM6.94739 14.0176L7.09718 14.0256L7.10483 13.8822L6.96196 13.8683L6.94739 14.0176ZM6.95739 16.9676L6.80724 16.9766L6.80875 16.9877L6.95739 16.9676ZM7.2197 18.4927L7.07233 18.5207L7.07245 18.5213L7.2197 18.4927ZM7.21971 18.4928L7.36709 18.4649L7.36695 18.4641L7.21971 18.4928ZM7.26739 18.7446L7.1199 18.7725L7.12119 18.7781L7.26739 18.7446ZM7.56139 20.7236L7.71169 20.7227L7.71103 20.7132L7.56139 20.7236ZM10.6724 7.96256L10.5451 7.88295L10.5423 7.88786L10.6724 7.96256ZM10.3314 8.78756L10.1861 8.74849L10.1839 8.76051L10.3314 8.78756ZM10.9744 7.09356L11.1235 7.11002L11.1254 7.093L11.1234 7.076L10.9744 7.09356ZM10.6654 6.22556L10.5352 6.30033L10.5388 6.30608L10.6654 6.22556ZM10.3244 5.40056L10.1764 5.4277L10.1795 5.4395L10.3244 5.40056ZM10.2724 4.47156L10.1233 4.45355L10.1228 4.46114L10.2724 4.47156ZM10.1834 3.60856L10.3255 3.56056L10.3192 3.54192L10.3083 3.52553L10.1834 3.60856ZM9.46939 2.94656L9.3884 3.07312L9.39603 3.07739L9.46939 2.94656ZM8.81939 2.42456L8.70645 2.52377L8.71348 2.53078L8.81939 2.42456ZM8.33239 1.75056L8.19732 1.81675L8.20301 1.82646L8.33239 1.75056ZM7.72739 1.04356L7.81343 0.920684L7.80132 0.912209L7.7878 0.906258L7.72739 1.04356ZM7.30239 0.963558L7.30683 1.1135L7.30874 1.11342L7.30239 0.963558ZM6.70239 1.02056L6.72597 1.16869L6.72627 1.16865L6.70239 1.02056ZM5.98239 1.08556L5.97906 1.23567L5.98572 1.23552L5.98239 1.08556ZM5.26239 1.02056L5.23851 1.16865L5.23881 1.16869L5.26239 1.02056ZM4.66239 0.963558L4.65608 1.11344L4.65796 1.11349L4.66239 0.963558ZM4.23739 1.04356L4.17702 0.906243L4.16348 0.912198L4.15136 0.920684L4.23739 1.04356ZM3.63239 1.75056L3.76255 1.82583L3.76708 1.81657L3.63239 1.75056ZM3.15239 2.42456L3.25859 2.53106L3.26581 2.52272L3.15239 2.42456ZM2.50239 2.94656L2.57588 3.07762L2.58324 3.07291L2.50239 2.94656ZM1.78839 3.60856L1.66346 3.52553L1.65257 3.54192L1.64628 3.56056L1.78839 3.60856ZM1.69939 4.47156L1.84922 4.46111L1.84831 4.45358L1.69939 4.47156ZM1.64739 5.40056L1.79273 5.43961L1.79493 5.42763L1.64739 5.40056ZM1.30639 6.22556L1.43308 6.30616L1.43646 6.30027L1.30639 6.22556ZM0.997391 7.09356L0.848422 7.076L0.846352 7.09356L0.848422 7.11112L0.997391 7.09356ZM1.30639 7.96156L1.4366 7.88678L1.43295 7.88104L1.30639 7.96156ZM1.64739 8.78656L1.79542 8.75942L1.79225 8.74762L1.64739 8.78656ZM1.69939 9.71556L1.84849 9.73373L1.84903 9.72598L1.69939 9.71556ZM1.78739 10.5786L1.64522 10.6264L1.65152 10.6451L1.66246 10.6616L1.78739 10.5786ZM2.50139 11.2406L2.58238 11.114L2.57475 11.1097L2.50139 11.2406ZM3.15139 11.7626L3.2644 11.6634L3.25731 11.6563L3.15139 11.7626ZM3.63839 12.4376L3.77347 12.3714L3.76782 12.3617L3.63839 12.4376ZM4.24339 13.1446L4.15737 13.2674L4.16947 13.2759L4.18299 13.2819L4.24339 13.1446ZM4.66839 13.2246L4.66395 13.0746L4.66204 13.0747L4.66839 13.2246ZM5.26839 13.1676L5.24483 13.0194L5.24452 13.0195L5.26839 13.1676ZM5.98939 13.1026L5.99272 12.9524L5.98608 12.9526L5.98939 13.1026ZM6.70939 13.1676L6.73327 13.0195L6.73297 13.0194L6.70939 13.1676ZM7.30939 13.2246L7.3157 13.0747L7.31382 13.0746L7.30939 13.2246ZM7.73439 13.1446L7.79476 13.2819L7.80831 13.2759L7.82043 13.2674L7.73439 13.1446ZM8.33939 12.4376L8.20965 12.3614L8.2047 12.3715L8.33939 12.4376ZM8.82639 11.7636L8.72025 11.6571L8.7137 11.6646L8.82639 11.7636ZM9.47639 11.2416L9.4029 11.1105L9.39553 11.1152L9.47639 11.2416ZM10.1904 10.5796L10.3153 10.6626L10.3262 10.6462L10.3325 10.6276L10.1904 10.5796ZM10.2794 9.71656L10.1296 9.72699L10.1305 9.73454L10.2794 9.71656ZM11.1224 4.49556L10.9728 4.48446C10.9537 4.74177 10.9653 5.00045 11.0074 5.25502L11.1554 5.23056L11.3034 5.2061C11.2652 4.97502 11.2546 4.74023 11.272 4.50666L11.1224 4.49556ZM10.9514 3.25756L10.8125 3.31412C10.9626 3.6828 11.0179 4.08321 10.9733 4.47878L11.1224 4.49556L11.2714 4.51234C11.3216 4.06696 11.2593 3.61611 11.0903 3.201L10.9514 3.25756ZM9.96839 2.28556L9.89325 2.41538C10.2764 2.63715 10.5963 2.95349 10.8224 3.33415L10.9514 3.25756L11.0804 3.18096C10.8281 2.75619 10.4711 2.4032 10.0435 2.15573L9.96839 2.28556ZM9.45439 1.88556L9.35087 1.99411C9.51565 2.15125 9.69579 2.29144 9.88859 2.41257L9.96839 2.28556L10.0482 2.15855C9.8724 2.0481 9.70815 1.92028 9.55791 1.77701L9.45439 1.88556ZM9.06139 1.33356L8.93178 1.40907C9.05032 1.61252 9.18717 1.80473 9.34062 1.98332L9.45439 1.88556L9.56816 1.7878C9.42659 1.62305 9.30035 1.44573 9.191 1.25805L9.06139 1.33356ZM8.11339 0.316558L8.03714 0.445729C8.41966 0.671552 8.72875 1.00314 8.92719 1.40057L9.06139 1.33356L9.19559 1.26655C8.97132 0.817378 8.62198 0.442614 8.18965 0.187387L8.11339 0.316558ZM7.31339 0.150558L7.31704 0.300514C7.56992 0.294354 7.82083 0.346417 8.05038 0.45268L8.11339 0.316558L8.1764 0.180436C7.90512 0.0548523 7.60859 -0.00667706 7.30974 0.000602752L7.31339 0.150558ZM6.59239 0.215558L6.61595 0.363696C6.84784 0.326814 7.08196 0.305707 7.3167 0.300522L7.31339 0.150558L7.31008 0.000594854C7.06177 0.00608018 6.81412 0.0284066 6.56883 0.0674203L6.59239 0.215558ZM5.99239 0.272558L5.99682 0.422493C6.20436 0.416357 6.41129 0.3967 6.61627 0.363645L6.59239 0.215558L6.56851 0.0674712C6.3764 0.0984501 6.18247 0.116873 5.98796 0.122624L5.99239 0.272558ZM5.39239 0.215558L5.36851 0.363646C5.5735 0.396697 5.78042 0.416354 5.98796 0.422493L5.99239 0.272558L5.99683 0.122624C5.80231 0.116871 5.60838 0.0984473 5.41627 0.0674709L5.39239 0.215558ZM4.66239 0.150558L4.65937 0.300528C4.89704 0.30531 5.13409 0.326417 5.36886 0.363702L5.39239 0.215558L5.41592 0.0674148C5.16757 0.0279749 4.91681 0.00564696 4.66541 0.000588611L4.66239 0.150558ZM3.86239 0.316558L3.9254 0.45268C4.15495 0.346417 4.40586 0.294354 4.65874 0.300514L4.66239 0.150558L4.66604 0.000602752C4.36719 -0.00667706 4.07066 0.0548523 3.79938 0.180436L3.86239 0.316558ZM2.91439 1.32856L3.04837 1.396C3.24755 1.00031 3.55657 0.670419 3.93843 0.445857L3.86239 0.316558L3.78635 0.187259C3.35477 0.441061 3.00551 0.813901 2.78041 1.26112L2.91439 1.32856ZM2.52139 1.88056L2.63517 1.9783C2.78859 1.7997 2.92543 1.60751 3.04399 1.40409L2.91439 1.32856L2.7848 1.25303C2.67541 1.44071 2.54916 1.61804 2.40761 1.78282L2.52139 1.88056ZM2.00739 2.28056L2.08719 2.40757C2.27999 2.28644 2.46013 2.14625 2.62491 1.98911L2.52139 1.88056L2.41787 1.77201C2.26763 1.91528 2.10338 2.0431 1.92759 2.15355L2.00739 2.28056ZM1.02439 3.25256L1.15335 3.32916C1.37946 2.94852 1.69937 2.63219 2.08254 2.41038L2.00739 2.28056L1.93224 2.15074C1.50469 2.39824 1.14773 2.75122 0.895427 3.17595L1.02439 3.25256ZM0.853391 4.49056L1.00245 4.47378C0.957915 4.07821 1.01322 3.6778 1.16332 3.30912L1.02439 3.25256L0.885463 3.196C0.716464 3.61111 0.65419 4.06196 0.704332 4.50734L0.853391 4.49056ZM0.820391 5.22556L0.968382 5.25002C1.01046 4.99545 1.02208 4.73677 1.00298 4.47946L0.853391 4.49056L0.703802 4.50166C0.721136 4.73523 0.710594 4.97002 0.672399 5.2011L0.820391 5.22556ZM0.550391 5.85756L0.680238 5.93266C0.801395 5.72317 0.896812 5.49983 0.964418 5.26746L0.820391 5.22556L0.676363 5.18365C0.615504 5.39283 0.529609 5.59388 0.420544 5.78246L0.550391 5.85756ZM0.150391 7.08956L0.299999 7.10039C0.329875 6.68762 0.459532 6.28827 0.677826 5.93668L0.550391 5.85756L0.422955 5.77844C0.179039 6.1713 0.034164 6.61751 0.000781983 7.07873L0.150391 7.08956ZM0.550391 8.32156L0.677834 8.24245C0.459568 7.89083 0.329912 7.49149 0.299998 7.07872L0.150391 7.08956L0.000782967 7.1004C0.034206 7.5616 0.179075 8.0078 0.422948 8.40067L0.550391 8.32156ZM0.820391 8.95356L0.964418 8.91165C0.896812 8.67929 0.801395 8.45594 0.680238 8.24646L0.550391 8.32156L0.420544 8.39666C0.529609 8.58523 0.615504 8.78629 0.676363 8.99546L0.820391 8.95356ZM0.853391 9.68856L1.00298 9.69966C1.02208 9.44234 1.01046 9.18367 0.968382 8.9291L0.820391 8.95356L0.672399 8.97802C0.710594 9.20909 0.721136 9.44389 0.703802 9.67746L0.853391 9.68856ZM1.02239 10.9306L1.16139 10.8742C1.01131 10.5042 0.956634 10.1024 1.0024 9.70575L0.853391 9.68856L0.704379 9.67136C0.652847 10.118 0.714404 10.5704 0.883391 10.9869L1.02239 10.9306ZM2.00539 11.9026L2.08054 11.7727C1.69737 11.5509 1.37746 11.2346 1.15135 10.854L1.02239 10.9306L0.893427 11.0072C1.14573 11.4319 1.50269 11.7849 1.93024 12.0324L2.00539 11.9026ZM2.51939 12.3026L2.62289 12.194C2.45809 12.0369 2.27797 11.8967 2.08522 11.7756L2.00539 11.9026L1.92557 12.0296C2.10135 12.14 2.26561 12.2679 2.41589 12.4111L2.51939 12.3026ZM2.91239 12.8546L3.04199 12.779C2.92343 12.5756 2.7866 12.3834 2.63317 12.2048L2.51939 12.3026L2.40561 12.4003C2.54716 12.5651 2.67341 12.7424 2.78279 12.9301L2.91239 12.8546ZM3.86039 13.8666L3.93643 13.7373C3.55457 13.5127 3.24555 13.1828 3.04637 12.7871L2.91239 12.8546L2.77841 12.922C3.00351 13.3692 3.35277 13.7421 3.78435 13.9959L3.86039 13.8666ZM4.17439 13.9776L4.20907 13.8316C4.11113 13.8083 4.01594 13.7747 3.92513 13.7312L3.86039 13.8666L3.79565 14.0019C3.90569 14.0545 4.02103 14.0953 4.13971 14.1235L4.17439 13.9776ZM4.17439 16.8566L4.32417 16.8648C4.37701 15.9004 4.37701 14.9338 4.32417 13.9694L4.17439 13.9776L4.02462 13.9858C4.07686 14.9392 4.07686 15.8949 4.02462 16.8484L4.17439 16.8566ZM3.90501 18.4272L4.0524 18.455C4.15094 17.9328 4.25265 17.394 4.32302 16.8768L4.17439 16.8566L4.02576 16.8363C3.95661 17.3446 3.85643 17.8757 3.75761 18.3993L3.90501 18.4272ZM3.905 18.4272L4.05266 18.4536L4.05267 18.4535L3.90501 18.4272L3.75734 18.4008L3.75733 18.4008L3.905 18.4272ZM3.87439 18.5896L4.02179 18.6173L4.0524 18.455L3.905 18.4272L3.7576 18.3994L3.72699 18.5618L3.87439 18.5896ZM3.56539 20.7186L3.71512 20.7276C3.758 20.0189 3.86016 19.3151 4.02051 18.6234L3.87439 18.5896L3.72827 18.5557C3.56413 19.2636 3.45956 19.9841 3.41566 20.7095L3.56539 20.7186ZM5.98639 24.1506V24.0006C5.36453 24.0006 4.80014 23.6583 4.38586 23.0707C3.97122 22.4827 3.71393 21.6561 3.71539 20.7188L3.56539 20.7186L3.41539 20.7183C3.41385 21.708 3.68506 22.5974 4.14067 23.2436C4.59664 23.8903 5.24425 24.3006 5.98639 24.3006V24.1506ZM8.41139 20.7236H8.26139C8.26139 21.6583 8.00317 22.4837 7.5879 23.0712C7.17296 23.6583 6.60828 24.0006 5.98639 24.0006V24.1506V24.3006C6.7285 24.3006 7.37632 23.8903 7.83288 23.2444C8.28911 22.5989 8.56139 21.7108 8.56139 20.7236H8.41139ZM8.10239 18.5946L7.95627 18.6284C8.11663 19.3201 8.21878 20.0239 8.26166 20.7326L8.41139 20.7236L8.56112 20.7145C8.51722 19.9891 8.41266 19.2686 8.24852 18.5607L8.10239 18.5946ZM8.10123 18.5886L7.95397 18.6171L7.95513 18.6231L8.10239 18.5946L8.24965 18.566L8.2485 18.5601L8.10123 18.5886ZM7.80239 16.8616L7.65365 16.881C7.7281 17.4514 7.8435 18.0469 7.95397 18.6171L8.10123 18.5886L8.24849 18.56C8.13768 17.988 8.02417 17.4018 7.95113 16.8421L7.80239 16.8616ZM7.80239 13.9826L7.6526 13.9746C7.60107 14.9389 7.60107 15.9052 7.6526 16.8696L7.80239 16.8616L7.95218 16.8536C7.90121 15.8999 7.90121 14.9442 7.95218 13.9906L7.80239 13.9826ZM8.11639 13.8716L8.05161 13.7363C7.96084 13.7797 7.86567 13.8134 7.76775 13.8366L7.80239 13.9826L7.83703 14.1285C7.95575 14.1003 8.07112 14.0595 8.18117 14.0069L8.11639 13.8716ZM9.06439 12.8596L8.93041 12.7921C8.73123 13.1878 8.42221 13.5177 8.04035 13.7423L8.11639 13.8716L8.19243 14.0009C8.62401 13.7471 8.97327 13.3742 9.19837 12.927L9.06439 12.8596ZM9.45739 12.3076L9.34362 12.2098C9.19017 12.3884 9.05333 12.5806 8.93479 12.784L9.06439 12.8596L9.19399 12.9351C9.30336 12.7474 9.4296 12.5701 9.57116 12.4053L9.45739 12.3076ZM9.97139 11.9076L9.89159 11.7806C9.6988 11.9017 9.51866 12.0419 9.35388 12.199L9.45739 12.3076L9.5609 12.4161C9.71116 12.2728 9.87541 12.145 10.0512 12.0346L9.97139 11.9076ZM10.9544 10.9356L10.8254 10.859C10.5993 11.2396 10.2794 11.5559 9.89624 11.7777L9.97139 11.9076L10.0465 12.0374C10.4741 11.7899 10.8311 11.4369 11.0834 11.0122L10.9544 10.9356ZM11.1224 9.69256L10.9734 9.70991C11.0196 10.1068 10.9653 10.5089 10.8154 10.8793L10.9544 10.9356L11.0934 10.9918C11.2622 10.5748 11.3234 10.1221 11.2714 9.6752L11.1224 9.69256ZM11.1554 8.95756L11.0074 8.9331C10.9653 9.18767 10.9537 9.44634 10.9728 9.70366L11.1224 9.69256L11.272 9.68146C11.2546 9.44789 11.2652 9.21309 11.3034 8.98202L11.1554 8.95756ZM11.4224 8.32656L11.2923 8.25195C11.1723 8.46124 11.0779 8.68424 11.0112 8.91611L11.1554 8.95756L11.2996 8.99901C11.3596 8.79029 11.4445 8.58957 11.5525 8.40117L11.4224 8.32656ZM11.8224 7.09456L11.6728 7.08373C11.6429 7.4965 11.5133 7.89584 11.295 8.24744L11.4224 8.32656L11.5498 8.40568C11.7937 8.01282 11.9386 7.5666 11.972 7.10539L11.8224 7.09456ZM11.4224 5.86256L11.2949 5.94167C11.5132 6.29329 11.6429 6.69263 11.6728 7.1054L11.8224 7.09456L11.972 7.08372C11.9386 6.62252 11.7937 6.17632 11.5498 5.78345L11.4224 5.86256ZM11.1554 5.23056L11.0112 5.2719C11.0778 5.50413 11.1721 5.72749 11.2922 5.93712L11.4224 5.86256L11.5525 5.788C11.4445 5.5993 11.3595 5.39826 11.2996 5.18922L11.1554 5.23056ZM4.40339 20.7236H4.25339C4.25339 21.4539 4.44043 22.1347 4.74482 22.6376C5.04667 23.1363 5.48282 23.4866 5.98639 23.4866V23.3366V23.1866C5.63196 23.1866 5.27661 22.9368 5.00146 22.4823C4.72885 22.0319 4.55339 21.4062 4.55339 20.7236H4.40339ZM4.69739 18.7446L4.5512 18.711C4.39996 19.3696 4.30051 20.039 4.25375 20.7132L4.40339 20.7236L4.55303 20.7339C4.59871 20.0754 4.69585 19.4215 4.84359 18.7781L4.69739 18.7446ZM4.70768 18.6914L4.56042 18.6629L4.55012 18.7161L4.69739 18.7446L4.84466 18.7731L4.85495 18.7199L4.70768 18.6914ZM5.00739 16.9676L4.85872 16.9476C4.78279 17.5137 4.6704 18.0946 4.56042 18.6629L4.70768 18.6914L4.85495 18.7199C4.96463 18.1532 5.07878 17.5637 5.15606 16.9875L5.00739 16.9676ZM5.01739 14.0176L4.8676 14.0256C4.9198 15.0026 4.91648 15.9819 4.85766 16.9585L5.00739 16.9676L5.15712 16.9766C5.21662 15.9886 5.21998 14.998 5.16718 14.0096L5.01739 14.0176ZM5.33737 13.9786L5.31743 13.8299C5.21155 13.8441 5.10734 13.8581 5.00282 13.8683L5.01739 14.0176L5.03196 14.1668C5.14274 14.156 5.25229 14.1413 5.3573 14.1273L5.33737 13.9786ZM5.38239 13.9726L5.36249 13.8239L5.31747 13.8299L5.33737 13.9786L5.35726 14.1273L5.40229 14.1212L5.38239 13.9726ZM5.98239 13.9156L5.97796 13.7656C5.77042 13.7718 5.5635 13.7914 5.35851 13.8245L5.38239 13.9726L5.40627 14.1206C5.59838 14.0897 5.79231 14.0712 5.98683 14.0655L5.98239 13.9156ZM6.58239 13.9726L6.60627 13.8245C6.40129 13.7914 6.19436 13.7718 5.98682 13.7656L5.98239 13.9156L5.97796 14.0655C6.17247 14.0712 6.3664 14.0897 6.55851 14.1206L6.58239 13.9726ZM6.62741 13.9786L6.64731 13.8299L6.60229 13.8239L6.58239 13.9726L6.56249 14.1212L6.60752 14.1273L6.62741 13.9786ZM6.94739 14.0176L6.96196 13.8683C6.85744 13.8581 6.75323 13.8441 6.64735 13.8299L6.62741 13.9786L6.60748 14.1273C6.71249 14.1413 6.82204 14.156 6.93283 14.1668L6.94739 14.0176ZM6.95739 16.9676L7.10712 16.9585C7.04835 15.9819 7.04503 15.0026 7.09718 14.0256L6.94739 14.0176L6.7976 14.0096C6.74485 14.998 6.74821 15.9886 6.80766 16.9766L6.95739 16.9676ZM7.2197 18.4927L7.36706 18.4647C7.2711 17.9593 7.17395 17.4475 7.10603 16.9474L6.95739 16.9676L6.80875 16.9877C6.87793 17.497 6.97663 18.0167 7.07233 18.5207L7.2197 18.4927ZM7.21971 18.4928L7.36695 18.4641L7.36694 18.4641L7.2197 18.4927L7.07245 18.5213L7.07246 18.5214L7.21971 18.4928ZM7.26739 18.7446L7.41477 18.7166L7.36709 18.4649L7.21971 18.4928L7.07233 18.5207L7.12001 18.7725L7.26739 18.7446ZM7.56139 20.7236L7.71103 20.7132C7.66427 20.039 7.56482 19.3696 7.41359 18.711L7.26739 18.7446L7.12119 18.7781C7.26893 19.4215 7.36608 20.0754 7.41175 20.7339L7.56139 20.7236ZM5.98639 23.3366V23.4866C6.48978 23.4866 6.92601 23.1375 7.22705 22.639C7.53055 22.1363 7.71552 21.4553 7.71139 20.7227L7.56139 20.7236L7.41139 20.7244C7.41526 21.4088 7.24173 22.0343 6.97023 22.4839C6.69627 22.9376 6.341 23.1866 5.98639 23.1866V23.3366ZM10.6724 7.96256L10.5423 7.88786C10.3871 8.15821 10.2675 8.44754 10.1865 8.74862L10.3314 8.78756L10.4762 8.8265C10.5505 8.55043 10.6601 8.28515 10.8025 8.03726L10.6724 7.96256ZM10.9744 7.09356L10.8253 7.0771C10.7937 7.36337 10.698 7.63884 10.5452 7.88301L10.6724 7.96256L10.7996 8.04211C10.9762 7.75971 11.0869 7.44111 11.1235 7.11002L10.9744 7.09356ZM10.6654 6.22556L10.5388 6.30608C10.6937 6.54946 10.7916 6.82464 10.8254 7.11112L10.9744 7.09356L11.1234 7.076C11.0843 6.7447 10.971 6.42649 10.7919 6.14504L10.6654 6.22556ZM10.3244 5.40056L10.1795 5.4395C10.2605 5.74057 10.3801 6.0299 10.5353 6.30026L10.6654 6.22556L10.7955 6.15086C10.6531 5.90296 10.5435 5.63768 10.4692 5.36162L10.3244 5.40056ZM10.2724 4.47156L10.1228 4.46114C10.1003 4.78429 10.1184 5.10899 10.1769 5.42761L10.3244 5.40056L10.4719 5.37351C10.418 5.07959 10.4013 4.78007 10.422 4.48198L10.2724 4.47156ZM10.1834 3.60856L10.0413 3.65655C10.1278 3.91277 10.1559 4.1851 10.1235 4.45358L10.2724 4.47156L10.4213 4.48954C10.4591 4.17661 10.4264 3.85919 10.3255 3.56056L10.1834 3.60856ZM9.46939 2.94656L9.39603 3.07739C9.66239 3.22674 9.88944 3.43726 10.0585 3.69159L10.1834 3.60856L10.3083 3.52553C10.113 3.23161 9.85058 2.98832 9.54275 2.81572L9.46939 2.94656ZM8.81939 2.42456L8.71348 2.53078C8.91843 2.73514 9.14475 2.9169 9.38854 3.0729L9.46939 2.94656L9.55024 2.82021C9.32455 2.67579 9.11504 2.50753 8.92531 2.31834L8.81939 2.42456ZM8.33239 1.75056L8.20301 1.82646C8.34841 2.07428 8.51707 2.3077 8.7067 2.52356L8.81939 2.42456L8.93208 2.32556C8.75501 2.124 8.59753 1.90605 8.46177 1.67465L8.33239 1.75056ZM7.72739 1.04356L7.64136 1.16643C7.87876 1.33266 8.07016 1.55633 8.1977 1.81657L8.33239 1.75056L8.46708 1.68455C8.31724 1.37879 8.09235 1.11599 7.81343 0.920684L7.72739 1.04356ZM7.30239 0.963558L7.30874 1.11342C7.43174 1.10821 7.5543 1.13128 7.66699 1.18086L7.72739 1.04356L7.7878 0.906258C7.63311 0.838206 7.46488 0.806539 7.29604 0.813693L7.30239 0.963558ZM6.70239 1.02056L6.72627 1.16865C6.91838 1.13767 7.11231 1.11925 7.30683 1.11349L7.30239 0.963558L7.29796 0.813624C7.09042 0.819762 6.8835 0.83942 6.67851 0.872471L6.70239 1.02056ZM5.98239 1.08556L5.98572 1.23552C6.2337 1.23001 6.48102 1.20769 6.72597 1.16869L6.70239 1.02056L6.67881 0.872423C6.44726 0.909284 6.21347 0.93039 5.97906 0.935595L5.98239 1.08556ZM5.26239 1.02056L5.23881 1.16869C5.48376 1.20769 5.73108 1.23002 5.97906 1.23552L5.98239 1.08556L5.98572 0.935595C5.75131 0.930393 5.51752 0.909287 5.28597 0.872424L5.26239 1.02056ZM4.66239 0.963558L4.65796 1.11349C4.85247 1.11924 5.0464 1.13766 5.23851 1.16864L5.26239 1.02056L5.28627 0.872472C5.08129 0.839414 4.87436 0.819756 4.66682 0.813624L4.66239 0.963558ZM4.23739 1.04356L4.29776 1.18087C4.41048 1.13132 4.53305 1.10824 4.65608 1.11343L4.66239 0.963558L4.6687 0.813691C4.49989 0.80658 4.33169 0.838241 4.17702 0.906243L4.23739 1.04356ZM3.63239 1.75056L3.76708 1.81657C3.89462 1.55633 4.08603 1.33266 4.32343 1.16643L4.23739 1.04356L4.15136 0.920684C3.87243 1.11599 3.64754 1.37879 3.4977 1.68455L3.63239 1.75056ZM3.15239 2.42456L3.26581 2.52272C3.4529 2.30654 3.61912 2.07314 3.76224 1.82565L3.63239 1.75056L3.50254 1.67547C3.36889 1.90658 3.21367 2.12453 3.03897 2.3264L3.15239 2.42456ZM2.50239 2.94656L2.58324 3.07291C2.82704 2.9169 3.05336 2.73515 3.25831 2.53077L3.15239 2.42456L3.04647 2.31834C2.85675 2.50754 2.64723 2.6758 2.42154 2.82021L2.50239 2.94656ZM1.78839 3.60856L1.91332 3.69159C2.08234 3.43726 2.30939 3.22674 2.57575 3.07739L2.50239 2.94656L2.42903 2.81572C2.1212 2.98832 1.85881 3.23161 1.66346 3.52553L1.78839 3.60856ZM1.69939 4.47156L1.84831 4.45358C1.81589 4.1851 1.84397 3.91277 1.9305 3.65655L1.78839 3.60856L1.64628 3.56056C1.54542 3.85919 1.51269 4.17661 1.55047 4.48954L1.69939 4.47156ZM1.64739 5.40056L1.79493 5.42763C1.85338 5.109 1.87156 4.78429 1.84903 4.46113L1.69939 4.47156L1.54975 4.48199C1.57054 4.78007 1.55377 5.07959 1.49985 5.37349L1.64739 5.40056ZM1.30639 6.22556L1.43646 6.30027C1.59175 6.02992 1.71134 5.74058 1.79225 5.43948L1.64739 5.40056L1.50253 5.36163C1.42835 5.63769 1.3187 5.90297 1.17632 6.15085L1.30639 6.22556ZM0.997391 7.09356L1.14636 7.11112C1.18013 6.82464 1.27809 6.54946 1.43295 6.30608L1.30639 6.22556L1.17984 6.14504C1.00076 6.42649 0.887479 6.7447 0.848422 7.076L0.997391 7.09356ZM1.30639 7.96156L1.43295 7.88104C1.27809 7.63766 1.18013 7.36248 1.14636 7.076L0.997391 7.09356L0.848422 7.11112C0.887479 7.44241 1.00076 7.76063 1.17984 8.04208L1.30639 7.96156ZM1.64739 8.78656L1.79225 8.74762C1.71131 8.44654 1.59172 8.15722 1.43647 7.88686L1.30639 7.96156L1.17631 8.03626C1.31867 8.28415 1.42832 8.54944 1.50253 8.8255L1.64739 8.78656ZM1.69939 9.71556L1.84903 9.72598C1.87153 9.40283 1.85335 9.07813 1.79493 8.75951L1.64739 8.78656L1.49985 8.81361C1.55374 9.10753 1.57051 9.40705 1.54975 9.70514L1.69939 9.71556ZM1.78739 10.5786L1.92956 10.5307C1.84334 10.2744 1.81557 10.0021 1.84829 9.73371L1.69939 9.71556L1.55049 9.69741C1.51236 10.0103 1.54473 10.3277 1.64522 10.6264L1.78739 10.5786ZM2.50139 11.2406L2.57475 11.1097C2.30839 10.9604 2.08134 10.7499 1.91232 10.4955L1.78739 10.5786L1.66246 10.6616C1.85781 10.9555 2.1202 11.1988 2.42803 11.3714L2.50139 11.2406ZM3.15139 11.7626L3.25731 11.6563C3.05236 11.452 2.82604 11.2702 2.58224 11.1142L2.50139 11.2406L2.42054 11.3669C2.64623 11.5113 2.85575 11.6796 3.04547 11.8688L3.15139 11.7626ZM3.63839 12.4376L3.76782 12.3617C3.62247 12.1136 3.45381 11.8798 3.26415 11.6636L3.15139 11.7626L3.03863 11.8615C3.21574 12.0634 3.37323 12.2816 3.50896 12.5134L3.63839 12.4376ZM4.24339 13.1446L4.32941 13.0217C4.09199 12.8555 3.90059 12.6318 3.77309 12.3716L3.63839 12.4376L3.50369 12.5036C3.6535 12.8094 3.8784 13.0722 4.15737 13.2674L4.24339 13.1446ZM4.66839 13.2246L4.66204 13.0747C4.53904 13.0799 4.41648 13.0568 4.30379 13.0073L4.24339 13.1446L4.18299 13.2819C4.33767 13.3499 4.5059 13.3816 4.67474 13.3744L4.66839 13.2246ZM5.26839 13.1676L5.24452 13.0195C5.0524 13.0504 4.85847 13.0689 4.66395 13.0746L4.66839 13.2246L4.67283 13.3745C4.88037 13.3684 5.08728 13.3487 5.29227 13.3156L5.26839 13.1676ZM5.98939 13.1026L5.98608 12.9526C5.73777 12.9581 5.49012 12.9804 5.24483 13.0194L5.26839 13.1676L5.29195 13.3157C5.52384 13.2788 5.75796 13.2577 5.9927 13.2525L5.98939 13.1026ZM6.70939 13.1676L6.73297 13.0194C6.48802 12.9804 6.2407 12.9581 5.99272 12.9526L5.98939 13.1026L5.98606 13.2525C6.22047 13.2577 6.45426 13.2788 6.68581 13.3157L6.70939 13.1676ZM7.30939 13.2246L7.31382 13.0746C7.11931 13.0689 6.92538 13.0504 6.73327 13.0195L6.70939 13.1676L6.68551 13.3156C6.89049 13.3487 7.09742 13.3684 7.30496 13.3745L7.30939 13.2246ZM7.73439 13.1446L7.67402 13.0072C7.5613 13.0568 7.43873 13.0799 7.3157 13.0747L7.30939 13.2246L7.30308 13.3744C7.47189 13.3815 7.64009 13.3499 7.79476 13.2819L7.73439 13.1446ZM8.33939 12.4376L8.2047 12.3715C8.07716 12.6318 7.88576 12.8555 7.64836 13.0217L7.73439 13.1446L7.82043 13.2674C8.09935 13.0721 8.32424 12.8093 8.47409 12.5036L8.33939 12.4376ZM8.82639 11.7636L8.7137 11.6646C8.52408 11.8804 8.35542 12.1138 8.21002 12.3616L8.33939 12.4376L8.46876 12.5135C8.60454 12.2821 8.76202 12.0641 8.93909 11.8626L8.82639 11.7636ZM9.47639 11.2416L9.39553 11.1152C9.15176 11.2712 8.92544 11.453 8.72048 11.6573L8.82639 11.7636L8.9323 11.8698C9.12205 11.6806 9.33156 11.5123 9.55725 11.3679L9.47639 11.2416ZM10.1904 10.5796L10.0655 10.4965C9.89644 10.7509 9.66939 10.9614 9.40303 11.1107L9.47639 11.2416L9.54975 11.3724C9.85758 11.1998 10.12 10.9565 10.3153 10.6626L10.1904 10.5796ZM10.2794 9.71656L10.1305 9.73454C10.1629 10.003 10.1348 10.2753 10.0483 10.5316L10.1904 10.5796L10.3325 10.6276C10.4334 10.3289 10.4661 10.0115 10.4283 9.69858L10.2794 9.71656ZM10.3314 8.78756L10.1839 8.76051C10.1254 9.07913 10.1073 9.40382 10.1298 9.72698L10.2794 9.71656L10.429 9.70614C10.4083 9.40805 10.425 9.10853 10.4789 8.81461L10.3314 8.78756Z" fill="#4C9E84"/>
<path fill-rule="evenodd" clip-rule="evenodd" d="M21.7053 3.91647H20.7973V2.63547C20.7831 1.85103 20.1378 1.22544 19.3533 1.23547H16.7623C15.9778 1.22544 15.3325 1.85103 15.3183 2.63547V3.91647H14.4103C13.6258 3.90644 12.9805 4.53203 12.9663 5.31647V19.2085C12.9805 19.9929 13.6258 20.6185 14.4103 20.6085H21.7053C22.4898 20.6185 23.1351 19.9929 23.1493 19.2085V5.32047C23.1372 4.53446 22.4914 3.90646 21.7053 3.91647ZM13.8053 9.83947H22.3053V17.1185H13.8053V9.83947ZM16.7573 2.05447C16.4304 2.05113 16.1622 2.31258 16.1573 2.63947L16.1613 3.92047H19.9483V2.63947C19.9434 2.31258 19.6752 2.05113 19.3483 2.05447H16.7573ZM14.4073 4.73947H21.7023C22.0292 4.73613 22.2974 4.99758 22.3023 5.32447V9.02447H13.8023V5.32447C13.8036 5.16517 13.8688 5.01306 13.9833 4.90231C14.0979 4.79155 14.2521 4.73144 14.4113 4.73547L14.4073 4.73947ZM14.4113 19.7975H21.7023L21.7053 19.7935C22.033 19.8002 22.3042 19.5402 22.3113 19.2125V17.9415H13.8113V19.2125C13.8162 19.5394 14.0844 19.8008 14.4113 19.7975Z" fill="#4C9E84"/>
<path d="M20.7973 3.91647H20.6473V4.06647H20.7973V3.91647ZM21.7053 3.91647V4.06648L21.7072 4.06646L21.7053 3.91647ZM20.7973 2.63547H20.9473L20.9473 2.63275L20.7973 2.63547ZM19.3533 1.23547V1.38548L19.3552 1.38546L19.3533 1.23547ZM16.7623 1.23547L16.7604 1.38547H16.7623V1.23547ZM15.3183 2.63547L15.1683 2.63275V2.63547H15.3183ZM15.3183 3.91647V4.06647H15.4683V3.91647H15.3183ZM14.4103 3.91647L14.4084 4.06647H14.4103V3.91647ZM12.9663 5.31647L12.8163 5.31375V5.31647H12.9663ZM12.9663 19.2085H12.8163L12.8163 19.2112L12.9663 19.2085ZM14.4103 20.6085V20.4585L14.4084 20.4585L14.4103 20.6085ZM21.7053 20.6085L21.7072 20.4585H21.7053V20.6085ZM23.1493 19.2085L23.2993 19.2112V19.2085H23.1493ZM23.1493 5.32047H23.2993L23.2993 5.31817L23.1493 5.32047ZM22.3053 9.83947H22.4553V9.68947H22.3053V9.83947ZM13.8053 9.83947V9.68947H13.6553V9.83947H13.8053ZM22.3053 17.1185V17.2685H22.4553V17.1185H22.3053ZM13.8053 17.1185H13.6553V17.2685H13.8053V17.1185ZM16.1573 2.63947L16.0073 2.63721L16.0073 2.63994L16.1573 2.63947ZM16.7573 2.05447L16.7558 2.20447H16.7573V2.05447ZM16.1613 3.92047L16.0113 3.92094L16.0118 4.07047H16.1613V3.92047ZM19.9483 3.92047V4.07047H20.0983V3.92047H19.9483ZM19.9483 2.63947H20.0983L20.0983 2.63721L19.9483 2.63947ZM19.3483 2.05447V2.20448L19.3498 2.20446L19.3483 2.05447ZM21.7023 4.73947V4.88948L21.7038 4.88946L21.7023 4.73947ZM14.4073 4.73947L14.3012 4.6334L14.0452 4.88947H14.4073V4.73947ZM22.3023 5.32447H22.4523L22.4523 5.32221L22.3023 5.32447ZM22.3023 9.02447V9.17447H22.4523V9.02447H22.3023ZM13.8023 9.02447H13.6523V9.17447H13.8023V9.02447ZM13.8023 5.32447L13.6523 5.32326V5.32447H13.8023ZM13.9833 4.90231L13.8791 4.79448V4.79449L13.9833 4.90231ZM14.4113 4.73547L14.5174 4.84154L14.7646 4.59436L14.4151 4.58552L14.4113 4.73547ZM21.7023 19.7975V19.9475H21.7773L21.8223 19.8875L21.7023 19.7975ZM14.4113 19.7975V19.6475L14.4098 19.6475L14.4113 19.7975ZM21.7053 19.7935L21.7084 19.6435L21.6314 19.6419L21.5853 19.7035L21.7053 19.7935ZM22.3113 19.2125L22.4613 19.2157V19.2125H22.3113ZM22.3113 17.9415H22.4613V17.7915H22.3113V17.9415ZM13.8113 17.9415V17.7915H13.6613V17.9415H13.8113ZM13.8113 19.2125H13.6613L13.6613 19.2147L13.8113 19.2125ZM20.7973 3.91647V4.06647H21.7053V3.91647V3.76647H20.7973V3.91647ZM20.7973 2.63547H20.6473V3.91647H20.7973H20.9473V2.63547H20.7973ZM19.3533 1.23547L19.3552 1.38546C20.0572 1.37648 20.6346 1.93627 20.6473 2.63819L20.7973 2.63547L20.9473 2.63275C20.9315 1.76579 20.2184 1.07439 19.3514 1.08548L19.3533 1.23547ZM16.7623 1.23547V1.38547H19.3533V1.23547V1.08547H16.7623V1.23547ZM15.3183 2.63547L15.4683 2.63819C15.481 1.93627 16.0584 1.37648 16.7604 1.38546L16.7623 1.23547L16.7642 1.08548C15.8972 1.07439 15.1841 1.76579 15.1683 2.63275L15.3183 2.63547ZM15.3183 3.91647H15.4683V2.63547H15.3183H15.1683V3.91647H15.3183ZM14.4103 3.91647V4.06647H15.3183V3.91647V3.76647H14.4103V3.91647ZM12.9663 5.31647L13.1163 5.31919C13.129 4.61726 13.7064 4.05748 14.4084 4.06646L14.4103 3.91647L14.4122 3.76648C13.5452 3.75539 12.8321 4.44679 12.8163 5.31375L12.9663 5.31647ZM12.9663 19.2085H13.1163V5.31647H12.9663H12.8163V19.2085H12.9663ZM14.4103 20.6085L14.4084 20.4585C13.7064 20.4675 13.129 19.9077 13.1163 19.2057L12.9663 19.2085L12.8163 19.2112C12.8321 20.0782 13.5452 20.7695 14.4122 20.7585L14.4103 20.6085ZM21.7053 20.6085V20.4585H14.4103V20.6085V20.7585H21.7053V20.6085ZM23.1493 19.2085L22.9993 19.2057C22.9866 19.9077 22.4092 20.4675 21.7072 20.4585L21.7053 20.6085L21.7034 20.7585C22.5704 20.7695 23.2835 20.0782 23.2993 19.2112L23.1493 19.2085ZM23.1493 5.32047H22.9993V19.2085H23.1493H23.2993V5.32047H23.1493ZM21.7053 3.91647L21.7072 4.06646C22.4106 4.0575 22.9885 4.61944 22.9993 5.32277L23.1493 5.32047L23.2993 5.31817C23.286 4.44947 22.5721 3.75541 21.7034 3.76648L21.7053 3.91647ZM22.3053 9.83947V9.68947H13.8053V9.83947V9.98947H22.3053V9.83947ZM22.3053 17.1185H22.4553V9.83947H22.3053H22.1553V17.1185H22.3053ZM13.8053 17.1185V17.2685H22.3053V17.1185V16.9685H13.8053V17.1185ZM13.8053 9.83947H13.6553V17.1185H13.8053H13.9553V9.83947H13.8053ZM16.1573 2.63947L16.3073 2.64174C16.311 2.3974 16.5114 2.20197 16.7558 2.20446L16.7573 2.05447L16.7588 1.90448C16.3494 1.9003 16.0135 2.22777 16.0073 2.63721L16.1573 2.63947ZM16.1613 3.92047L16.3113 3.92L16.3073 2.639L16.1573 2.63947L16.0073 2.63994L16.0113 3.92094L16.1613 3.92047ZM19.9483 3.92047V3.77047H16.1613V3.92047V4.07047H19.9483V3.92047ZM19.9483 2.63947H19.7983V3.92047H19.9483H20.0983V2.63947H19.9483ZM19.3483 2.05447L19.3498 2.20446C19.5942 2.20197 19.7946 2.3974 19.7983 2.64174L19.9483 2.63947L20.0983 2.63721C20.0921 2.22777 19.7562 1.9003 19.3468 1.90448L19.3483 2.05447ZM16.7573 2.05447V2.20447H19.3483V2.05447V1.90447H16.7573V2.05447ZM21.7023 4.73947V4.58947H14.4073V4.73947V4.88947H21.7023V4.73947ZM22.3023 5.32447L22.4523 5.32221C22.4461 4.91277 22.1102 4.5853 21.7008 4.58948L21.7023 4.73947L21.7038 4.88946C21.9482 4.88697 22.1486 5.0824 22.1523 5.32674L22.3023 5.32447ZM22.3023 9.02447H22.4523V5.32447H22.3023H22.1523V9.02447H22.3023ZM13.8023 9.02447V9.17447H22.3023V9.02447V8.87447H13.8023V9.02447ZM13.8023 5.32447H13.6523V9.02447H13.8023H13.9523V5.32447H13.8023ZM13.9833 4.90231L13.8791 4.79449C13.7356 4.9332 13.6539 5.12372 13.6523 5.32326L13.8023 5.32447L13.9523 5.32569C13.9533 5.20661 14.002 5.09291 14.0876 5.01013L13.9833 4.90231ZM14.4113 4.73547L14.4151 4.58552C14.2156 4.58047 14.0225 4.65577 13.8791 4.79448L13.9833 4.90231L14.0876 5.01013C14.1732 4.92734 14.2885 4.88241 14.4075 4.88542L14.4113 4.73547ZM14.4073 4.73947L14.5134 4.84554L14.5174 4.84154L14.4113 4.73547L14.3052 4.6294L14.3012 4.6334L14.4073 4.73947ZM21.7023 19.7975V19.6475H14.4113V19.7975V19.9475H21.7023V19.7975ZM21.7053 19.7935L21.5853 19.7035L21.5823 19.7075L21.7023 19.7975L21.8223 19.8875L21.8253 19.8835L21.7053 19.7935ZM22.3113 19.2125L22.1613 19.2092C22.156 19.4542 21.9533 19.6485 21.7084 19.6435L21.7053 19.7935L21.7022 19.9434C22.1127 19.9518 22.4524 19.6262 22.4613 19.2157L22.3113 19.2125ZM22.3113 17.9415H22.1613V19.2125H22.3113H22.4613V17.9415H22.3113ZM13.8113 17.9415V18.0915H22.3113V17.9415V17.7915H13.8113V17.9415ZM13.8113 19.2125H13.9613V17.9415H13.8113H13.6613V19.2125H13.8113ZM14.4113 19.7975L14.4098 19.6475C14.1654 19.65 13.965 19.4545 13.9613 19.2102L13.8113 19.2125L13.6613 19.2147C13.6675 19.6242 14.0034 19.9516 14.4128 19.9475L14.4113 19.7975Z" fill="#4C9E84"/>
</svg>
