<svg width="23" height="21" viewBox="0 0 23 21" fill="none" xmlns="http://www.w3.org/2000/svg">
<path fill-rule="evenodd" clip-rule="evenodd" d="M18.9271 13.4839H7.24012C6.88206 13.4978 6.59894 13.7921 6.59894 14.1504C6.59894 14.5087 6.88206 14.803 7.24012 14.8169H18.9271C19.2852 14.8308 19.5683 15.1251 19.5683 15.4834C19.5683 15.8417 19.2852 16.136 18.9271 16.1499H7.24012C6.15442 16.1302 5.2894 15.2357 5.30612 14.1499C5.30128 13.3627 5.75728 12.6455 6.47212 12.3159L4.14512 1.4839H0.795118C0.621128 1.48101 0.455417 1.4091 0.334451 1.28401C0.213484 1.15892 0.147176 0.990891 0.150118 0.816902C0.147176 0.642913 0.213484 0.474884 0.334451 0.349792C0.455417 0.2247 0.621128 0.152795 0.795118 0.149902H4.66212C4.96865 0.153809 5.23078 0.371348 5.29112 0.671902L5.75012 2.8159H21.5051C21.7093 2.81674 21.9007 2.91525 22.0201 3.0809C22.1423 3.24977 22.1809 3.46508 22.1251 3.6659L19.5471 12.9999C19.4732 13.2826 19.2193 13.4808 18.9271 13.4839ZM18.4401 12.1499L20.6501 4.1499H6.03812L7.75712 12.1499H18.4401Z" fill="white"/>
<path d="M7.24012 13.4839V13.3338L7.23431 13.334L7.24012 13.4839ZM18.9271 13.4839V13.6339L18.9287 13.6339L18.9271 13.4839ZM7.24012 14.8169L7.23431 14.9669H7.24012V14.8169ZM18.9271 14.8169L18.9329 14.6669H18.9271V14.8169ZM18.9271 16.1499V16.3L18.9329 16.2998L18.9271 16.1499ZM7.24012 16.1499L7.23739 16.2999H7.24012V16.1499ZM5.30612 14.1499L5.45614 14.1522L5.45612 14.149L5.30612 14.1499ZM6.47212 12.3159L6.53493 12.4521L6.644 12.4018L6.61877 12.2844L6.47212 12.3159ZM4.14512 1.4839L4.29177 1.4524L4.26632 1.3339H4.14512V1.4839ZM0.795118 1.4839L0.792624 1.6339H0.795118V1.4839ZM0.334451 1.28401L0.226621 1.38829H0.226621L0.334451 1.28401ZM0.150118 0.816902L0.300183 0.81944L0.300097 0.814366L0.150118 0.816902ZM0.334451 0.349792L0.226621 0.245519L0.226621 0.245519L0.334451 0.349792ZM0.795118 0.149902V-0.00011839L0.792624 -7.69347e-05L0.795118 0.149902ZM4.66212 0.149902L4.66403 -9.76622e-05H4.66212V0.149902ZM5.29112 0.671902L5.14404 0.701431L5.14444 0.703304L5.29112 0.671902ZM5.75012 2.8159L5.60344 2.8473L5.62883 2.9659H5.75012V2.8159ZM21.5051 2.8159L21.5057 2.6659H21.5051V2.8159ZM22.0201 3.0809L21.8984 3.1686L21.8986 3.16883L22.0201 3.0809ZM22.1251 3.6659L21.9806 3.62573L21.9805 3.62597L22.1251 3.6659ZM19.5471 12.9999L19.4025 12.96L19.402 12.9619L19.5471 12.9999ZM20.6501 4.1499L20.7947 4.18984L20.8472 3.9999H20.6501V4.1499ZM18.4401 12.1499V12.2999H18.5543L18.5847 12.1898L18.4401 12.1499ZM6.03812 4.1499V3.9999H5.85246L5.89147 4.18141L6.03812 4.1499ZM7.75712 12.1499L7.61047 12.1814L7.63593 12.2999H7.75712V12.1499ZM7.24012 13.4839V13.6339H18.9271V13.4839V13.3339H7.24012V13.4839ZM6.59894 14.1504H6.74894C6.74894 13.8727 6.96839 13.6445 7.24593 13.6338L7.24012 13.4839L7.23431 13.334C6.79573 13.351 6.44894 13.7115 6.44894 14.1504H6.59894ZM7.24012 14.8169L7.24593 14.667C6.96839 14.6563 6.74894 14.4281 6.74894 14.1504H6.59894H6.44894C6.44894 14.5893 6.79573 14.9498 7.23431 14.9668L7.24012 14.8169ZM18.9271 14.8169V14.6669H7.24012V14.8169V14.9669H18.9271V14.8169ZM19.5683 15.4834H19.7183C19.7183 15.0445 19.3715 14.684 18.9329 14.667L18.9271 14.8169L18.9213 14.9668C19.1988 14.9775 19.4183 15.2057 19.4183 15.4834H19.5683ZM18.9271 16.1499L18.9329 16.2998C19.3715 16.2828 19.7183 15.9223 19.7183 15.4834H19.5683H19.4183C19.4183 15.7611 19.1988 15.9893 18.9213 16L18.9271 16.1499ZM7.24012 16.1499V16.2999H18.9271V16.1499V15.9999H7.24012V16.1499ZM5.30612 14.1499L5.15614 14.1476C5.13815 15.316 6.06903 16.2787 7.2374 16.2999L7.24012 16.1499L7.24284 15.9999C6.23981 15.9817 5.44066 15.1553 5.4561 14.1522L5.30612 14.1499ZM6.47212 12.3159L6.40931 12.1797C5.64102 12.5339 5.15092 13.3048 5.15612 14.1508L5.30612 14.1499L5.45612 14.149C5.45164 13.4207 5.87354 12.7571 6.53493 12.4521L6.47212 12.3159ZM4.14512 1.4839L3.99846 1.51541L6.32546 12.3474L6.47212 12.3159L6.61877 12.2844L4.29177 1.4524L4.14512 1.4839ZM0.795118 1.4839V1.6339H4.14512V1.4839V1.3339H0.795118V1.4839ZM0.334451 1.28401L0.226621 1.38829C0.375247 1.54198 0.57885 1.63033 0.792624 1.63388L0.795118 1.4839L0.797612 1.33392C0.663406 1.33169 0.535586 1.27623 0.44228 1.17974L0.334451 1.28401ZM0.150118 0.816902L0.000139728 0.814366C-0.00347495 1.02814 0.0779951 1.23459 0.226621 1.38829L0.334451 1.28401L0.44228 1.17974C0.348974 1.08325 0.297828 0.953643 0.300097 0.819438L0.150118 0.816902ZM0.334451 0.349792L0.226621 0.245519C0.0779951 0.399215 -0.00347495 0.605665 0.000139728 0.819438L0.150118 0.816902L0.300097 0.814366C0.297828 0.680161 0.348974 0.550554 0.44228 0.454065L0.334451 0.349792ZM0.795118 0.149902L0.792624 -7.69347e-05C0.57885 0.00347763 0.375247 0.0918236 0.226621 0.245519L0.334451 0.349792L0.44228 0.454065C0.535586 0.357576 0.663406 0.302113 0.797612 0.299882L0.795118 0.149902ZM4.66212 0.149902V-9.76622e-05H0.795118V0.149902V0.299902H4.66212V0.149902ZM5.29112 0.671902L5.43818 0.642376C5.36392 0.272463 5.04129 0.00472236 4.66403 -8.5488e-05L4.66212 0.149902L4.66021 0.29989C4.896 0.302895 5.09764 0.470233 5.14405 0.701429L5.29112 0.671902ZM5.75012 2.8159L5.89679 2.7845L5.43779 0.640501L5.29112 0.671902L5.14444 0.703304L5.60344 2.8473L5.75012 2.8159ZM21.5051 2.8159V2.6659H5.75012V2.8159V2.9659H21.5051V2.8159ZM22.0201 3.0809L22.1418 2.99321C21.9944 2.78861 21.7579 2.66693 21.5057 2.6659L21.5051 2.8159L21.5045 2.9659C21.6607 2.96654 21.8071 3.04189 21.8984 3.1686L22.0201 3.0809ZM22.1251 3.6659L22.2696 3.70608C22.3377 3.46128 22.2906 3.19882 22.1416 2.99297L22.0201 3.0809L21.8986 3.16883C21.994 3.30072 22.0242 3.46888 21.9806 3.62573L22.1251 3.6659ZM19.5471 12.9999L19.6917 13.0398L22.2697 3.70584L22.1251 3.6659L21.9805 3.62597L19.4025 12.96L19.5471 12.9999ZM18.9271 13.4839L18.9287 13.6339C19.2885 13.6301 19.6012 13.3859 19.6922 13.0379L19.5471 12.9999L19.402 12.9619C19.3452 13.1792 19.15 13.3315 18.9255 13.3339L18.9271 13.4839ZM20.6501 4.1499L20.5055 4.10996L18.2955 12.11L18.4401 12.1499L18.5847 12.1898L20.7947 4.18984L20.6501 4.1499ZM6.03812 4.1499V4.2999H20.6501V4.1499V3.9999H6.03812V4.1499ZM7.75712 12.1499L7.90377 12.1184L6.18477 4.11839L6.03812 4.1499L5.89147 4.18141L7.61047 12.1814L7.75712 12.1499ZM18.4401 12.1499V11.9999H7.75712V12.1499V12.2999H18.4401V12.1499Z" fill="white"/>
<path fill-rule="evenodd" clip-rule="evenodd" d="M8.5481 20.1509C7.44353 20.1509 6.5481 19.2554 6.5481 18.1509C6.5481 17.0463 7.44353 16.1509 8.5481 16.1509C9.65267 16.1509 10.5481 17.0463 10.5481 18.1509C10.5481 19.2554 9.65267 20.1509 8.5481 20.1509ZM9.2151 18.1509C9.2151 17.7825 8.91647 17.4839 8.5481 17.4839C8.17995 17.4844 7.88165 17.7827 7.8811 18.1509C7.8811 18.5193 8.17972 18.8179 8.5481 18.8179C8.91647 18.8179 9.2151 18.5193 9.2151 18.1509Z" fill="white"/>
<path d="M8.5481 17.4839V17.3339L8.54787 17.3339L8.5481 17.4839ZM7.8811 18.1509L7.7311 18.1507V18.1509H7.8811ZM6.5481 18.1509H6.3981C6.3981 19.3383 7.36068 20.3009 8.5481 20.3009V20.1509V20.0009C7.52637 20.0009 6.6981 19.1726 6.6981 18.1509H6.5481ZM8.5481 16.1509V16.0009C7.36068 16.0009 6.3981 16.9635 6.3981 18.1509H6.5481H6.6981C6.6981 17.1292 7.52637 16.3009 8.5481 16.3009V16.1509ZM10.5481 18.1509H10.6981C10.6981 16.9635 9.73551 16.0009 8.5481 16.0009V16.1509V16.3009C9.56982 16.3009 10.3981 17.1292 10.3981 18.1509H10.5481ZM8.5481 20.1509V20.3009C9.73551 20.3009 10.6981 19.3383 10.6981 18.1509H10.5481H10.3981C10.3981 19.1726 9.56982 20.0009 8.5481 20.0009V20.1509ZM8.5481 17.4839V17.6339C8.83363 17.6339 9.0651 17.8653 9.0651 18.1509H9.2151H9.3651C9.3651 17.6997 8.99931 17.3339 8.5481 17.3339V17.4839ZM7.8811 18.1509L8.0311 18.1511C8.03152 17.8656 8.26284 17.6343 8.54832 17.6339L8.5481 17.4839L8.54787 17.3339C8.09706 17.3346 7.73177 17.6998 7.7311 18.1507L7.8811 18.1509ZM8.5481 18.8179V18.6679C8.26256 18.6679 8.0311 18.4364 8.0311 18.1509H7.8811H7.7311C7.7311 18.6021 8.09688 18.9679 8.5481 18.9679V18.8179ZM9.2151 18.1509H9.0651C9.0651 18.4364 8.83363 18.6679 8.5481 18.6679V18.8179V18.9679C8.99931 18.9679 9.3651 18.6021 9.3651 18.1509H9.2151Z" fill="white"/>
<path fill-rule="evenodd" clip-rule="evenodd" d="M17.4832 20.1509C16.3786 20.1509 15.4832 19.2554 15.4832 18.1509C15.4832 17.0463 16.3786 16.1509 17.4832 16.1509C18.5877 16.1509 19.4832 17.0463 19.4832 18.1509C19.4832 19.2554 18.5877 20.1509 17.4832 20.1509ZM18.1502 18.1509C18.1502 17.7825 17.8515 17.4839 17.4832 17.4839C17.115 17.4844 16.8167 17.7827 16.8162 18.1509C16.8162 18.5193 17.1148 18.8179 17.4832 18.8179C17.8515 18.8179 18.1502 18.5193 18.1502 18.1509Z" fill="white"/>
<path d="M17.4832 17.4839V17.3339L17.4829 17.3339L17.4832 17.4839ZM16.8162 18.1509L16.6662 18.1507V18.1509H16.8162ZM15.4832 18.1509H15.3332C15.3332 19.3383 16.2957 20.3009 17.4832 20.3009V20.1509V20.0009C16.4614 20.0009 15.6332 19.1726 15.6332 18.1509H15.4832ZM17.4832 16.1509V16.0009C16.2957 16.0009 15.3332 16.9635 15.3332 18.1509H15.4832H15.6332C15.6332 17.1292 16.4614 16.3009 17.4832 16.3009V16.1509ZM19.4832 18.1509H19.6332C19.6332 16.9635 18.6706 16.0009 17.4832 16.0009V16.1509V16.3009C18.5049 16.3009 19.3332 17.1292 19.3332 18.1509H19.4832ZM17.4832 20.1509V20.3009C18.6706 20.3009 19.6332 19.3383 19.6332 18.1509H19.4832H19.3332C19.3332 19.1726 18.5049 20.0009 17.4832 20.0009V20.1509ZM17.4832 17.4839V17.6339C17.7687 17.6339 18.0002 17.8653 18.0002 18.1509H18.1502H18.3002C18.3002 17.6997 17.9344 17.3339 17.4832 17.3339V17.4839ZM16.8162 18.1509L16.9662 18.1511C16.9666 17.8656 17.1979 17.6343 17.4834 17.6339L17.4832 17.4839L17.4829 17.3339C17.0321 17.3346 16.6668 17.6998 16.6662 18.1507L16.8162 18.1509ZM17.4832 18.8179V18.6679C17.1976 18.6679 16.9662 18.4364 16.9662 18.1509H16.8162H16.6662C16.6662 18.6021 17.0319 18.9679 17.4832 18.9679V18.8179ZM18.1502 18.1509H18.0002C18.0002 18.4364 17.7687 18.6679 17.4832 18.6679V18.8179V18.9679C17.9344 18.9679 18.3002 18.6021 18.3002 18.1509H18.1502Z" fill="white"/>
</svg>
