<svg width="25" height="25" viewBox="0 0 25 25" fill="none" xmlns="http://www.w3.org/2000/svg">
<path fill-rule="evenodd" clip-rule="evenodd" d="M21.7449 21.127L24.0499 23.432L24.0509 23.431C24.1545 23.5348 24.1949 23.686 24.1568 23.8276C24.1187 23.9692 24.008 24.0798 23.8663 24.1176C23.7246 24.1555 23.5735 24.1148 23.4699 24.011L21.1629 21.707C21.0377 21.8316 20.8471 21.8626 20.6889 21.784L18.6039 20.741C17.8009 21.3553 16.667 21.2787 15.9539 20.562L3.7409 8.35104L2.8699 9.22204C2.76865 9.33708 2.6118 9.38622 2.463 9.34954C2.3142 9.31285 2.19818 9.19642 2.162 9.0475C2.12583 8.89858 2.17552 8.7419 2.2909 8.64104L3.1619 7.77004L4.3239 6.60804L1.7409 4.02604L0.869902 4.89704C0.768845 5.01226 0.612079 5.06167 0.463216 5.02524C0.314354 4.98881 0.198126 4.87259 0.161696 4.72372C0.125265 4.57486 0.174686 4.41809 0.289902 4.31704L4.3549 0.252039C4.51771 0.109236 4.7634 0.11727 4.91654 0.270405C5.06967 0.423539 5.0777 0.669227 4.9349 0.832039L4.0639 1.70404L6.6459 4.28604L7.8079 3.12204L8.6789 2.25104C8.84061 2.0984 9.0944 2.10206 9.25164 2.2593C9.40888 2.41654 9.41254 2.67033 9.2599 2.83204L8.3889 3.70504L18.6699 13.987L20.5999 15.917C21.3116 16.6328 21.3879 17.7632 20.7789 18.568L21.8219 20.653C21.9008 20.8112 21.8698 21.002 21.7449 21.127ZM11.3209 12.445L10.1589 13.606L10.4199 13.866H17.3849L11.1549 7.63604L10.5739 8.21704L8.2509 10.54L7.6699 11.121L8.4169 11.863L9.5779 10.701C9.73961 10.5484 9.9934 10.5521 10.1506 10.7093C10.3079 10.8665 10.3115 11.1203 10.1589 11.282L8.9979 12.444L9.5789 13.025L10.7399 11.864C10.8426 11.7552 10.9964 11.7108 11.1413 11.7482C11.2863 11.7855 11.3994 11.8987 11.4368 12.0436C11.4741 12.1885 11.4297 12.3423 11.3209 12.445ZM8.2589 9.38004L5.4849 6.60804L6.6459 5.44704L9.4169 8.21804L8.2589 9.38004ZM10.5789 7.05704L7.8079 4.28604L7.2269 4.86604L9.9979 7.63804L10.5789 7.05704ZM2.3269 3.45004L3.4879 2.28904L6.0699 4.86604L4.9039 6.03204L2.3269 3.45004ZM7.6699 9.96004L4.9039 7.18904L4.3239 7.77004L7.0889 10.541L7.6699 9.96004ZM16.5349 19.981L11.2419 14.688H18.2099L20.0189 16.497C20.49 16.9693 20.49 17.7338 20.0189 18.206L20.0029 18.222L18.2599 19.964L18.2439 19.98C17.7719 20.4514 17.0075 20.4518 16.5349 19.981ZM20.1809 19.205L19.2439 20.142L20.7929 20.916L20.9549 20.754L20.1809 19.205Z" fill="#4C9E84"/>
<path d="M24.0499 23.432L23.9438 23.5381L24.05 23.6443L24.1561 23.538L24.0499 23.432ZM21.7449 21.127L21.6388 21.021L21.5328 21.1271L21.6388 21.2331L21.7449 21.127ZM24.0509 23.431L24.1571 23.3251L24.0509 23.2187L23.9447 23.3251L24.0509 23.431ZM23.4699 24.011L23.5761 23.9051L23.5759 23.9049L23.4699 24.011ZM21.1629 21.707L21.2689 21.6009L21.1631 21.4952L21.0571 21.6007L21.1629 21.707ZM20.6889 21.784L20.6218 21.9182L20.6222 21.9184L20.6889 21.784ZM18.6039 20.741L18.671 20.6069L18.5872 20.565L18.5128 20.6219L18.6039 20.741ZM15.9539 20.562L16.0602 20.4562L16.06 20.456L15.9539 20.562ZM3.7409 8.35104L3.84696 8.24496L3.74089 8.13892L3.63484 8.24497L3.7409 8.35104ZM2.8699 9.22204L2.76362 9.11576L2.75731 9.12293L2.8699 9.22204ZM2.2909 8.64104L2.38984 8.75423L2.39697 8.7471L2.2909 8.64104ZM3.1619 7.77004L3.05584 7.66397V7.66397L3.1619 7.77004ZM4.3239 6.60804L4.42997 6.71411L4.53605 6.60802L4.42995 6.50195L4.3239 6.60804ZM1.7409 4.02604L1.84695 3.91995L1.74088 3.81393L1.63484 3.91997L1.7409 4.02604ZM0.869902 4.89704L0.763609 4.79075L0.757133 4.79813L0.869902 4.89704ZM0.161696 4.72372L0.307396 4.68807V4.68807L0.161696 4.72372ZM0.289902 4.31704L0.389023 4.43005L0.395968 4.4231L0.289902 4.31704ZM4.3549 0.252039L4.25578 0.139028L4.24884 0.145973L4.3549 0.252039ZM4.9349 0.832039L5.04125 0.938267L5.04767 0.930949L4.9349 0.832039ZM4.0639 1.70404L3.95777 1.59803L3.85183 1.7041L3.95784 1.8101L4.0639 1.70404ZM6.6459 4.28604L6.53984 4.39211L6.64599 4.49826L6.75206 4.39201L6.6459 4.28604ZM7.8079 3.12204L7.70184 3.01597L7.70174 3.01606L7.8079 3.12204ZM8.6789 2.25104L8.5759 2.14191L8.57284 2.14497L8.6789 2.25104ZM9.2599 2.83204L9.36613 2.93802L9.36898 2.935L9.2599 2.83204ZM8.3889 3.70504L8.28271 3.59909L8.1769 3.70516L8.28283 3.8111L8.3889 3.70504ZM18.6699 13.987L18.5638 14.0931L18.5638 14.0931L18.6699 13.987ZM20.5999 15.917L20.7063 15.8113L20.706 15.811L20.5999 15.917ZM20.7789 18.568L20.6593 18.4775L20.6031 18.5518L20.6448 18.6351L20.7789 18.568ZM21.8219 20.653L21.9561 20.5861L21.9561 20.5859L21.8219 20.653ZM10.1589 13.606L10.0529 13.4999L9.94652 13.6062L10.053 13.7123L10.1589 13.606ZM11.3209 12.445L11.2179 12.3359L11.2149 12.3389L11.3209 12.445ZM10.4199 13.866L10.314 13.9723L10.3579 14.016H10.4199V13.866ZM17.3849 13.866V14.016H17.747L17.491 13.76L17.3849 13.866ZM11.1549 7.63604L11.261 7.52997L11.1549 7.42391L11.0488 7.52997L11.1549 7.63604ZM10.5739 8.21704L10.68 8.3231V8.3231L10.5739 8.21704ZM8.2509 10.54L8.35697 10.6461V10.6461L8.2509 10.54ZM7.6699 11.121L7.56384 11.015L7.45741 11.1214L7.56419 11.2275L7.6699 11.121ZM8.4169 11.863L8.31119 11.9695L8.4173 12.0749L8.52301 11.9691L8.4169 11.863ZM9.5779 10.701L9.47489 10.5919L9.47179 10.595L9.5779 10.701ZM10.1506 10.7093L10.2567 10.6032L10.2567 10.6032L10.1506 10.7093ZM10.1589 11.282L10.2651 11.3881L10.268 11.385L10.1589 11.282ZM8.9979 12.444L8.89179 12.338L8.78582 12.4441L8.89184 12.5501L8.9979 12.444ZM9.5789 13.025L9.47284 13.1311L9.5789 13.2372L9.68497 13.1311L9.5789 13.025ZM10.7399 11.864L10.846 11.9701L10.849 11.967L10.7399 11.864ZM11.1413 11.7482L11.1788 11.6029V11.6029L11.1413 11.7482ZM11.4368 12.0436L11.2915 12.081V12.081L11.4368 12.0436ZM5.4849 6.60804L5.37884 6.50197L5.27273 6.60808L5.37887 6.71414L5.4849 6.60804ZM8.2589 9.38004L8.15287 9.48614L8.25912 9.59232L8.36515 9.48592L8.2589 9.38004ZM6.6459 5.44704L6.75197 5.34097L6.6459 5.23491L6.53984 5.34097L6.6459 5.44704ZM9.4169 8.21804L9.52315 8.32392L9.62885 8.21786L9.52297 8.11197L9.4169 8.21804ZM7.8079 4.28604L7.91397 4.17997L7.80799 4.074L7.70193 4.17988L7.8079 4.28604ZM10.5789 7.05704L10.685 7.1631L10.791 7.05704L10.685 6.95097L10.5789 7.05704ZM7.2269 4.86604L7.12093 4.75988L7.0147 4.86593L7.12082 4.97209L7.2269 4.86604ZM9.9979 7.63804L9.89182 7.74409L9.99788 7.85019L10.104 7.7441L9.9979 7.63804ZM3.4879 2.28904L3.59386 2.18287L3.4878 2.07701L3.38184 2.18297L3.4879 2.28904ZM2.3269 3.45004L2.22084 3.34397L2.11487 3.44994L2.22073 3.556L2.3269 3.45004ZM6.0699 4.86604L6.17597 4.9721L6.28214 4.86594L6.17586 4.75987L6.0699 4.86604ZM4.9039 6.03204L4.79773 6.138L4.9038 6.24427L5.00997 6.1381L4.9039 6.03204ZM4.9039 7.18904L5.01006 7.08307L4.90391 6.97672L4.79774 7.08306L4.9039 7.18904ZM7.6699 9.96004L7.77597 10.0661L7.88194 9.96013L7.77606 9.85407L7.6699 9.96004ZM4.3239 7.77004L4.21774 7.66406L4.11198 7.77002L4.21772 7.87599L4.3239 7.77004ZM7.0889 10.541L6.98272 10.647L7.08879 10.7533L7.19497 10.6471L7.0889 10.541ZM11.2419 14.688V14.538H10.8798L11.1358 14.7941L11.2419 14.688ZM16.5349 19.981L16.4288 20.0871L16.429 20.0873L16.5349 19.981ZM18.2099 14.688L18.316 14.582L18.272 14.538H18.2099V14.688ZM20.0189 16.497L20.1251 16.3911L20.125 16.391L20.0189 16.497ZM20.0189 18.206L20.125 18.3121L20.1251 18.312L20.0189 18.206ZM20.0029 18.222L20.1089 18.3281L20.109 18.3281L20.0029 18.222ZM18.2599 19.964L18.1539 19.8579L18.1538 19.858L18.2599 19.964ZM18.2439 19.98L18.3499 20.0862L18.35 20.0861L18.2439 19.98ZM19.2439 20.142L19.1378 20.036L18.9906 20.1832L19.1769 20.2762L19.2439 20.142ZM20.1809 19.205L20.3151 19.138L20.222 18.9518L20.0748 19.099L20.1809 19.205ZM20.7929 20.916L20.7259 21.0502L20.8225 21.0985L20.899 21.0221L20.7929 20.916ZM20.9549 20.754L21.061 20.8601L21.1374 20.7837L21.0891 20.687L20.9549 20.754ZM24.0499 23.432L24.156 23.326L21.851 21.021L21.7449 21.127L21.6388 21.2331L23.9438 23.5381L24.0499 23.432ZM24.0509 23.431L23.9447 23.3251L23.9437 23.3261L24.0499 23.432L24.1561 23.538L24.1571 23.537L24.0509 23.431ZM24.1568 23.8276L24.3017 23.8666C24.3536 23.6732 24.2985 23.4668 24.1571 23.3251L24.0509 23.431L23.9447 23.537C24.0105 23.6029 24.0361 23.6988 24.0119 23.7887L24.1568 23.8276ZM23.8663 24.1176L23.905 24.2625C24.0985 24.2109 24.2497 24.0599 24.3017 23.8666L24.1568 23.8276L24.0119 23.7887C23.9878 23.8785 23.9175 23.9487 23.8276 23.9727L23.8663 24.1176ZM23.4699 24.011L23.3637 24.117C23.5052 24.2587 23.7115 24.3142 23.905 24.2625L23.8663 24.1176L23.8276 23.9727C23.7377 23.9967 23.6418 23.9709 23.5761 23.9051L23.4699 24.011ZM21.1629 21.707L21.0569 21.8132L23.3639 24.1172L23.4699 24.011L23.5759 23.9049L21.2689 21.6009L21.1629 21.707ZM20.6889 21.784L20.6222 21.9184C20.8379 22.0256 21.098 21.9833 21.2687 21.8133L21.1629 21.707L21.0571 21.6007C20.9775 21.68 20.8562 21.6997 20.7556 21.6497L20.6889 21.784ZM18.6039 20.741L18.5368 20.8752L20.6218 21.9182L20.6889 21.784L20.756 21.6499L18.671 20.6069L18.6039 20.741ZM15.9539 20.562L15.8476 20.6678C16.6138 21.4379 17.8322 21.5202 18.695 20.8602L18.6039 20.741L18.5128 20.6219C17.7696 21.1904 16.7202 21.1195 16.0602 20.4562L15.9539 20.562ZM3.7409 8.35104L3.63484 8.45711L15.8478 20.6681L15.9539 20.562L16.06 20.456L3.84696 8.24496L3.7409 8.35104ZM2.8699 9.22204L2.97597 9.3281L3.84697 8.4571L3.7409 8.35104L3.63484 8.24497L2.76384 9.11597L2.8699 9.22204ZM2.463 9.34954L2.42709 9.49517C2.63019 9.54525 2.84429 9.47817 2.9825 9.32115L2.8699 9.22204L2.75731 9.12293C2.693 9.19598 2.5934 9.22719 2.49891 9.2039L2.463 9.34954ZM2.162 9.0475L2.01624 9.08291C2.06562 9.28618 2.22399 9.4451 2.42709 9.49517L2.463 9.34954L2.49891 9.2039C2.40442 9.1806 2.33074 9.10666 2.30776 9.01209L2.162 9.0475ZM2.2909 8.64104L2.19218 8.5281C2.03469 8.66577 1.96686 8.87963 2.01624 9.08291L2.162 9.0475L2.30776 9.01209C2.28479 8.91752 2.31635 8.81802 2.38962 8.75398L2.2909 8.64104ZM3.1619 7.77004L3.05584 7.66397L2.18484 8.53497L2.2909 8.64104L2.39697 8.7471L3.26797 7.8761L3.1619 7.77004ZM4.3239 6.60804L4.21784 6.50197L3.05584 7.66397L3.1619 7.77004L3.26797 7.8761L4.42997 6.71411L4.3239 6.60804ZM1.7409 4.02604L1.63486 4.13213L4.21786 6.71413L4.3239 6.60804L4.42995 6.50195L1.84695 3.91995L1.7409 4.02604ZM0.869902 4.89704L0.975968 5.00311L1.84697 4.1321L1.7409 4.02604L1.63484 3.91997L0.763836 4.79097L0.869902 4.89704ZM0.463216 5.02524L0.42756 5.17095C0.630751 5.22067 0.844732 5.15322 0.982671 4.99595L0.869902 4.89704L0.757133 4.79813C0.692959 4.87129 0.593406 4.90268 0.498873 4.87954L0.463216 5.02524ZM0.161696 4.72372L0.0159951 4.75938C0.0657209 4.96257 0.224368 5.12122 0.42756 5.17095L0.463216 5.02524L0.498873 4.87954C0.40434 4.85641 0.330531 4.7826 0.307396 4.68807L0.161696 4.72372ZM0.289902 4.31704L0.190992 4.20427C0.0337259 4.34221 -0.0337306 4.55619 0.0159951 4.75938L0.161696 4.72372L0.307396 4.68807C0.284262 4.59353 0.315645 4.49398 0.388811 4.42981L0.289902 4.31704ZM4.3549 0.252039L4.24884 0.145973L0.183836 4.21097L0.289902 4.31704L0.395968 4.4231L4.46097 0.358105L4.3549 0.252039ZM4.91654 0.270405L5.0226 0.164339C4.81358 -0.0446845 4.47822 -0.0556509 4.25599 0.13927L4.3549 0.252039L4.45381 0.364808C4.5572 0.274123 4.71322 0.279225 4.81047 0.376471L4.91654 0.270405ZM4.9349 0.832039L5.04767 0.930949C5.24259 0.708716 5.23163 0.373362 5.0226 0.164339L4.91654 0.270405L4.81047 0.376471C4.90772 0.473717 4.91282 0.629737 4.82213 0.733129L4.9349 0.832039ZM4.0639 1.70404L4.17003 1.81004L5.04103 0.938044L4.9349 0.832039L4.82877 0.726034L3.95777 1.59803L4.0639 1.70404ZM6.6459 4.28604L6.75197 4.17997L4.16997 1.59797L4.0639 1.70404L3.95784 1.8101L6.53984 4.39211L6.6459 4.28604ZM7.8079 3.12204L7.70174 3.01606L6.53974 4.18006L6.6459 4.28604L6.75206 4.39201L7.91406 3.22801L7.8079 3.12204ZM8.6789 2.25104L8.57284 2.14497L7.70184 3.01597L7.8079 3.12204L7.91397 3.2281L8.78497 2.3571L8.6789 2.25104ZM9.25164 2.2593L9.35771 2.15323C9.14308 1.9386 8.79667 1.93361 8.57594 2.14196L8.6789 2.25104L8.78187 2.36012C8.88456 2.26319 9.04572 2.26551 9.14558 2.36537L9.25164 2.2593ZM9.2599 2.83204L9.36898 2.935C9.57733 2.71427 9.57234 2.36786 9.35771 2.15323L9.25164 2.2593L9.14558 2.36537C9.24543 2.46522 9.24775 2.62638 9.15082 2.72908L9.2599 2.83204ZM8.3889 3.70504L8.49509 3.81098L9.36609 2.93798L9.2599 2.83204L9.15371 2.72609L8.28271 3.59909L8.3889 3.70504ZM18.6699 13.987L18.776 13.881L8.49497 3.59898L8.3889 3.70504L8.28283 3.8111L18.5638 14.0931L18.6699 13.987ZM20.5999 15.917L20.706 15.811L18.776 13.881L18.6699 13.987L18.5638 14.0931L20.4938 16.0231L20.5999 15.917ZM20.7789 18.568L20.8985 18.6585C21.5526 17.7941 21.4706 16.58 20.7063 15.8113L20.5999 15.917L20.4935 16.0228C21.1525 16.6855 21.2232 17.7322 20.6593 18.4775L20.7789 18.568ZM21.8219 20.653L21.9561 20.5859L20.9131 18.5009L20.7789 18.568L20.6448 18.6351L21.6877 20.7201L21.8219 20.653ZM21.7449 21.127L21.851 21.2331C22.0215 21.0624 22.0638 20.8019 21.9561 20.5861L21.8219 20.653L21.6877 20.72C21.7378 20.8204 21.7181 20.9416 21.6388 21.021L21.7449 21.127ZM10.1589 13.606L10.2649 13.7122L11.4269 12.5512L11.3209 12.445L11.2149 12.3389L10.0529 13.4999L10.1589 13.606ZM10.4199 13.866L10.5258 13.7598L10.2648 13.4998L10.1589 13.606L10.053 13.7123L10.314 13.9723L10.4199 13.866ZM17.3849 13.866V13.716H10.4199V13.866V14.016H17.3849V13.866ZM11.1549 7.63604L11.0488 7.74211L17.2788 13.9721L17.3849 13.866L17.491 13.76L11.261 7.52997L11.1549 7.63604ZM10.5739 8.21704L10.68 8.3231L11.261 7.7421L11.1549 7.63604L11.0488 7.52997L10.4678 8.11097L10.5739 8.21704ZM8.2509 10.54L8.35697 10.6461L10.68 8.3231L10.5739 8.21704L10.4678 8.11097L8.14484 10.434L8.2509 10.54ZM7.6699 11.121L7.77597 11.2271L8.35697 10.6461L8.2509 10.54L8.14484 10.434L7.56384 11.015L7.6699 11.121ZM8.4169 11.863L8.52261 11.7566L7.77561 11.0146L7.6699 11.121L7.56419 11.2275L8.31119 11.9695L8.4169 11.863ZM9.5779 10.701L9.47179 10.595L8.31079 11.757L8.4169 11.863L8.52301 11.9691L9.68401 10.8071L9.5779 10.701ZM10.1506 10.7093L10.2567 10.6032C10.0421 10.3886 9.69567 10.3836 9.47494 10.592L9.5779 10.701L9.68086 10.8101C9.78356 10.7132 9.94472 10.7155 10.0446 10.8154L10.1506 10.7093ZM10.1589 11.282L10.268 11.385C10.4763 11.1643 10.4713 10.8179 10.2567 10.6032L10.1506 10.7093L10.0446 10.8154C10.1444 10.9152 10.1468 11.0764 10.0498 11.1791L10.1589 11.282ZM8.9979 12.444L9.10401 12.5501L10.265 11.3881L10.1589 11.282L10.0528 11.176L8.89179 12.338L8.9979 12.444ZM9.5789 13.025L9.68497 12.919L9.10397 12.338L8.9979 12.444L8.89184 12.5501L9.47284 13.1311L9.5789 13.025ZM10.7399 11.864L10.6338 11.758L9.47284 12.919L9.5789 13.025L9.68497 13.1311L10.846 11.9701L10.7399 11.864ZM11.1413 11.7482L11.1788 11.6029C10.9809 11.5519 10.771 11.6125 10.6308 11.7611L10.7399 11.864L10.849 11.967C10.9142 11.8979 11.0119 11.8697 11.1039 11.8934L11.1413 11.7482ZM11.4368 12.0436L11.582 12.0062C11.5311 11.8084 11.3766 11.6539 11.1788 11.6029L11.1413 11.7482L11.1039 11.8934C11.1959 11.9171 11.2678 11.989 11.2915 12.081L11.4368 12.0436ZM11.3209 12.445L11.4239 12.5541C11.5724 12.4139 11.633 12.204 11.582 12.0062L11.4368 12.0436L11.2915 12.081C11.3152 12.1731 11.2871 12.2707 11.2179 12.336L11.3209 12.445ZM5.4849 6.60804L5.37887 6.71414L8.15287 9.48614L8.2589 9.38004L8.36493 9.27394L5.59093 6.50193L5.4849 6.60804ZM6.6459 5.44704L6.53984 5.34097L5.37884 6.50197L5.4849 6.60804L5.59097 6.71411L6.75197 5.5531L6.6459 5.44704ZM9.4169 8.21804L9.52297 8.11197L6.75197 5.34097L6.6459 5.44704L6.53984 5.5531L9.31084 8.3241L9.4169 8.21804ZM8.2589 9.38004L8.36515 9.48592L9.52315 8.32392L9.4169 8.21804L9.31065 8.11216L8.15265 9.27416L8.2589 9.38004ZM7.8079 4.28604L7.70184 4.39211L10.4728 7.16311L10.5789 7.05704L10.685 6.95097L7.91397 4.17997L7.8079 4.28604ZM7.2269 4.86604L7.33288 4.9722L7.91388 4.3922L7.8079 4.28604L7.70193 4.17988L7.12093 4.75988L7.2269 4.86604ZM9.9979 7.63804L10.104 7.53199L7.33299 4.75999L7.2269 4.86604L7.12082 4.97209L9.89182 7.74409L9.9979 7.63804ZM10.5789 7.05704L10.4728 6.95097L9.89184 7.53197L9.9979 7.63804L10.104 7.7441L10.685 7.1631L10.5789 7.05704ZM3.4879 2.28904L3.38184 2.18297L2.22084 3.34397L2.3269 3.45004L2.43297 3.5561L3.59397 2.3951L3.4879 2.28904ZM6.0699 4.86604L6.17586 4.75987L3.59386 2.18287L3.4879 2.28904L3.38194 2.39521L5.96394 4.97221L6.0699 4.86604ZM4.9039 6.03204L5.00997 6.1381L6.17597 4.9721L6.0699 4.86604L5.96384 4.75997L4.79784 5.92597L4.9039 6.03204ZM2.3269 3.45004L2.22073 3.556L4.79773 6.138L4.9039 6.03204L5.01007 5.92608L2.43307 3.34408L2.3269 3.45004ZM4.9039 7.18904L4.79774 7.29501L7.56374 10.066L7.6699 9.96004L7.77606 9.85407L5.01006 7.08307L4.9039 7.18904ZM4.3239 7.77004L4.43006 7.87601L5.01006 7.29501L4.9039 7.18904L4.79774 7.08306L4.21774 7.66406L4.3239 7.77004ZM7.0889 10.541L7.19508 10.4351L4.43008 7.66409L4.3239 7.77004L4.21772 7.87599L6.98272 10.647L7.0889 10.541ZM7.6699 9.96004L7.56384 9.85397L6.98284 10.435L7.0889 10.541L7.19497 10.6471L7.77597 10.0661L7.6699 9.96004ZM11.2419 14.688L11.1358 14.7941L16.4288 20.0871L16.5349 19.981L16.641 19.875L11.348 14.582L11.2419 14.688ZM18.2099 14.688V14.538H11.2419V14.688V14.838H18.2099V14.688ZM20.0189 16.497L20.125 16.391L18.316 14.582L18.2099 14.688L18.1038 14.7941L19.9128 16.6031L20.0189 16.497ZM20.0189 18.206L20.1251 18.312C20.6546 17.7811 20.6546 16.9219 20.1251 16.3911L20.0189 16.497L19.9127 16.603C20.3254 17.0167 20.3254 17.6864 19.9127 18.1001L20.0189 18.206ZM20.0029 18.222L20.109 18.3281L20.125 18.3121L20.0189 18.206L19.9128 18.1L19.8968 18.116L20.0029 18.222ZM18.2599 19.964L18.3659 20.0701L20.1089 18.3281L20.0029 18.222L19.8969 18.1159L18.1539 19.8579L18.2599 19.964ZM18.2439 19.98L18.35 20.0861L18.366 20.0701L18.2599 19.964L18.1538 19.858L18.1378 19.874L18.2439 19.98ZM16.5349 19.981L16.429 20.0873C16.9602 20.6165 17.8194 20.616 18.3499 20.0862L18.2439 19.98L18.1379 19.8739C17.7244 20.2868 17.0547 20.2872 16.6408 19.8748L16.5349 19.981ZM19.2439 20.142L19.35 20.2481L20.287 19.3111L20.1809 19.205L20.0748 19.099L19.1378 20.036L19.2439 20.142ZM20.7929 20.916L20.8599 20.7819L19.3109 20.0079L19.2439 20.142L19.1769 20.2762L20.7259 21.0502L20.7929 20.916ZM20.9549 20.754L20.8488 20.648L20.6868 20.81L20.7929 20.916L20.899 21.0221L21.061 20.8601L20.9549 20.754ZM20.1809 19.205L20.0467 19.2721L20.8207 20.8211L20.9549 20.754L21.0891 20.687L20.3151 19.138L20.1809 19.205Z" fill="#4C9E84"/>
<path d="M15.1399 16.732C15.3592 16.732 15.5369 16.5542 15.5369 16.335C15.5369 16.1157 15.3592 15.938 15.1399 15.938C14.9207 15.938 14.7429 16.1157 14.7429 16.335C14.7429 16.5542 14.9207 16.732 15.1399 16.732Z" fill="#4C9E84" stroke="#4C9E84" stroke-width="0.3"/>
<path d="M17.1949 19.199C17.4141 19.199 17.5919 19.0213 17.5919 18.802C17.5919 18.5828 17.4141 18.405 17.1949 18.405C16.9756 18.405 16.7979 18.5828 16.7979 18.802C16.7979 19.0213 16.9756 19.199 17.1949 19.199Z" fill="#4C9E84" stroke="#4C9E84" stroke-width="0.3"/>
<path d="M18.0169 17.143C18.2361 17.143 18.4139 16.9653 18.4139 16.746C18.4139 16.5267 18.2361 16.349 18.0169 16.349C17.7976 16.349 17.6199 16.5267 17.6199 16.746C17.6199 16.9653 17.7976 17.143 18.0169 17.143Z" fill="#4C9E84" stroke="#4C9E84" stroke-width="0.3"/>
</svg>
