<svg width="42" height="33" viewBox="0 0 42 33" fill="none" xmlns="http://www.w3.org/2000/svg">
<path d="M40.5 0H1.5C0.670312 0 0 0.670312 0 1.5V31.5C0 32.3297 0.670312 33 1.5 33H40.5C41.3297 33 42 32.3297 42 31.5V1.5C42 0.670312 41.3297 0 40.5 0ZM36.0703 3.37969L21 15.0938L5.92969 3.37969H36.0703ZM38.625 5.19375V29.625H3.375V5.19375L2.08125 4.18594L3.37031 5.18906L19.3828 17.6391C19.8433 17.9968 20.4098 18.191 20.993 18.191C21.5761 18.191 22.1426 17.9968 22.6031 17.6391L38.625 5.19375L39.9187 4.18594L38.0766 1.81875H38.0813L39.9234 4.18594L38.625 5.19375Z" fill="black"/>
</svg>
